<svg height="17.029" viewBox="0 0 27.541 17.029" width="27.541" xmlns="http://www.w3.org/2000/svg"><path d="m0 0h27.541v17.029h-27.541z" fill="#fff"/><path d="m.887.879h25.784v15.272h-25.784z" fill="#d14a43"/><path d="m9.911 5.447h16.76v2.452h-16.76z"/><path d="m9.911.879h16.76v2.488h-16.76z"/><path d="m1.931 5.639a3.57 3.57 0 1 1 3.57 3.57 3.569 3.569 0 0 1 -3.57-3.57" fill-rule="evenodd"/><path d="m.887 10.345h25.784v2.777h-25.784z"/><g fill="#fff"><path d="m22.201 9.141a1.286 1.286 0 0 1 -1.285-1.285v-4.452a1.286 1.286 0 0 1 1.285-1.285h1.873a1.286 1.286 0 0 1 1.284 1.285v.697h-1.238v-.735h-1.966v4.533h1.966v-1.214h-.881v-1.238h2.119v2.409a1.286 1.286 0 0 1 -1.284 1.285z"/><path d="m11.161 9.137v-7.008h3.523v1.238h-2.285v1.647h2.285v1.238h-2.285v1.647h2.285v1.238z"/><path d="m19.343 9.137-.34-1.237h-2.297l-.338 1.237h-1.283l1.896-7.008h1.749l1.896 7.008zm-2.302-2.491h1.627l-.813-3.009z"/><path d="m6.851 15.318a.043.043 0 0 0 -.041-.028.107.107 0 0 0 -.052.017c-.05.027-.095.05-.138.069a.827.827 0 0 1 -.145.045.947.947 0 0 1 -.185.017 1.179 1.179 0 0 1 -.47-.087.7.7 0 0 1 -.312-.252.689.689 0 0 1 -.11-.394.701.701 0 0 1 .113-.395.756.756 0 0 1 .317-.266 1.078 1.078 0 0 1 .464-.095.845.845 0 0 1 .258.034 1.004 1.004 0 0 1 .208.097.095.095 0 0 0 .049.018c.035 0 .056-.04.064-.121h.058c-.006.092-.01.255-.01.49h-.058a1.121 1.121 0 0 0 -.035-.165.336.336 0 0 0 -.055-.112.381.381 0 0 0 -.1-.089.462.462 0 0 0 -.147-.074.631.631 0 0 0 -.174-.025.425.425 0 0 0 -.286.096.544.544 0 0 0 -.164.253 1.082 1.082 0 0 0 -.052.346 1.061 1.061 0 0 0 .054.347.551.551 0 0 0 .17.251.44.44 0 0 0 .288.095.587.587 0 0 0 .172-.026.408.408 0 0 0 .142-.074.319.319 0 0 0 .1-.092.347.347 0 0 0 .055-.12 1.305 1.305 0 0 0 .032-.178h.058c0 .244.004.414.01.509h-.058a.288.288 0 0 0 -.02-.091"/><path d="m8.238 14.467a.509.509 0 0 1 .165.42.503.503 0 0 1 -.165.418.707.707 0 0 1 -.454.132.709.709 0 0 1 -.454-.132.613.613 0 0 1 0-.837.703.703 0 0 1 .454-.133.707.707 0 0 1 .454.132m-.238-.495a1.127 1.127 0 0 0 .263.175l-.021.028a2.627 2.627 0 0 1 -.282-.069 1.52 1.52 0 0 1 -.209-.078.029.029 0 0 0 -.027.001 1.146 1.146 0 0 1 -.166.077 1.817 1.817 0 0 1 -.225.069l-.02-.028a1.125 1.125 0 0 0 .259-.173 1.062 1.062 0 0 0 .193-.223h.045a.955.955 0 0 0 .19.221m-.389.529a.882.882 0 0 0 -.065.386.869.869 0 0 0 .065.384.183.183 0 0 0 .347.001 1.211 1.211 0 0 0 0-.771.182.182 0 0 0 -.347 0"/><path d="m9.371 14.365v.041h-.268a.03.03 0 0 0 -.031.03v.785a.115.115 0 0 0 .027.086.128.128 0 0 0 .084.025.193.193 0 0 0 .172-.122l.043.019a.345.345 0 0 1 -.345.208.395.395 0 0 1 -.253-.069.199.199 0 0 1 -.073-.105.668.668 0 0 1 -.019-.176v-.651a.03.03 0 0 0 -.03-.03h-.182v-.041h.182a.031.031 0 0 0 .03-.031v-.208a.031.031 0 0 1 .03-.03.94.94 0 0 0 .293-.049.03.03 0 0 1 .041.029v.258a.031.031 0 0 0 .031.031z"/><path d="m9.856 14.879a.475.475 0 0 0 .047.223.3.3 0 0 0 .122.129.327.327 0 0 0 .159.041.404.404 0 0 0 .335-.162l.044.012a.46.46 0 0 1 -.099.154.515.515 0 0 1 -.17.117.583.583 0 0 1 -.235.045.748.748 0 0 1 -.306-.059.452.452 0 0 1 -.205-.181.65.65 0 0 1 .006-.61.485.485 0 0 1 .218-.189.778.778 0 0 1 .322-.063q.459 0 .475.416a.031.031 0 0 1 -.031.032h-.65a.031.031 0 0 0 -.031.029c0 .017-.001.04-.001.066m.355-.396a.142.142 0 0 0 -.133-.105.176.176 0 0 0 -.15.09.545.545 0 0 0 -.07.244.03.03 0 0 0 .03.034h.333a.03.03 0 0 0 .03-.031.609.609 0 0 0 -.04-.232"/><path d="m10.941 15.292a.285.285 0 0 0 .233.099.217.217 0 0 0 .126-.036.123.123 0 0 0 .053-.108.169.169 0 0 0 -.032-.101.329.329 0 0 0 -.079-.079c-.033-.023-.081-.055-.145-.095-.078-.051-.137-.09-.176-.119a.45.45 0 0 1 -.1-.104.216.216 0 0 1 -.037-.083.236.236 0 0 1 .084-.23.377.377 0 0 1 .129-.068.69.69 0 0 1 .217-.033.751.751 0 0 1 .177.019.538.538 0 0 1 .126.043.083.083 0 0 0 .044.014c.032 0 .051-.025.06-.074h.055c-.007.068-.01.186-.01.356h-.055a.444.444 0 0 0 -.1-.223.278.278 0 0 0 -.224-.09.206.206 0 0 0 -.123.034.111.111 0 0 0 -.048.095.153.153 0 0 0 .056.117.841.841 0 0 0 .137.095c.054.03.093.053.118.068.069.042.124.078.165.109a.445.445 0 0 1 .099.105.246.246 0 0 1 .038.135.218.218 0 0 1 -.065.157.426.426 0 0 1 -.174.105.747.747 0 0 1 -.241.037.604.604 0 0 1 -.235-.042 1.03 1.03 0 0 0 -.118-.043l-.012-.002c-.028 0-.047.024-.06.072h-.055c.006-.077.01-.211.01-.404h.055a.54.54 0 0 0 .107.274"/><path d="m13.745 15.323a.16.16 0 0 0 .127.042v.042c-.054-.004-.106-.006-.157-.006a2.096 2.096 0 0 0 -.333.022.031.031 0 0 1 -.036-.03v-.138a.327.327 0 0 1 -.328.183.585.585 0 0 1 -.271-.06.418.418 0 0 1 -.182-.185.663.663 0 0 1 -.063-.312.569.569 0 0 1 .071-.3.456.456 0 0 1 .2-.184.667.667 0 0 1 .293-.061.511.511 0 0 1 .235.046.03.03 0 0 0 .045-.026v-.288a.209.209 0 0 0 -.036-.136.161.161 0 0 0 -.126-.042v-.042c.054.004.106.006.157.006a2.244 2.244 0 0 0 .334-.022.03.03 0 0 1 .035.03v1.325a.213.213 0 0 0 .035.136m-.584-.929a.227.227 0 0 0 -.206.123.731.731 0 0 0 -.072.369q-.003.465.238.465a.239.239 0 0 0 .103-.022.207.207 0 0 0 .081-.063.199.199 0 0 0 .041-.095v-.695a.029.029 0 0 0 -.009-.022.245.245 0 0 0 -.176-.06"/><path d="m14.291 14.401a.201.201 0 0 0 .065-.103.178.178 0 0 0 .007-.047.086.086 0 0 0 -.007-.038.215.215 0 0 1 -.146.049.233.233 0 0 1 -.145-.042.142.142 0 0 1 .003-.227.243.243 0 0 1 .149-.043.215.215 0 0 1 .18.071.225.225 0 0 1 .041.075.292.292 0 0 1 .015.093.298.298 0 0 1 -.067.189.432.432 0 0 1 -.199.135l-.023-.037a.34.34 0 0 0 .127-.075"/><path d="m16.027 15.336a.154.154 0 0 0 .084.032v.041q-.151-.006-.384-.006-.259 0-.384.006v-.041a.489.489 0 0 0 .137-.018.057.057 0 0 0 .041-.056.25.25 0 0 0 -.031-.095l-.144-.314a.029.029 0 0 0 -.027-.018h-.512a.033.033 0 0 0 -.028.017l-.058.122a.563.563 0 0 0 -.069.225.108.108 0 0 0 .056.105.383.383 0 0 0 .167.032v.041c-.113-.004-.218-.006-.313-.006-.078 0-.142.002-.193.006v-.041c.084-.011.157-.082.218-.212l.567-1.165a.031.031 0 0 1 .029-.017c.021.001.044.002.068.002s.047 0 .067-.002a.03.03 0 0 1 .029.018l.605 1.247a.252.252 0 0 0 .075.097m-.986-.997-.213.443a.031.031 0 0 0 .028.044h.416a.031.031 0 0 0 .028-.043l-.204-.444a.03.03 0 0 0 -.055 0"/><path d="m16.821 14.389a.396.396 0 0 1 .206-.054.276.276 0 0 1 .128.027.184.184 0 0 1 .076.069.17.17 0 0 1 .025.09.154.154 0 0 1 -.054.122.208.208 0 0 1 -.143.048.239.239 0 0 1 -.137-.035.112.112 0 0 1 -.05-.095.181.181 0 0 1 .111-.158.163.163 0 0 0 -.031-.003.208.208 0 0 0 -.039.005.243.243 0 0 0 -.117.049.313.313 0 0 0 -.084.098.244.244 0 0 0 -.03.112v.536a.141.141 0 0 0 .057.13.349.349 0 0 0 .181.036v.043c-.21-.006-.344-.008-.402-.008-.054 0-.174.002-.362.008v-.043a.273.273 0 0 0 .096-.013.089.089 0 0 0 .051-.044.208.208 0 0 0 .015-.088v-.638a.208.208 0 0 0 -.036-.136.159.159 0 0 0 -.126-.042v-.042c.054.004.106.006.157.006a2.109 2.109 0 0 0 .334-.022.03.03 0 0 1 .035.03v.06a.03.03 0 0 0 .052.021.426.426 0 0 1 .087-.069"/><path d="m19.381 15.309a.089.089 0 0 0 .051.044.268.268 0 0 0 .095.013v.043c-.168-.006-.28-.008-.335-.008-.047 0-.151.002-.312.008v-.043a.163.163 0 0 0 .072-.013.075.075 0 0 0 .037-.044.249.249 0 0 0 .012-.088v-.629a.209.209 0 0 0 -.032-.126.142.142 0 0 0 -.12-.042.242.242 0 0 0 -.115.029.255.255 0 0 0 -.088.078.234.234 0 0 0 -.043.11v.58a.208.208 0 0 0 .015.088.078.078 0 0 0 .045.044.227.227 0 0 0 .087.013v.043c-.161-.006-.267-.008-.318-.008-.048 0-.152.002-.314.008v-.043a.157.157 0 0 0 .072-.013.076.076 0 0 0 .038-.044.288.288 0 0 0 .011-.088v-.629a.231.231 0 0 0 -.027-.126.12.12 0 0 0 -.109-.042.243.243 0 0 0 -.122.031.228.228 0 0 0 -.09.084.225.225 0 0 0 -.033.119v.563a.256.256 0 0 0 .012.088.072.072 0 0 0 .037.044.157.157 0 0 0 .072.013v.043c-.148-.006-.248-.008-.298-.008-.051 0-.168.002-.349.008v-.043a.282.282 0 0 0 .096-.013.084.084 0 0 0 .05-.044.192.192 0 0 0 .016-.088v-.638a.209.209 0 0 0 -.036-.136.159.159 0 0 0 -.126-.042v-.042c.054.004.106.006.157.006a2.096 2.096 0 0 0 .333-.022.031.031 0 0 1 .036.03v.057a.031.031 0 0 0 .052.022.451.451 0 0 1 .34-.121.405.405 0 0 1 .278.078.214.214 0 0 1 .046.066.03.03 0 0 0 .052.007.349.349 0 0 1 .137-.105.616.616 0 0 1 .248-.046.402.402 0 0 1 .277.078.217.217 0 0 1 .059.101.598.598 0 0 1 .018.163v.544a.19.19 0 0 0 .016.088"/><path d="m20.728 14.467a.509.509 0 0 1 .165.42.503.503 0 0 1 -.165.418.847.847 0 0 1 -.908 0 .613.613 0 0 1 0-.837.844.844 0 0 1 .908-.001m-.627.034a.882.882 0 0 0 -.065.386.869.869 0 0 0 .065.384.183.183 0 0 0 .347.001 1.211 1.211 0 0 0 0-.771.182.182 0 0 0 -.347 0"/><path d="m21.721 14.389a.392.392 0 0 1 .205-.054.277.277 0 0 1 .129.027.183.183 0 0 1 .076.069.17.17 0 0 1 .025.09.154.154 0 0 1 -.054.122.21.21 0 0 1 -.143.048.239.239 0 0 1 -.137-.035.112.112 0 0 1 -.05-.095.181.181 0 0 1 .111-.158.172.172 0 0 0 -.031-.003.208.208 0 0 0 -.039.005.243.243 0 0 0 -.117.049.3.3 0 0 0 -.084.098.244.244 0 0 0 -.03.112v.536a.141.141 0 0 0 .057.13.349.349 0 0 0 .181.036v.043c-.21-.006-.345-.008-.402-.008-.054 0-.174.002-.362.008v-.043a.277.277 0 0 0 .096-.013.084.084 0 0 0 .05-.044.192.192 0 0 0 .016-.088v-.638a.209.209 0 0 0 -.036-.136.159.159 0 0 0 -.126-.042v-.042c.054.004.106.006.157.006a2.109 2.109 0 0 0 .334-.022.03.03 0 0 1 .035.03v.06a.03.03 0 0 0 .052.021.427.427 0 0 1 .087-.069"/><path d="m7.619 4.322a.931.931 0 0 0 -.993.993.904.904 0 0 0 .914.914c.579 0 .624-.4.624-.522a.446.446 0 0 0 -.143-.339.856.856 0 0 0 -.563-.148c-.134 0-.13.271.027.271a.698.698 0 0 1 .354.079.172.172 0 0 1 .052.137c0 .062 0 .25-.351.25a.628.628 0 0 1 -.642-.642.656.656 0 0 1 .721-.72 1.087 1.087 0 0 1 .948 1.163.879.879 0 0 1 -.948.948c-.766 0-1.467-1.041-1.467-1.041a2.189 2.189 0 0 1 -.299-1.31 2.033 2.033 0 0 0 -.252-1.193 1.132 1.132 0 0 0 -1.668-.441 1.36 1.36 0 0 0 -.627 1.777.931.931 0 0 0 1.358.359.905.905 0 0 0 .33-1.249c-.291-.501-.659-.339-.765-.278a.444.444 0 0 0 -.221.295.854.854 0 0 0 .155.561c.067.116.299-.024.22-.16a.69.69 0 0 1 -.109-.346.169.169 0 0 1 .092-.114c.053-.031.215-.126.392.179a.626.626 0 0 1 -.231.876.656.656 0 0 1 -.986-.26 1.087 1.087 0 0 1 .529-1.404.863.863 0 0 1 1.296.342 1.802 1.802 0 0 1 .141.31 1.777 1.777 0 0 1 -.287 1.473 2.187 2.187 0 0 1 -1.008.889 2.035 2.035 0 0 0 -.927.792 1.132 1.132 0 0 0 .411 1.676 1.36 1.36 0 0 0 1.86-.299.93.93 0 0 0 -.334-1.364.904.904 0 0 0 -1.255.307c-.3.495.018.741.123.805a.443.443 0 0 0 .364.053.86.86 0 0 0 .418-.404c.07-.115-.164-.252-.245-.118 0 0-.132.226-.252.261a.166.166 0 0 1 -.144-.025c-.053-.032-.214-.13-.031-.431a.627.627 0 0 1 .881-.215.655.655 0 0 1 .242.989 1.086 1.086 0 0 1 -1.486.208.863.863 0 0 1 -.319-1.302 2.425 2.425 0 0 1 1.661-.709 2.188 2.188 0 0 1 1.282.401 2.036 2.036 0 0 0 1.158.382 1.131 1.131 0 0 0 1.22-1.22 1.36 1.36 0 0 0 -1.22-1.436m-2.618 1.579a1.175 1.175 0 0 0 .587-.829 1.284 1.284 0 0 0 .438.926 1.384 1.384 0 0 0 -1.025-.097" fill-rule="evenodd"/><path d="m2.941 10.958v.334h-.521v.268h.488v.32h-.488v.312h.541v.334h-.949v-1.568z"/><path d="m3.711 10.958.263.966h.005v-.966h.382v1.568h-.448l-.272-.969h-.005v.969h-.382v-1.568z"/><path d="m5.91 10.957.382 1.568h-.435l-.041-.274h-.325l-.042.274h-.428l.375-1.568zm-.259.321-.112.665h.228l-.112-.665z"/><path d="m6.721 10.958.165 1.181h.004l.165-1.181h.435l-.339 1.568h-.527l-.331-1.568z"/><path d="m8.39 10.957.382 1.568h-.435l-.041-.274h-.325l-.042.274h-.428l.375-1.568zm-.259.321-.112.665h.228l-.112-.665z"/><path d="m9.431 10.958.263.966h.005v-.966h.382v1.568h-.448l-.272-.969h-.005v.969h-.382v-1.568z"/><path d="m10.311 11.305v-.347h1.019v.347h-.308v1.221h-.408v-1.221z"/><path d="m12.664 10.958a.504.504 0 0 1 .277.064.404.404 0 0 1 .148.174.754.754 0 0 1 .061.25c.007.094.01.193.01.295 0 .103-.003.201-.01.296a.761.761 0 0 1 -.061.25.401.401 0 0 1 -.148.173.495.495 0 0 1 -.277.065h-.593v-1.567zm-.103 1.273a.205.205 0 0 0 .094-.017.107.107 0 0 0 .054-.069.521.521 0 0 0 .024-.149q.006-.096.006-.255c0-.105-.002-.19-.006-.254a.529.529 0 0 0 -.024-.15.109.109 0 0 0 -.054-.069.221.221 0 0 0 -.094-.016h-.081v.979z"/><path d="m14.401 10.958v.334h-.52v.268h.487v.32h-.487v.312h.54v.334h-.949v-1.568z"/><path d="m17.021 12.089a.25.25 0 0 0 .033.153.126.126 0 0 0 .18 0 .249.249 0 0 0 .033-.153v-1.131h.408v1.028a.889.889 0 0 1 -.035.274.416.416 0 0 1 -.102.176.35.35 0 0 1 -.166.09 1.09 1.09 0 0 1 -.455 0 .349.349 0 0 1 -.167-.09.416.416 0 0 1 -.102-.176.889.889 0 0 1 -.035-.274v-1.028h.408z"/><path d="m17.973 10.958h.408v1.568h-.408z"/><path d="m19.161 10.958.264.966h.004v-.966h.382v1.568h-.448l-.272-.969h-.005v.969h-.382v-1.568z"/><path d="m22.13 10.957.382 1.568h-.435l-.041-.274h-.325l-.042.274h-.428l.375-1.568zm-.259.321-.112.665h.228l-.112-.665z"/><path d="m23.251 10.958.165.929h.004l.165-.929h.584v1.568h-.382v-1.168h-.005l-.217 1.168h-.294l-.218-1.168h-.004v1.168h-.382v-1.568z"/><path d="m25.078 10.958a.499.499 0 0 1 .202.037.392.392 0 0 1 .142.102.405.405 0 0 1 .082.153.645.645 0 0 1 .027.191.476.476 0 0 1 -.131.365.539.539 0 0 1 -.383.122h-.143v.597h-.408v-1.567zm-.127.676a.147.147 0 0 0 .117-.046.217.217 0 0 0 .041-.145c0-.127-.053-.191-.158-.191h-.077v.382z"/><path d="m15.621 12.526a.308.308 0 0 1 -.307-.307v-.954a.308.308 0 0 1 .307-.307h.444c.169 0 .307.234.307.403v.098h-.397v-.143h-.264v.849h.264v-.221h-.13v-.279h.527v.554a.308.308 0 0 1 -.307.307z"/><path d="m20.361 12.526a.308.308 0 0 1 -.307-.307v-.954a.308.308 0 0 1 .307-.307h.444c.169 0 .307.234.307.403v.098h-.397v-.143h-.264v.849h.264v-.221h-.13v-.279h.527v.554a.308.308 0 0 1 -.307.307z"/></g></svg>