<svg height="344.911" viewBox="0 0 711.319 846.213" width="289.93" xmlns="http://www.w3.org/2000/svg" xmlns:xlink="http://www.w3.org/1999/xlink"><clipPath id="a"><path d="m149.952 574.913h62.646v-70h-62.646z"/></clipPath><clipPath id="b"><path d="m0 841h595v-841h-595z"/></clipPath><clipPath id="c"><path d="m.36 841.68h595.44v-841.68h-595.44z"/></clipPath><g clip-path="url(#a)" transform="matrix(12.10875 0 0 -12.12625 -1812.52775 6977.7395)"><g clip-path="url(#b)"><g clip-path="url(#c)"><path d="m206.224 568.503.496-30.507s1.183-23.589-27.291-31.453c0 0-25.635 4.967-27.788 31.453l.568 30.384s26.369 12.208 54.015.123z" fill="#001b50" stroke="#fff" stroke-width=".146"/><g fill="#fff"><path d="m176.578 533.696c0-.18.107-.262.274-.262.078 0 .123-.012.123-.062 0-.049-.024-.069-.102-.069-.197 0-.397.017-.594.017-.213 0-.421-.017-.634-.017-.041 0-.086.02-.086.069 0 .05.045.062.123.062.208 0 .307.045.307.192v1.752c0 .102-.021.131-.086.131-.115 0-.23-.114-.303-.114-.037 0-.054.016-.054.065 0 .04.05.078.45.266.43.2.459.221.517.221.04 0 .065-.017.065-.054z"/><path d="m178.568 534.833c.348-.151.651-.368.651-.785 0-.516-.491-.795-.958-.795-.413 0-.917.222-.917.709 0 .377.275.458.545.589-.246.147-.45.36-.45.675 0 .488.438.721.875.721.475 0 .778-.25.778-.59 0-.298-.282-.437-.524-.524zm-.561-.356c-.114-.163-.139-.294-.139-.495 0-.409.172-.597.426-.597s.401.16.401.384c0 .389-.392.561-.688.708zm.447.43c.139.123.204.23.204.442 0 .205-.081.467-.393.467-.216 0-.303-.152-.303-.311 0-.328.267-.467.492-.598"/><path d="m180.779 534.833c.348-.151.651-.368.651-.785 0-.516-.491-.795-.957-.795-.414 0-.917.222-.917.709 0 .377.274.458.544.589-.245.147-.45.36-.45.675 0 .488.438.721.876.721.475 0 .777-.25.777-.59 0-.298-.282-.437-.524-.524zm-.56-.356c-.115-.163-.139-.294-.139-.495 0-.409.172-.597.425-.597.254 0 .401.16.401.384 0 .389-.393.561-.687.708zm.446.43c.139.123.205.23.205.442 0 .205-.082.467-.393.467-.217 0-.303-.152-.303-.311 0-.328.266-.467.491-.598"/><path d="m182.884 533.696c0-.18.107-.262.275-.262.077 0 .122-.012.122-.062 0-.049-.024-.069-.102-.069-.197 0-.397.017-.594.017-.212 0-.421-.017-.634-.017-.041 0-.086.02-.086.069 0 .05.045.062.123.062.209 0 .307.045.307.192v1.752c0 .102-.02.131-.086.131-.114 0-.229-.114-.303-.114-.037 0-.053.016-.053.065 0 .04.049.078.45.266.43.2.458.221.516.221.041 0 .065-.017.065-.054z"/><path d="m171.954 543.094c0-.123-.009-.193.135-.193.086 0 .266 0 .343.017.115.02.164.11.197.217.016.053.045.134.119.134.065 0 .082-.048.082-.106-.009-.114-.009-.238-.017-.352 0-.114.008-.237.017-.352 0-.053-.017-.114-.087-.114-.196 0-.053.392-.487.392l-.175-.008c-.136-.008-.127-.065-.127-.176v-.523c0-.242-.017-.34.241-.381.053-.008.131-.021.131-.095 0-.061-.045-.077-.098-.077-.213 0-.418.016-.63.016-.197 0-.393-.016-.59-.016-.057 0-.098.016-.098.077 0 .066.061.087.111.095.269.045.257.115.257.381v1.457c0 .245.017.356-.245.397-.053.007-.131.007-.131.077 0 .066.041.082.098.082.377 0 .761-.016 1.138-.016.262 0 .532.016.794.016.106 0 .135-.004.135-.119v-.392c0-.054-.02-.111-.082-.111-.078 0-.123.098-.16.156-.061.102-.094.163-.204.216-.119.058-.266.053-.397.053-.049 0-.18.009-.23-.024-.04-.029-.04-.098-.04-.143z"/><path d="m188.302 541.849c-.008-.135-.004-.188-.131-.262-.23-.139-.52-.188-.786-.188-.36 0-.782.082-1.077.303-.311.233-.52.622-.52 1.015 0 .405.205.774.528 1.015.32.233.758.344 1.151.344.192 0 .425-.033.613-.086.111-.033.111-.049.132-.164l.033-.209c.008-.041.016-.077.016-.118 0-.045-.033-.07-.078-.07-.188 0-.201.487-.753.487-.271 0-.52-.151-.676-.368-.159-.225-.225-.524-.225-.794 0-.266.062-.561.205-.786.156-.242.401-.409.696-.409.16 0 .307.057.43.155.122.103.196.238.27.377.02.045.049.086.102.086.09 0 .086-.094.082-.156z"/><path d="m166.811 559.667c0-.255.136-.299.273-.324.136-.025.281-.051.281-.204 0-.094-.085-.119-.23-.119-.179 0-.443.034-.979.034-.537 0-.8-.034-.979-.034-.145 0-.23.025-.23.119 0 .153.145.179.315.204.187.025.238.154.238.545v3.814c0 .195 0 .323-.153.408-.145.069-.349.069-.349.179 0 .119.102.128.256.128.102 0 .365-.034.902-.034.536 0 .8.034.979.034.145 0 .23-.034.23-.119 0-.102-.196-.154-.332-.204-.187-.077-.222-.188-.222-.426z"/><path d="m175.189 558.917c-1.515 0-2.375 1.516-2.375 2.801 0 1.456.826 2.801 2.375 2.801 1.515 0 2.375-1.515 2.375-2.801 0-1.455-.826-2.801-2.375-2.801zm-.094 5.33c-.561 0-.851-1.065-.851-1.95 0-1.643.392-3.107 1.09-3.107.51 0 .8.834.8 2.119 0 1.363-.358 2.938-1.039 2.938"/><path d="m181.589 563.446c0 .341-.05.648-.314.682-.136.016-.315.059-.315.17 0 .076.051.119.144.119.162 0 .298-.034.605-.034.187 0 .391.034.604.034.102 0 .162-.043.162-.128 0-.102-.145-.136-.281-.161-.204-.043-.281-.162-.281-.452v-4.648c0-.085-.068-.111-.247-.111-.102 0-.17.026-.238.128l-2.673 4.231h-.026v-3.32c0-.536.162-.621.332-.647.171-.026.341-.009.341-.162 0-.067-.069-.127-.17-.127-.239 0-.418.034-.613.034-.205 0-.426-.034-.571-.034-.128 0-.187.025-.187.127 0 .298.545 0 .545.537v4.069c0 .579-.528.272-.528.511 0 .094.085.153.23.153.195 0 .4-.034.604-.034s.409.034.613.034c.17 0 .273-.026.349-.144l1.898-3.074h.017z"/><path d="m183.49 563.659c0 .494-.578.128-.578.383 0 .187.57.477 2 .477 1.796 0 2.835-.97 2.835-2.758 0-1.686-.953-2.741-2.367-2.741-.596 0-.987.034-1.345.034-.434 0-.698-.034-.876-.034-.145 0-.23.025-.23.119 0 .153.144.179.28.204.137.025.281.069.281.324zm1.311-3.865c0-.238.205-.451.443-.451.579 0 1.072.511 1.072 2.452 0 1.617-.425 2.401-1.132 2.401-.255 0-.383-.128-.383-.384z"/><path d="m190.087 559.667c0-.255.136-.299.272-.324s.281-.051.281-.204c0-.094-.085-.119-.23-.119-.179 0-.442.034-.979.034-.536 0-.8-.034-.979-.034-.144 0-.229.025-.229.119 0 .153.144.179.315.204.187.025.238.154.238.545v3.814c0 .195 0 .323-.153.408-.145.069-.35.069-.35.179 0 .119.103.128.256.128.102 0 .366-.034.902-.034.537 0 .8.034.979.034.145 0 .23-.034.23-.119 0-.102-.196-.154-.331-.204-.188-.077-.222-.188-.222-.426z"/><path d="m194.64 563.446c0 .341-.052.648-.315.682-.137.016-.316.059-.316.17 0 .076.052.119.146.119.161 0 .297-.034.604-.034.187 0 .391.034.604.034.102 0 .162-.043.162-.128 0-.102-.145-.136-.281-.161-.204-.043-.281-.162-.281-.452v-4.648c0-.085-.068-.111-.247-.111-.102 0-.17.026-.238.128l-2.673 4.231h-.026v-3.32c0-.536.162-.621.332-.647s.341-.009.341-.162c0-.067-.068-.127-.171-.127-.238 0-.417.034-.612.034-.205 0-.426-.034-.571-.034-.127 0-.187.025-.187.127 0 .298.545 0 .545.537v4.069c0 .579-.528.272-.528.511 0 .094.085.153.23.153.195 0 .4-.034.604-.034.205 0 .409.034.613.034.17 0 .273-.026.349-.144l1.898-3.074h.018z"/><path d="m197.67 564.519c.332 0 .791-.085 1.056-.196.119-.05.212-.076.212-.229 0-.282 0-.563-.008-.843 0-.264-.009-.375-.204-.375-.358 0-.401 1.371-1.175 1.371-.401 0-.596-.273-.596-.63 0-1.141 2.205-1.311 2.205-2.929 0-1.064-.92-1.771-1.976-1.771-.238 0-1.413.009-1.413.46 0 .486.017.724.026.903.025.442.068.587.281.587.434 0 .213-1.677 1.166-1.677.519 0 .826.374.826.834 0 1.192-2.205 1.524-2.205 2.963 0 .996.962 1.532 1.805 1.532"/><path d="m160.351 555.731c0 .199-.051.244-.236.244-.088 0-.169-.015-.228-.015-.096 0-.111.023-.111.096 0 .155 1.077.303 1.668.303 1.372 0 2.228-.915 2.228-2.398 0-1.041-.576-2.369-1.977-2.369-.318 0-.605.03-.886.03-.598 0-.805-.03-.959-.03-.045 0-.074.044-.074.096 0 .081.037.096.258.111.236.007.317.133.317.531zm.723-3.342c0-.421.2-.59.584-.59.76 0 1.217.915 1.217 2.066 0 1.357-.531 2.287-1.343 2.287-.281 0-.458-.103-.458-.442z"/><path d="m164.453 555.791c0 .184-.051.235-.273.273-.14.021-.207.014-.207.11 0 .081.06.096.215.096.066 0 .236-.029 1.173-.029.775 0 1.122.029 1.336.029.132 0 .169-.029.169-.14v-.937c0-.096-.029-.133-.081-.133-.118 0-.074.037-.244.413-.199.443-.405.591-.974.591-.354 0-.391-.03-.391-.2v-1.498c0-.103.015-.132.2-.132.612 0 .641.007.775.28.117.243.11.339.206.339.066 0 .088-.037.088-.132 0-.155-.029-.406-.029-.635 0-.28.029-.472.029-.62 0-.133-.014-.206-.103-.206-.11 0-.11.147-.191.405-.104.34-.134.362-.65.362-.295 0-.325-.007-.325-.133v-1.409c0-.531.089-.686.591-.686.486 0 .723.206.914.723.148.391.141.42.215.42.066 0 .08-.022.08-.169v-1.049c0-.102-.029-.132-.177-.132-.199 0-.553.03-1.305.03-.834 0-1.048-.03-1.403-.03-.132 0-.154.037-.154.089 0 .081.022.103.125.118.318.051.391.118.391.339z"/><path d="m169.933 555.908c0 .096-.044.156-.17.156h-.228c-.052 0-.089.021-.089.081 0 .073.074.11.177.125.605.074.989.089 1.446.089.989 0 1.55-.34 1.55-1.07 0-.598-.369-.871-.922-1.055v-.015c.686-.081 1.202-.561 1.202-1.255 0-.693-.524-1.372-1.284-1.372-.324 0-.605.03-1.099.03-.436 0-.723-.03-.908-.03-.125 0-.162.03-.162.081 0 .066.037.066.192.118.244.081.295.104.295.303zm.723-1.32c0-.251.074-.281.288-.281.509 0 .937.251.937.989 0 .539-.31.856-.826.856-.34 0-.399-.111-.399-.303zm0-2.243c0-.355.163-.546.591-.546.391 0 .855.295.855 1.195 0 .613-.317 1.106-1.047 1.106-.34 0-.399-.043-.399-.206z"/><path d="m175.098 551.504c-1.136 0-1.845 1.254-1.845 2.427s.709 2.428 1.845 2.428 1.845-1.255 1.845-2.428-.709-2.427-1.845-2.427zm0 4.648c-.731 0-1.048-1.313-1.048-2.221s.317-2.221 1.048-2.221 1.048 1.313 1.048 2.221-.317 2.221-1.048 2.221"/><path d="m178.521 552.219c0-.214.059-.361.287-.406.281-.051.311-.089.311-.14s-.022-.081-.096-.081c-.163 0-.435.03-.79.03-.413 0-.612-.03-.797-.03-.074 0-.11.03-.11.096 0 .051.029.096.154.111.237.021.318.162.318.31v3.615c0 .244-.052.325-.266.34-.17.014-.206.044-.206.096 0 .073.051.11.132.11.207 0 .421-.029.738-.029.392 0 .657.029 1.085.029.804 0 1.291-.517 1.291-1.21 0-.657-.538-1.018-1.136-1.099v-.015c.221-.037.31-.14.42-.362.605-1.217.679-1.645.893-1.785.148-.096.266-.03.266-.14 0-.037-.022-.067-.089-.067-.169 0-.339.03-.509.03-.184 0-.243-.03-.391-.03-.051 0-.089.037-.133.14l-.907 1.978c-.044.096-.096.155-.236.155-.162 0-.229-.038-.229-.177zm0 2.029c0-.148.022-.177.236-.177.664 0 1.018.273 1.018 1.004 0 .531-.354.989-.797.989-.369 0-.465-.096-.457-.392z"/><path d="m181.697 555.731c0 .199-.052.244-.236.244-.089 0-.17-.015-.229-.015-.096 0-.11.023-.11.096 0 .155 1.077.303 1.667.303 1.372 0 2.228-.915 2.228-2.398 0-1.041-.575-2.369-1.977-2.369-.318 0-.605.03-.885.03-.598 0-.805-.03-.96-.03-.044 0-.073.044-.073.096 0 .081.036.096.258.111.236.007.317.133.317.531zm.723-3.342c0-.421.199-.59.583-.59.76 0 1.218.915 1.218 2.066 0 1.357-.532 2.287-1.344 2.287-.28 0-.457-.103-.457-.442z"/><path d="m185.799 555.791c0 .184-.052.235-.273.273-.141.021-.207.014-.207.11 0 .081.059.096.214.096.067 0 .236-.029 1.173-.029.775 0 1.122.029 1.336.029.132 0 .169-.029.169-.14v-.937c0-.096-.029-.133-.081-.133-.118 0-.074.037-.243.413-.199.443-.406.591-.974.591-.354 0-.391-.03-.391-.2v-1.498c0-.103.014-.132.199-.132.612 0 .642.007.775.28.118.243.11.339.206.339.067 0 .089-.037.089-.132 0-.155-.03-.406-.03-.635 0-.28.03-.472.03-.62 0-.133-.015-.206-.103-.206-.111 0-.111.147-.192.405-.104.34-.133.362-.649.362-.296 0-.325-.007-.325-.133v-1.409c0-.531.088-.686.59-.686.487 0 .723.206.915.723.147.391.14.42.214.42.066 0 .081-.022.081-.169v-1.049c0-.102-.03-.132-.177-.132-.199 0-.553.03-1.306.03-.834 0-1.047-.03-1.402-.03-.133 0-.155.037-.155.089 0 .081.022.103.125.118.318.051.392.118.392.339z"/><path d="m189.719 553.26c-.111 0-.111-.045-.214-.473-.148-.619-.185-.715-.185-.767 0-.096.059-.17.222-.221.14-.045.347-.015.347-.111 0-.045-.023-.096-.133-.096-.067 0-.355.03-.532.03-.354 0-.479-.03-.553-.03-.052 0-.074.022-.074.074 0 .111.096.066.252.133.169.073.243.42.84 2.39.65 2.14.598 2.17.731 2.17.155 0 .095-.089 1.003-3.041.369-1.195.413-1.468.561-1.519.17-.06.258-.037.258-.126 0-.051-.022-.081-.154-.081-.119 0-.354.03-.628.03-.398 0-.664-.03-.745-.03s-.096.037-.096.089c0 .066.074.058.325.118.096.021.125.11.125.169 0 .067-.036.163-.184.694-.148.538-.148.598-.244.598zm.863.206c.052 0 .066 0 .066.022 0 .052-.044.185-.324 1.159-.111.383-.111.413-.14.413-.037 0-.037-.044-.28-.915-.155-.576-.185-.635-.185-.657 0-.015.014-.022.081-.022z"/><path d="m195.067 552.876v2.612c0 .495-.103.553-.295.576-.207.021-.229.044-.229.11 0 .052.03.096.156.096.08 0 .198-.029.464-.029.303 0 .376.029.487.029.074 0 .147-.037.147-.096 0-.073-.043-.096-.235-.11-.17-.015-.288-.119-.288-.37v-2.737c0-1.018-.495-1.453-1.284-1.453-.768 0-1.461.199-1.461 1.084v3.18c0 .185-.03.281-.133.296-.258.037-.28.066-.28.125 0 .044.037.081.103.081.14 0 .288-.029.686-.029.465 0 .716.029.768.029.088 0 .125-.037.125-.081 0-.074-.044-.081-.273-.125-.185-.03-.273-.104-.273-.34v-2.966c0-.664.332-1.004.923-1.004.486 0 .892.355.892 1.122"/><path d="m196.181 555.724c-.125.236-.14.31-.287.34-.133.029-.2.029-.2.11 0 .059.037.096.111.096.133 0 .31-.029.642-.029.494 0 .641.029.753.029.058 0 .103-.029.103-.074 0-.074-.03-.111-.258-.132-.082-.008-.155-.052-.155-.134 0-.103.059-.199.634-1.35.517 1.048.627 1.181.627 1.307 0 .117-.11.177-.31.177-.066 0-.147.021-.147.096 0 .095.081.11.155.11s.243-.029.59-.029c.236 0 .362.029.472.029.111 0 .148-.029.148-.096 0-.059-.015-.103-.111-.11-.317-.023-.457-.148-.582-.392l-.716-1.365.597-1.217c.568-1.158.59-1.21.76-1.291.104-.052.163-.067.163-.118 0-.052-.015-.089-.118-.089-.134 0-.377.03-.561.03-.561 0-.687-.03-.753-.03-.088 0-.118.03-.118.081 0 .089.111.089.221.126.118.037.192.088.192.169 0 .074-.096.244-.538 1.181-.17.369-.207.42-.222.42-.037 0-.066-.096-.362-.642-.302-.56-.368-.745-.368-.863 0-.132.081-.221.295-.265.14-.03.199-.045.199-.111 0-.074-.044-.096-.096-.096-.111 0-.236.03-.597.03-.384 0-.517-.03-.598-.03-.126 0-.148.022-.148.096 0 .096.052.096.192.125.243.059.258.082.509.524l.849 1.498z"/></g><path d="m203.506 566.221.225-27.929s1.501-21.396-24.324-28.529c0 0-22.823 4.505-24.775 28.529l.289 27.817s23.51 11.072 48.585.112z" fill="none" stroke="#fff" stroke-width="2.633"/><path d="m158.256 534.708h13.003l8.138-8.837 8.115 8.837h13.003l-21.118-20.1z" fill="#fff"/><path d="m179.63 549.18s2.107-3.064.713-5.618c-1.393-2.553-5.109-2.439-5.109-2.439s4.494-1.512 6.284 1.788c1.687 3.108-1.888 6.269-1.888 6.269" fill="#fff"/><path d="m179.431 549.098s-2.107-3.064-.713-5.617c1.393-2.554 5.109-2.44 5.109-2.44s-4.494-1.511-6.284 1.788c-1.687 3.108 1.888 6.269 1.888 6.269" fill="#fff"/><path d="m184.096 541.465s-1.662 3.326-4.571 3.342-4.608-3.291-4.608-3.291.852 4.664 4.606 4.635c3.536-.027 4.573-4.686 4.573-4.686" fill="#fff"/><path d="m168.644 563.758c0 .257-.137.351-.275.377-.128.026-.274.051-.274.154 0 .095.077.12.223.12.18 0 .446-.034.986-.034.351 0 .865.034 1.413.034.926 0 1.611-.446 1.611-1.345 0-1.346-1.525-1.226-1.525-1.32 0-.043.069-.051.163-.051.437 0 .651-.078.814-.489l.6-1.508c.248-.617.565-.343.565-.591 0-.095-.077-.129-.154-.129h-1.157c-.368 0-.394.034-.531.403l-.608 1.654c-.112.308-.206.497-.455.497-.06 0-.077-.035-.077-.069v-1.602c0-.266.009-.472.215-.557.162-.069.308-.043.308-.206 0-.094-.086-.12-.231-.12-.146 0-.412.034-.951.034-.54 0-.806-.034-.986-.034-.111 0-.189.026-.189.12 0 .154.103.18.24.206.138.026.275.068.275.325zm1.319-1.86c0-.025.043-.043.077-.043.6 0 .969.48.969 1.158 0 .599-.317 1.122-.78 1.122-.171 0-.266-.069-.266-.394z" fill="#fff"/><path d="m164.07 559.631c0-.296-.912-.696-1.694-.696-1.425 0-2.415 1.286-2.415 2.711 0 1.824 1.112 3.005 2.58 3.005.356 0 .713-.069 1.008-.156.174-.061.304-.113.321-.304.018-.26.026-.599.026-1.051 0-.174-.078-.243-.173-.243-.504 0-.409 1.477-1.269 1.477-.46 0-1.034-.695-1.034-2.52 0-1.685.426-2.64 1.052-2.64.199 0 .312.225.312.599v1.26c0 .469-.53.208-.53.434 0 .121.07.156.226.156.296 0 .678-.035.991-.035.26 0 .616.035.851.035.156 0 .191-.043.191-.13 0-.208-.443-.026-.443-.53z" fill="#fff"/></g></g></g></svg>