<svg height="28.642" viewBox="0 0 21.486 28.642" width="21.486" xmlns="http://www.w3.org/2000/svg"><path d="m10.732 28.435a23.252 23.252 0 0 1 -8.739-1.692l-.192-.077.286-.708c-.49-.197-.966-.405-1.415-.621l-.294-.141 1.885-1.527v-2.404l.296.142a18.643 18.643 0 0 0 1.836.764l.207.073-.273.64a18.96 18.96 0 0 0 12.801.002l-.273-.64.207-.074a18.612 18.612 0 0 0 1.835-.762l.296-.142v2.401l1.904 1.556-.293.141c-.45.216-.926.424-1.418.62l.275.68-.191.077a23.258 23.258 0 0 1 -8.74 1.692" fill="#3b4560"/><path d="m2.475 21.594a18.942 18.942 0 0 0 1.857.772l-.273.638a19.171 19.171 0 0 0 13.352.002l-.272-.638a18.989 18.989 0 0 0 1.855-.771v2.171l1.729 1.413c-.526.252-1.06.481-1.598.69l.275.681a23.199 23.199 0 0 1 -17.325 0l.287-.709c-.538-.21-1.071-.439-1.596-.691l1.709-1.384v-2.174m-.413-.656v2.633l-1.555 1.26-.507.411.588.282c.395.19.809.373 1.236.548l-.131.326-.155.383.383.154a23.542 23.542 0 0 0 4.343 1.281 23.706 23.706 0 0 0 8.948 0 23.554 23.554 0 0 0 4.342-1.281l.383-.154-.155-.383-.119-.297c.427-.175.842-.358 1.238-.548l.585-.281-.502-.411-1.578-1.289v-2.63l-.591.283a18.783 18.783 0 0 1 -1.814.754l-.414.147.172.404.101.235a18.767 18.767 0 0 1 -12.249-.001l.1-.236.173-.404-.414-.147a18.946 18.946 0 0 1 -1.817-.755z" fill="#bea376"/><path d="m6.752 21.435-.14-.113c-.391-.313-.761-.609-1.107-.913a12.172 12.172 0 0 1 -2.799-2.942l-.016-.026-.001-.001a3.582 3.582 0 0 1 -.495-1.703c-.01-.148-.016-.283-.019-.414v-9.219l-.641-1.481.294-.119a23.532 23.532 0 0 1 4.7-1.348 24.212 24.212 0 0 1 4.212-.369h.31v.002a24.242 24.242 0 0 1 3.904.37 23.44 23.44 0 0 1 4.695 1.349l.292.118-.628 1.478v9.219a4.068 4.068 0 0 1 -.521 2.117v.001l-.016.026a11.963 11.963 0 0 1 -2.666 2.832c-.382.343-.795.674-1.232 1.024l-.139.112-3.999 2.86z" fill="#fff"/><path d="m10.742 3.097a23.911 23.911 0 0 1 4.16.367 23.194 23.194 0 0 1 4.633 1.331l-.529 1.246v9.276a3.709 3.709 0 0 1 -.478 1.965l-.006.01-.005.009a11.562 11.562 0 0 1 -2.607 2.764c-.414.372-.862.728-1.356 1.124l-3.812 2.726-3.801-2.726c-.444-.357-.853-.681-1.234-1.015a11.936 11.936 0 0 1 -2.738-2.873l-.005-.009-.007-.01a3.294 3.294 0 0 1 -.452-1.567c-.009-.131-.016-.263-.018-.398v-9.276l-.309-.714-.232-.536a23.17 23.17 0 0 1 4.638-1.329 23.791 23.791 0 0 1 4.158-.365m0-.619a24.539 24.539 0 0 0 -4.266.374 23.864 23.864 0 0 0 -4.762 1.365l-.588.238.252.582.232.536.257.596v9.161c.003.136.01.276.021.429a3.878 3.878 0 0 0 .526 1.822l.001.003.032.05a12.412 12.412 0 0 0 2.859 3.011c.35.307.721.604 1.113.919l.135.108.013.01.013.01 3.801 2.726.361.258.36-.257 3.812-2.726.014-.01.013-.011.132-.106c.439-.352.854-.685 1.241-1.032a12.219 12.219 0 0 0 2.725-2.9l.032-.05.001-.003a4.388 4.388 0 0 0 .552-2.251l.001-.007v-9.156l.48-1.13.246-.579-.584-.237a23.839 23.839 0 0 0 -4.757-1.366 24.548 24.548 0 0 0 -3.649-.369v-.008z" fill="#bea376"/><path d="m19.002 6.041.529-1.246a23.195 23.195 0 0 0 -4.633-1.331v17.398l.353-.259a13.773 13.773 0 0 0 3.262-3.302l.005-.009.007-.01a3.71 3.71 0 0 0 .477-1.965" fill="#ce4b43"/><path d="m10.742 3.097v20.808l4.159-3.044v-17.397a23.908 23.908 0 0 0 -4.159-.367" fill="#3c4661"/><path d="m2.482 15.317a3.696 3.696 0 0 0 .471 1.965l.006.01.005.009a13.818 13.818 0 0 0 3.263 3.303l.352.258v-17.4a23.159 23.159 0 0 0 -4.637 1.329l.54 1.25z" fill="#3c4661"/><path d="m6.582 3.462v17.4l4.16 3.043v-20.808a23.902 23.902 0 0 0 -4.16.365" fill="#ce4b43"/><path d="m4.962 12.357c-.884 2.09-1.809 4.513-.778 6.105a11.544 11.544 0 0 0 2.757 2.727l3.802 2.726 3.81-2.726a11.501 11.501 0 0 0 2.751-2.719l.005-.007.005-.009c1.031-1.592.107-4.007-.777-6.097l-.769-2.277a2.575 2.575 0 0 0 .839-3.333 2.068 2.068 0 0 0 -.533-.643 1.903 1.903 0 0 0 -.231-.155c-.14-.079-.268-.144-.39-.2-.061-.028-.121-.053-.179-.076a3.404 3.404 0 0 0 -.344-.117c-.057-.017-.114-.032-.172-.046-.086-.022-.175-.041-.267-.06-.03-.006-.06-.013-.092-.019-.115-.023-.226-.05-.332-.081a1.994 1.994 0 0 1 -1.46-1.324 1.838 1.838 0 0 0 -.284.794 1.465 1.465 0 0 0 .582 1.151c.049.041.101.079.151.118.2.16.406.314.614.463.053.038.104.076.157.113a.999.999 0 0 1 .437.795.944.944 0 0 1 -.135.505 7.486 7.486 0 0 0 -.739-.424 10.528 10.528 0 0 0 -1.732-.67c-.314-.093-.58-.176-.915-.25-.335.074-.598.157-.912.25a10.504 10.504 0 0 0 -1.733.67 7.706 7.706 0 0 0 -.739.424.952.952 0 0 1 -.135-.505.997.997 0 0 1 .438-.795c.052-.037.104-.075.156-.113q.313-.224.614-.463c.05-.039.103-.077.151-.118a1.466 1.466 0 0 0 .582-1.151 1.823 1.823 0 0 0 -.283-.794 1.997 1.997 0 0 1 -1.461 1.324c-.105.031-.216.058-.332.081-.032.006-.061.013-.092.019-.091.019-.181.038-.267.06-.058.014-.115.029-.172.046a3.399 3.399 0 0 0 -.343.117c-.059.023-.119.048-.18.076-.122.056-.25.121-.39.2a1.812 1.812 0 0 0 -.23.155 2.073 2.073 0 0 0 -.534.643 2.575 2.575 0 0 0 .839 3.333z" fill="#3c4661"/><path d="m10.742 16.042c.975 0 1.766.536 1.766 1.197l-.609.904-.603-1.16v-.273h-1.107v.273l-.603 1.16-.61-.904c0-.661.791-1.197 1.766-1.197" fill="#fff"/><path d="m9.472 12.767-1.347.238-.729-.598z" fill="#fff"/><path d="m11.992 12.767 1.347.238.729-.598z" fill="#fff"/><path d="m16.892 8.158a2.557 2.557 0 0 0 -.287-1.411 2.071 2.071 0 0 0 -.534-.643 1.821 1.821 0 0 0 -.23-.155c-.14-.079-.268-.144-.39-.2-.061-.028-.121-.053-.18-.076-.117-.047-.23-.085-.343-.118-.057-.016-.114-.031-.172-.046-.086-.021-.176-.04-.267-.059-.031-.007-.06-.013-.092-.019-.116-.023-.227-.05-.332-.081a1.997 1.997 0 0 1 -1.461-1.324 1.824 1.824 0 0 0 -.283.793 1.468 1.468 0 0 0 .581 1.152c.049.041.102.078.152.118q.3.24.614.463c.052.038.104.076.156.113a.996.996 0 0 1 .438.795.954.954 0 0 1 -.135.505 7.602 7.602 0 0 0 -.739-.424 10.594 10.594 0 0 0 -1.733-.671c-.314-.092-.579-.175-.914-.249-.335.074-.599.157-.912.249a10.593 10.593 0 0 0 -1.733.671 7.459 7.459 0 0 0 -.739.424.943.943 0 0 1 -.135-.505.997.997 0 0 1 .437-.795c.053-.037.104-.075.157-.113.208-.149.414-.303.614-.463.05-.04.102-.077.151-.118a1.466 1.466 0 0 0 .582-1.152 1.84 1.84 0 0 0 -.284-.793 1.994 1.994 0 0 1 -1.46 1.324c-.106.031-.216.058-.332.081-.032.006-.061.012-.092.019-.092.019-.181.038-.267.059-.058.015-.115.03-.172.046-.113.033-.227.071-.344.118-.058.023-.118.048-.179.076-.122.056-.25.121-.39.2a1.898 1.898 0 0 0 -.231.155 2.068 2.068 0 0 0 -.533.643 2.574 2.574 0 0 0 .839 3.332l-.758 2.278 1.297-1.272 3.677 1.022.086 1.502-2.335.431-.035-.179-1.092-1.283-.37.723 1.989 2.741.017.087a3.495 3.495 0 0 1 2.025-1.052l-.147-.559h1.34l-.147.559a3.426 3.426 0 0 1 2.025.957l.017.103 1.989-2.836-.371-.723-1.091 1.283-.035.179-2.335-.431.085-1.502 3.678-1.022 1.308 1.272-.769-2.278a2.543 2.543 0 0 0 1.126-1.921" fill="#fff"/><path d="m13.868 9.937a.407.407 0 1 1 .406.386.397.397 0 0 1 -.406-.386m-3.528.889a.407.407 0 1 1 .406.386.397.397 0 0 1 -.406-.386m-3.528-.889a.407.407 0 1 1 .407.386.397.397 0 0 1 -.407-.386" fill="#3c4661"/><path d="m10.742 28.332a23.154 23.154 0 0 1 -8.701-1.685l-.096-.038 1.583-3.919.096.038a18.928 18.928 0 0 0 7.117 1.378h.001a18.93 18.93 0 0 0 7.118-1.378l.096-.038 1.583 3.919-.096.038a23.153 23.153 0 0 1 -8.701 1.685" fill="#3b4560"/><g fill="#bea376"><path d="m17.898 22.825 1.505 3.727a23.209 23.209 0 0 1 -17.324 0l1.505-3.727a19.185 19.185 0 0 0 14.314 0m.114-.269-.191.077a18.964 18.964 0 0 1 -14.159 0l-.192-.077-.077.191-1.505 3.728-.078.192.192.077a23.273 23.273 0 0 0 4.304 1.269 23.461 23.461 0 0 0 8.87 0 23.309 23.309 0 0 0 4.305-1.269l.191-.077-.077-.192-1.506-3.728z"/><path d="m.622 3.36a.158.158 0 0 1 .074-.224.156.156 0 0 1 .209.071.189.189 0 0 1 .016.091.422.422 0 0 0 .243-.034c.15-.065.217-.173.167-.292-.049-.112-.187-.117-.345-.107-.294.018-.509.013-.618-.241a.445.445 0 0 1 .288-.586c.257-.11.511-.063.582.102a.151.151 0 0 1 -.074.214.155.155 0 0 1 -.21-.075.139.139 0 0 1 -.013-.071.37.37 0 0 0 -.199.036c-.136.058-.186.161-.143.261.048.113.185.114.344.105.284-.018.506-.012.615.243a.459.459 0 0 1 -.309.616c-.271.117-.556.058-.627-.109"/><path d="m2.162 2.823.175-.063-.354-.98-.261.094.081.222-.229.083-.156-.432 1.219-.441.156.432-.228.083-.081-.222-.26.093.354.981.175-.064.078.216-.591.214z"/><path d="m3.136 2.469.124-.036.064-1.1-.157.046-.064-.218.81-.238.065.218-.158.046.65.89.124-.036.065.22-.551.162-.064-.218.166-.049-.15-.211-.536.157-.011.259.174-.051.064.217-.551.162zm.796-.709-.366-.505-.034.623z"/><path d="m4.801 1.99.166-.036-.221-1.011-.166.036-.049-.223.551-.122c.527-.115.9.091.997.532.098.445-.132.807-.704.933l-.524.115zm.561-.123a.509.509 0 0 0 .458-.642c-.069-.319-.334-.445-.697-.365l-.127.028.222 1.011z"/><path d="m6.482 1.636.168-.026-.155-1.024-.169.025-.034-.226 1.103-.168.064.422-.243.037-.03-.198-.438.067.06.395.447-.067.033.215-.447.068.063.418.441-.067-.03-.198.242-.037.064.422-1.104.169z"/><path d="m8.482 1.359.177-.01-.009-1.036-.186.011-.013-.229.408-.023.504.805.412-.855.405-.022.013.228-.186.011.105 1.031.176-.01.013.229-.612.034-.013-.229.18-.01-.072-.767-.385.771-.034.002-.467-.724.012.77.179-.01.013.229-.607.033z"/><path d="m10.478 1.263.129.003.394-1.031-.164-.003.004-.227.845.017-.004.227-.164-.003.352 1.045.129.003-.005.229-.574-.012.005-.227.172.004-.079-.247-.559-.011-.088.243.181.004-.004.227-.575-.012zm.974-.437-.197-.592-.221.584z"/><path d="m12.212 1.312.169.014.086-1.031-.17-.014.019-.229.622.052-.019.228-.196-.016-.086 1.033.409.034.018-.21.246.021-.036.436-1.081-.089z"/><path d="m13.552 1.424.168.025.152-1.023-.169-.025.034-.227.606.09-.034.226-.184-.027-.057.391.682.101.058-.391-.184-.027.033-.227.606.09-.033.226-.169-.024-.151 1.023.168.025-.033.227-.606-.09.033-.227.184.028.061-.411-.682-.101-.061.41.184.028-.034.226-.605-.089z"/><path d="m15.342 1.705.167.036.218-1.011-.166-.036.049-.224 1.088.236-.09.417-.239-.052.042-.195-.433-.094-.084.39.441.096-.046.212-.441-.095-.09.413.435.094.042-.195.24.052-.091.416-1.09-.236z"/><path d="m16.727 2.012.163.047.281-.996-.163-.046.062-.221.557.157c.329.093.525.302.443.595a.434.434 0 0 1 -.381.314l.11.453.164.046-.062.221-.332-.094-.135-.627c-.031-.007-.06-.012-.088-.02-.046-.013-.088-.025-.118-.036l-.091.323.179.051-.062.22-.589-.166zm1.085-.528c.042-.151-.062-.258-.26-.314l-.134-.037-.13.46a1.427 1.427 0 0 0 .139.044c.185.053.342-.002.385-.153"/><path d="m18.178 2.432.16.056.342-.978-.161-.056.076-.217.564.197c.345.121.459.339.385.551a.342.342 0 0 1 -.351.231.351.351 0 0 1 .166.428c-.082.234-.326.329-.669.209l-.588-.205zm.59.21c.167.059.303.029.35-.106.046-.131-.032-.239-.214-.303l-.185-.065-.142.408zm.184-.609c.169.059.291.015.333-.107.042-.12-.033-.221-.205-.281l-.158-.055-.135.385z"/><path d="m19.552 2.92.157.066.399-.956-.157-.065.088-.211 1.028.429-.164.394-.226-.095.077-.184-.408-.171-.154.369.416.174-.084.201-.416-.174-.163.39.41.171.077-.184.226.094-.164.394-1.031-.43z"/><path d="m3.842 25.533.185.059.224-.692-.183-.014.008-.164.323.019.089.029-.283.879.182.059-.051.159-.545-.176z"/><path d="m4.784 25.688a.107.107 0 0 1 .081.135.176.176 0 0 1 -.014.034.28.28 0 0 0 .086.037.333.333 0 0 0 .375-.279.387.387 0 0 1 -.282.034.36.36 0 0 1 -.284-.434.379.379 0 0 1 .488-.24.407.407 0 0 1 .254.191.551.551 0 0 1 .018.428c-.101.367-.36.525-.612.456a.403.403 0 0 1 -.213-.129.166.166 0 0 1 -.036-.15.106.106 0 0 1 .139-.083m.578-.301a.186.186 0 0 0 -.028-.155.248.248 0 0 0 -.146-.103.204.204 0 0 0 -.257.131c-.03.11.039.206.171.243a.2.2 0 0 0 .26-.116"/></g><path d="m6.242 25.761a1.042 1.042 0 0 1 1.232-.861c.467.079.736.375.696.616a.229.229 0 0 1 -.262.21.215.215 0 0 1 -.195-.256.255.255 0 0 1 .039-.1.593.593 0 0 0 -.342-.151.693.693 0 0 0 -.811.599.702.702 0 0 0 .583.843.776.776 0 0 0 .621-.168l.189.277a1.098 1.098 0 0 1 -.865.211 1.016 1.016 0 0 1 -.885-1.22" fill="#fff"/><path d="m8.392 26.822.176.01.59-1.383-.223-.013.018-.309 1.15.067-.018.309-.223-.013.425 1.442.176.01-.018.313-.782-.046.018-.309.235.014-.095-.341-.761-.044-.133.327.247.015-.018.308-.782-.045zm1.35-.545-.238-.817-.331.784z" fill="#fff"/><path d="m10.852 26.934.232-.009-.057-1.411-.232.01-.013-.313 1.519-.061.024.582-.335.013-.01-.272-.604.024.022.545.616-.025.012.297-.616.024.024.575.606-.024-.011-.272.334-.013.023.581-1.522.061z" fill="#fff"/><path d="m13.282 25.678.157 1.081.252-.036.045.309-.818.12-.045-.31.229-.033-.203-1.397-.23.033-.045-.309.524-.077 1.177 1.121-.139-.956-.251.036-.046-.309.81-.118.044.31-.22.032.249 1.71-.186.033z" fill="#fff"/><path d="m15.832 26.025.212-.055-.205-.793-.182.097-.091-.161.318-.176.103-.027.26 1.007.209-.054.047.182-.624.162z" fill="#bea376"/><path d="m17.302 25.454a.173.173 0 0 0 -.171-.124.58.58 0 0 0 -.2.031l-.075.024-.056-.179.08-.025a.442.442 0 0 0 .176-.096.168.168 0 0 0 .048-.179c-.031-.097-.149-.109-.255-.076a.305.305 0 0 0 -.151.09.138.138 0 0 1 .045.062.129.129 0 0 1 -.085.159.139.139 0 0 1 -.171-.104.205.205 0 0 1 .007-.121.446.446 0 0 1 .309-.258c.232-.073.451.001.506.177a.286.286 0 0 1 -.063.276.318.318 0 0 1 -.09.073.537.537 0 0 1 .118.012.299.299 0 0 1 .239.206c.065.205-.101.393-.344.469a.515.515 0 0 1 -.438-.04.205.205 0 0 1 -.079-.104.135.135 0 0 1 .082-.177.125.125 0 0 1 .16.082.135.135 0 0 1 0 .08.395.395 0 0 0 .224-.012c.122-.038.218-.138.184-.246" fill="#bea376"/></svg>