<svg height="25.608" viewBox="0 0 19.415 25.608" width="19.415" xmlns="http://www.w3.org/2000/svg" xmlns:xlink="http://www.w3.org/1999/xlink"><clipPath id="a"><path d="m9.371 5.211a43.472 43.472 0 0 0 -5.272.307 14.468 14.468 0 0 0 -2.316 4.111 76.246 76.246 0 0 0 7.591 13.439l.006.012a88.394 88.394 0 0 0 7.832-13.451 14.468 14.468 0 0 0 -2.316-4.111 43.46 43.46 0 0 0 -5.272-.307z"/></clipPath><path d="m1.557 18.611a28.167 28.167 0 0 0 7.835 6.032 28.387 28.387 0 0 0 7.864-6.032 47.553 47.553 0 0 0 .511-11.21c-.164-2.647-.456-4.664-.555-5.299a25.715 25.715 0 0 0 -7.708-1.172l-.09.001h-.015l-.09-.001a25.715 25.715 0 0 0 -7.708 1.172c-.099.635-.391 2.652-.554 5.299a47.49 47.49 0 0 0 .51 11.21m7.939 6.804-.212-.002-.075-.037a27.545 27.545 0 0 1 -5.982-4.077 25.081 25.081 0 0 1 -2.296-2.281l-.063-.074-.018-.096a48.126 48.126 0 0 1 -.54-11.503c.201-3.241.592-5.554.596-5.577l.036-.209.198-.074a26.108 26.108 0 0 1 8.169-1.294l.098.001.097-.001a26.104 26.104 0 0 1 8.169 1.294l.198.074.036.209c.004.023.395 2.336.596 5.577a48.12 48.12 0 0 1 -.54 11.503l-.018.097-.064.074a25.097 25.097 0 0 1 -2.307 2.281 27.721 27.721 0 0 1 -6 4.077z" fill="#fff"/><path d="m9.399 1.123h.105a25.727 25.727 0 0 1 7.536 1.123c.104.692.379 2.656.535 5.167a47.523 47.523 0 0 1 -.498 11.111 28.02 28.02 0 0 1 -7.684 5.904 28.283 28.283 0 0 1 -7.656-5.904 47.414 47.414 0 0 1 -.498-11.111c.152-2.465.413-4.364.535-5.167a25.727 25.727 0 0 1 7.536-1.123zm.105-1.123h-.194a26.326 26.326 0 0 0 -8.238 1.305l-.198.075-.103.039-.018.109-.036.208c-.004.023-.396 2.331-.599 5.598a48.289 48.289 0 0 0 .544 11.551l.018.096.009.049.033.039.063.074a25.096 25.096 0 0 0 2.315 2.3 27.714 27.714 0 0 0 6.025 4.107l.074.036.04.019.043.001.212.002h.046l.04-.019.079-.039a27.97 27.97 0 0 0 6.043-4.105 25.237 25.237 0 0 0 2.326-2.301l.063-.074.033-.038.01-.051.018-.096a48.282 48.282 0 0 0 .543-11.551c-.203-3.279-.595-5.576-.599-5.598l-.035-.208-.019-.109-.103-.039-.198-.075a26.317 26.317 0 0 0 -8.237-1.305m-.105.931h-.089a25.686 25.686 0 0 0 -7.709 1.172c-.099.634-.391 2.652-.554 5.298a47.61 47.61 0 0 0 .51 11.211 28.183 28.183 0 0 0 7.836 6.031 28.41 28.41 0 0 0 7.864-6.031 47.606 47.606 0 0 0 .51-11.211c-.164-2.646-.456-4.664-.555-5.298a25.681 25.681 0 0 0 -7.708-1.172zm.105-.739a26.093 26.093 0 0 1 8.169 1.293l.198.075.036.209c.004.023.395 2.336.596 5.577a48.069 48.069 0 0 1 -.54 11.503l-.018.096-.063.075a25.365 25.365 0 0 1 -2.308 2.281 27.738 27.738 0 0 1 -5.999 4.076l-.079.039-.212-.003-.075-.036a27.581 27.581 0 0 1 -5.982-4.077 24.981 24.981 0 0 1 -2.295-2.281l-.063-.074-.019-.096a48.126 48.126 0 0 1 -.54-11.503c.201-3.241.593-5.554.597-5.577l.035-.209.198-.075a26.099 26.099 0 0 1 8.17-1.293h.194" fill="#fff"/><path d="m1.264 1.68a27.431 27.431 0 0 1 16.252.341s1.557 10.899-.146 17.079c0 0-5.352 5.158-8.418 5.888 0 0-6.034-3.795-7.785-6.228a72.855 72.855 0 0 1 .097-17.08" fill="#fff"/><path d="m1.571 18.611a28.166 28.166 0 0 0 7.835 6.032 28.388 28.388 0 0 0 7.864-6.032 47.658 47.658 0 0 0 .511-11.21c-.164-2.647-.456-4.664-.555-5.299a25.715 25.715 0 0 0 -7.708-1.172l-.09.001h-.015l-.09-.001a25.715 25.715 0 0 0 -7.708 1.172c-.099.635-.391 2.652-.554 5.299a47.601 47.601 0 0 0 .51 11.21m7.939 6.804-.212-.002-.075-.037a27.521 27.521 0 0 1 -5.982-4.077 25.084 25.084 0 0 1 -2.296-2.281l-.062-.074-.019-.096a48.126 48.126 0 0 1 -.54-11.503c.201-3.241.592-5.554.596-5.577l.036-.209.198-.074a26.108 26.108 0 0 1 8.169-1.294l.097.001h.001l.097-.001a26.108 26.108 0 0 1 8.169 1.294l.198.074.036.209c.003.023.395 2.336.596 5.577a48.12 48.12 0 0 1 -.54 11.503l-.018.097-.064.074a25.097 25.097 0 0 1 -2.307 2.281 27.721 27.721 0 0 1 -6 4.077z" fill="#201600"/><path d="m9.38 23.08a88.416 88.416 0 0 0 7.832-13.45 14.451 14.451 0 0 0 -2.317-4.111 43.453 43.453 0 0 0 -5.271-.308h-.254a43.453 43.453 0 0 0 -5.271.308 14.48 14.48 0 0 0 -2.317 4.111 76.333 76.333 0 0 0 7.591 13.438z" fill="#fff"/><g fill="#201600"><g clip-path="url(#a)"><path d="m5.353 5.041h3.039v18.411h-3.039z"/><path d="m10.537 5.041h3.039v18.411h-3.039z"/><path d="m1.242 7.112h18.173v4.946h-18.173z"/></g><path d="m4.405 3.553.506-.047-.312-.625zm-.439.697.484-1.686.338-.031.784 1.569-.348.032-.209-.419-.674.062-.129.45z"/><path d="m6.237 4.058-.082-1.632.299-.015.813 1.077-.056-1.115.272-.014.082 1.633-.304.015-.807-1.078.055 1.115z"/><path d="m9.716 3.914a2.145 2.145 0 0 1 -.529.085.89.89 0 0 1 -.653-.215.86.86 0 0 1 -.234-.635.847.847 0 0 1 .221-.637.886.886 0 0 1 .643-.229 2.292 2.292 0 0 1 .534.057l.002.266a1.649 1.649 0 0 0 -.503-.099.5.5 0 0 0 -.399.17.7.7 0 0 0 -.136.471.664.664 0 0 0 .156.46.535.535 0 0 0 .419.162l.137-.018-.006-.538.34-.003z"/><path d="m10.536 3.961.039-1.634 1.021.024-.005.224-.682-.016-.01.456.558.013-.005.219-.558-.013-.012.503.733.018-.006.231z"/><path d="m12.704 3.144.078.005q.371.021.388-.277c.008-.146-.098-.225-.317-.238l-.118-.007zm-.372.872.096-1.632.611.036c.331.02.489.164.473.434a.478.478 0 0 1 -.1.27.539.539 0 0 1 -.244.177l.489.793-.413-.024-.365-.691-.188-.011-.039.667z"/><path d="m14.236 4.128.027-.279a1.208 1.208 0 0 0 .439.153l.212-.039.09-.151-.034-.138-.167-.146-.103-.071a1.057 1.057 0 0 1 -.286-.266.406.406 0 0 1 -.065-.272.398.398 0 0 1 .178-.309.596.596 0 0 1 .403-.084 1.954 1.954 0 0 1 .433.098l-.025.26a1.213 1.213 0 0 0 -.385-.131l-.185.033-.08.125.036.122.166.141.11.076a1.14 1.14 0 0 1 .301.274.46.46 0 0 1 -.139.618.749.749 0 0 1 -.476.085 2.298 2.298 0 0 1 -.45-.099"/></g><path d="m3.979 8.33a2.215 2.215 0 0 1 .936-.232 5.913 5.913 0 0 1 .783.028 5.341 5.341 0 0 1 .752.14 3.351 3.351 0 0 0 -.069.362l-.251-.102a2.741 2.741 0 0 0 -.272-.077 3.401 3.401 0 0 0 -.345-.062c-.129-.018-.286-.035-.47-.052a2.322 2.322 0 0 0 -.309.044.981.981 0 0 0 -.26.094l-.176.147-.055.197.067.139.169.134a1.446 1.446 0 0 0 .243.121c.093.036.189.068.289.096l.824.235a1.276 1.276 0 0 1 .343.149 1.022 1.022 0 0 1 .235.199l.13.224.036.228a.63.63 0 0 1 -.111.342.926.926 0 0 1 -.28.261 1.53 1.53 0 0 1 -.416.172 2.257 2.257 0 0 1 -.515.068 4.536 4.536 0 0 1 -.749-.041q-.369-.051-.741-.128l.034-.17.034-.196a1.447 1.447 0 0 0 .294.142 2.173 2.173 0 0 0 .317.085 2.796 2.796 0 0 0 .343.043c.12.008.247.012.379.011a2.147 2.147 0 0 0 .311-.03.93.93 0 0 0 .253-.081l.164-.147a.378.378 0 0 0 .05-.232l-.031-.14-.09-.161-.158-.149a.753.753 0 0 0 -.249-.108l-.878-.213a1.538 1.538 0 0 1 -.665-.308.562.562 0 0 1 -.215-.435.628.628 0 0 1 .319-.597" fill="#fff"/><path d="m3.856 10.959c.223.044.445.082.662.112a4.511 4.511 0 0 0 .737.04 2.173 2.173 0 0 0 .499-.066 1.421 1.421 0 0 0 .395-.163.846.846 0 0 0 .259-.24.559.559 0 0 0 .097-.303l-.032-.202-.116-.2-.218-.184a1.225 1.225 0 0 0 -.324-.14l-.824-.236a2.933 2.933 0 0 1 -.296-.098 1.529 1.529 0 0 1 -.256-.127l-.183-.146-.087-.187.07-.243.2-.168a1.037 1.037 0 0 1 .28-.101 2.384 2.384 0 0 1 .318-.046c.198.017.356.035.486.053a3.496 3.496 0 0 1 .352.063 2.59 2.59 0 0 1 .279.08l.169.064.038-.201a5.043 5.043 0 0 0 -.671-.121 5.771 5.771 0 0 0 -.773-.028 2.15 2.15 0 0 0 -.901.222.557.557 0 0 0 -.283.533.494.494 0 0 0 .191.381 1.46 1.46 0 0 0 .633.291l.879.214a.789.789 0 0 1 .273.119l.175.164.1.181.035.163a.44.44 0 0 1 -.061.273l-.193.173a.988.988 0 0 1 -.272.088 2.047 2.047 0 0 1 -.323.031c-.136.001-.265-.003-.386-.011a2.967 2.967 0 0 1 -.352-.044 2.265 2.265 0 0 1 -.328-.088l-.215-.095-.015.09zm1.282.301a4.833 4.833 0 0 1 -.64-.043c-.244-.034-.495-.077-.746-.129l-.076-.016.02-.075.033-.162.034-.199.02-.105.091.057a1.403 1.403 0 0 0 .279.134 2 2 0 0 0 .306.082 2.685 2.685 0 0 0 .335.043c.118.007.244.009.374.01a1.847 1.847 0 0 0 .298-.029l.232-.074.136-.12.038-.189-.026-.119-.079-.142-.143-.133a.664.664 0 0 0 -.224-.097l-.877-.213a1.589 1.589 0 0 1 -.697-.325.635.635 0 0 1 -.24-.491.701.701 0 0 1 .356-.659 2.305 2.305 0 0 1 .968-.242 6.067 6.067 0 0 1 .795.029 5.44 5.44 0 0 1 .763.142l.071.018-.018.071a3.191 3.191 0 0 0 -.067.353l-.013.098-.09-.041-.245-.098a2.556 2.556 0 0 0 -.265-.076c-.097-.023-.21-.044-.337-.061-.129-.017-.285-.034-.468-.052a2.419 2.419 0 0 0 -.286.044.908.908 0 0 0 -.241.086l-.152.126-.041.149.047.093.155.123.231.114a2.823 2.823 0 0 0 .282.093l.824.236a1.361 1.361 0 0 1 .363.158 1.115 1.115 0 0 1 .251.213l.143.248.04.254a.702.702 0 0 1 -.123.381 1.001 1.001 0 0 1 -.302.282 1.54 1.54 0 0 1 -.436.18 2.294 2.294 0 0 1 -.532.071z" fill="#fff"/><path d="m10.999 10.892a2.071 2.071 0 0 1 -.301.103c-.112.031-.226.057-.342.079s-.231.04-.343.052a2.873 2.873 0 0 1 -.301.019 3.731 3.731 0 0 1 -.883-.101 2.37 2.37 0 0 1 -.724-.3 1.543 1.543 0 0 1 -.489-.489 1.327 1.327 0 0 1 -.006-1.324 1.563 1.563 0 0 1 .469-.49 2.24 2.24 0 0 1 .688-.306 3.166 3.166 0 0 1 .834-.106 5.633 5.633 0 0 1 .734.051 6.551 6.551 0 0 1 .768.151l-.036.165-.036.182-.248-.091a2.68 2.68 0 0 0 -.279-.093 3.572 3.572 0 0 0 -.373-.076 4.744 4.744 0 0 0 -.519-.045 1.949 1.949 0 0 0 -.624.093 1.391 1.391 0 0 0 -.467.257 1.103 1.103 0 0 0 -.293.388 1.163 1.163 0 0 0 -.102.486 1.218 1.218 0 0 0 .125.549 1.255 1.255 0 0 0 .356.428 1.732 1.732 0 0 0 .561.278 2.531 2.531 0 0 0 .732.099 2.392 2.392 0 0 0 .577-.07 2.646 2.646 0 0 0 .549-.203z" fill="#fff"/><path d="m9.604 8.104h-.003a3.11 3.11 0 0 0 -.815.103 2.163 2.163 0 0 0 -.665.296 1.498 1.498 0 0 0 -.448.467 1.254 1.254 0 0 0 .006 1.247 1.459 1.459 0 0 0 .466.466 2.28 2.28 0 0 0 .701.29 3.623 3.623 0 0 0 .864.099 2.011 2.011 0 0 0 .295-.018c.11-.012.223-.03.337-.051.113-.022.226-.048.337-.078a2.048 2.048 0 0 0 .251-.083l.012-.142a2.709 2.709 0 0 1 -.447.153 2.53 2.53 0 0 1 -.595.073 2.596 2.596 0 0 1 -.753-.103 1.785 1.785 0 0 1 -.584-.29 1.32 1.32 0 0 1 -.378-.453 1.296 1.296 0 0 1 -.132-.582 1.259 1.259 0 0 1 .108-.517 1.202 1.202 0 0 1 .312-.413 1.472 1.472 0 0 1 .491-.271 2.038 2.038 0 0 1 .648-.097 5.088 5.088 0 0 1 .53.046 3.618 3.618 0 0 1 .381.078 2.675 2.675 0 0 1 .287.096l.166.063.019-.099.019-.099a6.482 6.482 0 0 0 -.689-.131 5.572 5.572 0 0 0 -.721-.05m.106 3.115a3.814 3.814 0 0 1 -.899-.103 2.453 2.453 0 0 1 -.746-.309 1.611 1.611 0 0 1 -.511-.512 1.402 1.402 0 0 1 -.007-1.401 1.643 1.643 0 0 1 .491-.513 2.343 2.343 0 0 1 .709-.316 3.503 3.503 0 0 1 .857-.108 5.534 5.534 0 0 1 .741.052 6.255 6.255 0 0 1 .776.152l.072.018-.019.072-.035.159-.036.184-.016.08-.078-.025-.254-.093a2.39 2.39 0 0 0 -.271-.09 3.315 3.315 0 0 0 -.364-.074 4.536 4.536 0 0 0 -.511-.045 1.859 1.859 0 0 0 -.598.09 1.312 1.312 0 0 0 -.442.242 1.067 1.067 0 0 0 -.274.363 1.101 1.101 0 0 0 -.095.455 1.133 1.133 0 0 0 .117.517 1.162 1.162 0 0 0 .336.402 1.642 1.642 0 0 0 .536.267 2.49 2.49 0 0 0 .711.096 2.384 2.384 0 0 0 .559-.069 2.566 2.566 0 0 0 .535-.197l.117-.059-.042.489-.04.017a2.107 2.107 0 0 1 -.312.107c-.114.031-.231.058-.348.08-.117.023-.234.04-.347.053a3.033 3.033 0 0 1 -.312.019" fill="#fff"/><path d="m12.617 10.549a.665.665 0 0 0 .218.226.986.986 0 0 0 .307.125 1.518 1.518 0 0 0 .341.039 1.686 1.686 0 0 0 .346-.021.933.933 0 0 0 .315-.109.624.624 0 0 0 .322-.563l.028-1.185a.656.656 0 0 0 -.078-.349.647.647 0 0 0 -.219-.228.93.93 0 0 0 -.309-.123 1.617 1.617 0 0 0 -.344-.037 1.468 1.468 0 0 0 -.343.023.981.981 0 0 0 -.312.111.614.614 0 0 0 -.322.558l-.028 1.186a.646.646 0 0 0 .078.347m2.487-.416a.963.963 0 0 1 -.115.45.951.951 0 0 1 -.317.334 1.606 1.606 0 0 1 -.502.205 2.637 2.637 0 0 1 -.665.061 2.09 2.09 0 0 1 -1.199-.319.918.918 0 0 1 -.399-.805l.021-.929a.923.923 0 0 1 .436-.786 2.088 2.088 0 0 1 1.213-.263 2.625 2.625 0 0 1 .661.091 1.579 1.579 0 0 1 .492.229.94.94 0 0 1 .301.348.958.958 0 0 1 .094.455z" fill="#fff"/><path d="m13.484 10.866a1.608 1.608 0 0 0 .333-.02.886.886 0 0 0 .291-.1l.203-.194a.584.584 0 0 0 .082-.307l.027-1.185a.585.585 0 0 0 -.068-.311l-.193-.203a.887.887 0 0 0 -.286-.113 1.589 1.589 0 0 0 -.327-.035h-.002a1.403 1.403 0 0 0 -.33.022.902.902 0 0 0 -.289.102l-.203.192a.58.58 0 0 0 -.082.304l-.027 1.186a.572.572 0 0 0 .068.308l.194.201a.898.898 0 0 0 .284.116 1.83 1.83 0 0 0 .325.037m.074.148-.078-.001h-.003a1.57 1.57 0 0 1 -.351-.041 1.084 1.084 0 0 1 -.33-.134.736.736 0 0 1 -.242-.251.721.721 0 0 1 -.088-.386l.028-1.186a.708.708 0 0 1 .105-.381.721.721 0 0 1 .254-.24 1.052 1.052 0 0 1 .335-.119 1.559 1.559 0 0 1 .36-.024h.003a1.732 1.732 0 0 1 .353.038 1.038 1.038 0 0 1 .333.133.696.696 0 0 1 .33.641l-.027 1.186a.7.7 0 0 1 -.36.625 1.026 1.026 0 0 1 -.338.117 1.707 1.707 0 0 1 -.284.023m-.075-2.86a1.944 1.944 0 0 0 -1.078.252.846.846 0 0 0 -.403.726l-.021.929a.842.842 0 0 0 .369.744 2.035 2.035 0 0 0 1.157.305 2.543 2.543 0 0 0 .646-.059 1.497 1.497 0 0 0 .479-.196.884.884 0 0 0 .293-.307.91.91 0 0 0 .106-.416l.021-.93a.875.875 0 0 0 -.087-.42.856.856 0 0 0 -.278-.321 1.509 1.509 0 0 0 -.469-.217 2.52 2.52 0 0 0 -.642-.089zm.102 3.104-.081-.001a2.168 2.168 0 0 1 -1.241-.333.995.995 0 0 1 -.429-.866l.021-.93a.998.998 0 0 1 .468-.845 2.162 2.162 0 0 1 1.256-.275 2.669 2.669 0 0 1 .679.094 1.637 1.637 0 0 1 .515.24 1.005 1.005 0 0 1 .324.375 1.022 1.022 0 0 1 .102.489l-.021.929a1.028 1.028 0 0 1 -.125.484 1.017 1.017 0 0 1 -.341.36 1.674 1.674 0 0 1 -.525.215 2.604 2.604 0 0 1 -.602.064" fill="#fff"/><path d="m9.136 14.182v-.136h.232v-.857l-.232.058v-.139l.465-.116v1.054h.233v.136z" fill="#201600"/><path d="m9.245 15.656.052.19.142.07.143-.064.058-.156-.057-.198-.15-.076-.137.063zm-.171.803v-.168a.744.744 0 0 0 .277.061.253.253 0 0 0 .217-.115.536.536 0 0 0 .08-.311.345.345 0 0 1 -.274.133.349.349 0 0 1 -.257-.106.361.361 0 0 1 -.104-.262.398.398 0 0 1 .118-.297.448.448 0 0 1 .639.036.662.662 0 0 1 .122.422.713.713 0 0 1 -.144.473.491.491 0 0 1 -.396.172 1.358 1.358 0 0 1 -.278-.038" fill="#201600"/><path d="m9.136 18.753v-.136h.232v-.857l-.232.058v-.139l.465-.117v1.055h.233v.136z" fill="#201600"/><path d="m9.245 20.227.052.19.142.07.143-.064.058-.156-.057-.198-.15-.075-.137.062zm-.171.803v-.168a.725.725 0 0 0 .277.061.25.25 0 0 0 .217-.115.534.534 0 0 0 .08-.311.342.342 0 0 1 -.274.133.346.346 0 0 1 -.257-.106.361.361 0 0 1 -.104-.261.399.399 0 0 1 .118-.298.448.448 0 0 1 .639.036.662.662 0 0 1 .122.422.713.713 0 0 1 -.144.473.491.491 0 0 1 -.396.172 1.358 1.358 0 0 1 -.278-.038" fill="#201600"/><path d="m1.675 11.185a66.708 66.708 0 0 0 5.68 10.235 19.423 19.423 0 0 1 -5.68-10.235" fill="#aea427"/><path d="m17.139 11.185a66.759 66.759 0 0 1 -5.679 10.235 19.426 19.426 0 0 0 5.679-10.235" fill="#aea427"/><path d="m1.821 9.634a77.463 77.463 0 0 0 7.552 13.382 89.63 89.63 0 0 0 7.785-13.384 14.969 14.969 0 0 0 -2.282-4.056 43.372 43.372 0 0 0 -5.258-.305h-.256a43.372 43.372 0 0 0 -5.258.305 14.998 14.998 0 0 0 -2.283 4.058m7.544 13.655-.066-.115a77.322 77.322 0 0 1 -7.63-13.511l-.012-.028.011-.029a14.776 14.776 0 0 1 2.343-4.154l.019-.02.027-.004a43.675 43.675 0 0 1 5.305-.31h.256a43.675 43.675 0 0 1 5.305.31l.028.004.019.02a14.795 14.795 0 0 1 2.342 4.154l.012.03-.013.029a89.688 89.688 0 0 1 -7.877 13.528z" fill="#201600"/></svg>