<svg height="565.583" width="413.514" xmlns="http://www.w3.org/2000/svg" xmlns:xlink="http://www.w3.org/1999/xlink"><clipPath id="a"><path d="m427.451 717.294h75.882v104.479h-75.882z"/></clipPath><clipPath><path d="m-.473-.878h1.652v1.757h-1.652z"/></clipPath><clipPath><path d="m467.688 757.439c0-.795.192-1.437.954-1.823.429-.225 1.136-.45 1.576-.621.814-.312 1.307-.322 1.307-1.545 0-.943-.632-1.404-1.532-1.404-1.341 0-1.566.751-1.522 1.941h-.89c.01-.429 0-1.071.172-1.469.46-1.051 1.403-1.275 2.196-1.275 1.544 0 2.498.889 2.498 2.413 0 1.06-.278 1.595-1.8 2.164-.429.162-.848.321-1.276.482-.514.194-.762.536-.762 1.095 0 .62.14 1.435 1.437 1.435.89 0 1.34-.631 1.275-1.469h.891c.085 1.512-.816 2.274-2.283 2.274-1.308 0-2.241-.869-2.241-2.198m-8.649 0c0-.795.192-1.437.955-1.823.428-.225 1.135-.45 1.574-.621.816-.312 1.308-.322 1.308-1.545 0-.943-.633-1.404-1.532-1.404-1.341 0-1.565.751-1.523 1.941h-.889c.01-.429 0-1.071.171-1.469.461-1.051 1.405-1.275 2.197-1.275 1.544 0 2.498.889 2.498 2.413 0 1.06-.278 1.595-1.801 2.164-.429.162-.847.321-1.275.482-.515.194-.762.536-.762 1.095 0 .62.14 1.435 1.438 1.435.89 0 1.339-.631 1.274-1.469h.891c.085 1.512-.815 2.274-2.284 2.274-1.307 0-2.24-.869-2.24-2.198m17.436 2.037v-8.04h4.043v.804h-3.153v2.969h2.937v.804h-2.937v2.658h3.13v.805zm-24.326 0-2.295-8.04h.987l.589 2.316h2.542l.631-2.316h.987l-2.264 8.04zm.556-.644h.022l1.04-4.277h-2.123zm21.152-7.396h.976v1.071h-.976zm-8.65 0h.977v1.071h-.977zm-8.648 0h.976v1.071h-.976z"/></clipPath><clipPath id="b"><path d="m427.451 717.294h75.882v104.479h-75.882z"/></clipPath><clipPath><path d="m-.294.061h1.066v.326h-1.066z"/></clipPath><clipPath><path d="m446.385 761.053h38.015v-11.635h-38.015z"/></clipPath><clipPath><path d="m446.385 761.053h38.015v-11.634h-38.015z"/></clipPath><clipPath><path d="m427.451 717.294h75.882v104.479h-75.882z"/></clipPath><clipPath><path d="m-.421-.364h1.131v1.131h-1.131z"/></clipPath><clipPath><path d="m440.412 755.237c0-13.775 11.206-24.981 24.98-24.981 13.773 0 24.979 11.206 24.979 24.981 0 13.773-11.206 24.979-24.979 24.979-13.774 0-24.98-11.206-24.98-24.979"/></clipPath><clipPath id="c"><path d="m427.451 755.236c0-20.955 16.986-37.942 37.941-37.942 20.954 0 37.941 16.987 37.941 37.942 0 20.955-16.987 37.942-37.941 37.942-20.955 0-37.941-16.987-37.941-37.942m41.294 23.952c2.574-.357 5.019-1.116 7.268-2.217v-15.478h-7.268zm-13.078-1.804c1.997.878 4.136 1.494 6.371 1.804v-17.695h-6.371zm-14.464-22.148c0 7.013 2.988 13.325 7.757 17.744v-11.487h-3.015v-12.514h3.015v-11.486c-4.769 4.418-7.757 10.731-7.757 17.743m41.516 16.869c4.243-4.358 6.86-10.307 6.86-16.869 0-6.562-2.617-12.51-6.86-16.868v10.611h2.12v12.514h-.22-1.9zm-36.334-11.052h38.015v-11.634h-38.015zm22.36-12.074h7.268v-15.476c-2.249-1.101-4.694-1.861-7.268-2.217zm-13.078-15.889v15.889h6.371v-17.694c-2.235.311-4.374.926-6.371 1.805"/></clipPath><path d="m734.286 616.648c0 125.448-106.812 227.143-238.571 227.143s-238.571-101.695-238.571-227.143 106.812-227.143 238.571-227.143 238.571 101.695 238.571 227.143z" fill="#fff" transform="matrix(.833245 0 0 .833245 -206.39707 -158.047615)"/><g clip-path="url(#a)" transform="matrix(5.31451 0 0 -5.31451 -2266.682595 4372.589165)"><g fill="#004521"><path d="m0 0c2.463-.342 4.807-1.053 6.975-2.077v.153c-2.249 1.1-4.694 1.859-7.267 2.217v-17.697h.292z" transform="translate(469.038 778.896)"/><path d="m0 0c1.91.84 3.949 1.439 6.079 1.761v.337c-2.236-.311-4.374-.926-6.372-1.805v-15.892h.293z" transform="translate(455.96 777.091)"/><path d="m0 0c0 6.867 2.866 13.062 7.462 17.466v.571c-4.768-4.419-7.755-10.731-7.755-17.744 0-6.719 2.744-12.794 7.168-17.177-4.253 4.358-6.875 10.314-6.875 16.884" transform="translate(441.497 754.943)"/><path d="m0 0h2.721v.293h-3.012z" transform="translate(446.238 748.686)"/><path d="m0 0h6.079v.293h-6.372v-15.889c.097-.043.195-.085.293-.126z" transform="translate(455.96 748.686)"/><path d="m0 0h6.975v.293h-7.267v-17.693c.097.013.194.029.292.044z" transform="translate(469.038 748.686)"/><path d="m0 0c-.097.103-.194.207-.293.308v-10.613h.293z" transform="translate(483.012 771.797)"/><path d="m0 0h2.119v13.1l-.292-.303v-12.504h-2.12v-10.61c.099.101.196.204.293.307z" transform="translate(483.012 748.686)"/></g><path d="m0 0v-15.187h-6.877v-.293h7.268v15.479z" fill="#fff" transform="translate(475.622 776.972)"/><path d="m0 0v-17.014h-5.982v-.293h6.373v17.697c-.131-.019-.261-.37-.391-.39" fill="#fff" transform="translate(461.648 778.799)"/><path d="m0 0v-10.83c.129-.125.259-.248.391-.371v11.486z" fill="#fff" transform="translate(448.569 748.694)"/><path d="m0 0v-10.1h-3.014v-12.416l.391-.39v12.513h3.014v11.488c-.132-.122-.262-.97-.391-1.095" fill="#fff" transform="translate(448.569 771.885)"/><path d="m0 0v-17.101c-1.985.275-3.891.791-5.691 1.517l-.291-.006c1.998-.878 4.136-1.494 6.373-1.804v17.693z" fill="#fff" transform="translate(461.648 748.68)"/><path d="m0 0v-14.884c-2.049-1.003-4.26-1.722-6.584-2.112l-.293-.398c2.574.357 5.019 1.116 7.268 2.217v15.476z" fill="#fff" transform="translate(475.622 748.68)"/><path d="m0 0s.206-.341.307-.455c3.83-4.279 6.163-9.927 6.163-16.122 0-6.202-2.34-11.858-6.179-16.138l-.291-1.022c4.243 4.357 6.861 10.305 6.861 16.867 0 6.563-2.618 12.512-6.861 16.87" fill="#fff" transform="translate(482.719 772.105)"/><path d="m0 0-.287-.293h2.12l.305.293z" fill="#fff" transform="translate(483.006 761.785)"/></g><g clip-path="url(#c)" fill="#006a32" transform="matrix(5.31451 0 0 -5.31451 -2266.682595 4372.589165)"><path d="m474.563 75.781c-1.087 0-2.181.052-3.25.125s-2.108.169-3.156.313c-1.049.143-2.099.32-3.125.531s-2.031.443-3.031.719c-1.467.405-2.905.899-4.313 1.438-1.407.538-2.785 1.148-4.125 1.813s-2.642 1.373-3.906 2.156c-1.265.784-2.505 1.636-3.688 2.531-.437.331-.856.654-1.281 1-.426.346-.868.702-1.281 1.063-.413.36-.818.72-1.219 1.094-.4.374-.769.769-1.156 1.156-1.167 1.167-2.271 2.405-3.313 3.688-.521.641-1.044 1.301-1.531 1.969s-.953 1.337-1.406 2.031c-.661 1.013-1.291 2.061-1.875 3.125-.584 1.065-1.122 2.139-1.625 3.25-1.006 2.223-1.843 4.55-2.5 6.938-.641 2.329-1.099 4.699-1.375 7.094-.108.934-.197 1.874-.25 2.813-.054.938-.063 1.871-.063 2.813.006 2.161.151 4.29.438 6.375s.701 4.135 1.25 6.125c.385 1.396.838 2.752 1.344 4.094.506 1.341 1.066 2.657 1.688 3.938.621 1.281 1.302 2.536 2.031 3.75s1.512 2.391 2.344 3.531c.732 1.004 1.506 1.964 2.313 2.906.806.943 1.654 1.873 2.531 2.75.775.775 1.549 1.53 2.375 2.25s1.688 1.4 2.563 2.063c1.182.895 2.423 1.747 3.688 2.531 1.265.783 2.567 1.491 3.906 2.156s2.718 1.275 4.125 1.813c1.407.539 2.845 1.002 4.313 1.406 2.002.551 4.059.995 6.156 1.281 2.097.287 4.232.435 6.406.438 2.135 0 4.261-.156 6.375-.438s4.222-.715 6.281-1.281c4.561-1.256 8.845-3.151 12.75-5.625 2.236-1.416 4.349-3.023 6.313-4.781.329-.294.648-.603.969-.906.321-.304.626-.594.938-.906.877-.877 1.724-1.807 2.531-2.75.806-.943 1.58-1.903 2.313-2.906 1.663-2.28 3.133-4.719 4.375-7.281s2.262-5.24 3.031-8.031c.549-1.99.963-4.04 1.25-6.125.287-2.086.432-4.214.438-6.375 0-.941-.009-1.875-.063-2.813-.054-.939-.143-1.879-.25-2.813-.277-2.395-.734-4.765-1.375-7.094-.657-2.388-1.495-4.714-2.5-6.938-1.005-2.223-2.178-4.349-3.5-6.375-.906-1.387-1.896-2.717-2.938-4-1.041-1.283-2.146-2.521-3.313-3.688-.624-.625-1.249-1.223-1.906-1.813-.982-.879-2.01-1.735-3.063-2.531s-2.132-1.542-3.25-2.25c-.488-.309-1-.615-1.5-.906-.5-.292-.988-.57-1.5-.844-1.022-.547-2.06-1.058-3.125-1.531s-2.177-.918-3.281-1.313c-1.105-.395-2.203-.749-3.344-1.063-1.03-.283-2.08-.507-3.125-.719s-2.099-.39-3.156-.531-2.123-.274-3.188-.344-2.12-.094-3.188-.094z" fill="#006a32" transform="matrix(.8 0 0 -.8 85.709 853.89)"/></g><g clip-path="url(#b)" transform="matrix(5.31451 0 0 -5.31451 -2266.682595 4372.589165)"><g fill="#004521"><path d="m0 0c-.405.481-.979.584-1.455.115-.693-.681-.34-1.19-.013-1.523.292-.298.605-.352.981-.185.314.139.622.273.937.412 1.113.495 1.544.355 2.101-.213.8-.814.757-1.792-.07-2.603-.425-.417-1.048-.792-1.846-.472-.3.122-.632.472-.864.696l.476.468c.604-.66 1.118-.944 1.835-.239.482.473.578 1.051.082 1.557-.641.653-.911.4-1.511.139-.324-.139-.822-.391-1.169-.495-.61-.193-1.052.049-1.469.474-.698.711-.655 1.666.046 2.353.785.772 1.667.837 2.415-.016z" transform="translate(442.888 779.481)"/><path d="m0 0-.013-.01 1.238-3.064 1.29.934zm-.635.135.716.519 4.913-3.886-.599-.434-1.403 1.128-1.542-1.119.813-1.905-.531-.385-.22.19-2.147 5.892z" transform="translate(445.295 782.865)"/><path d="m0 0-.222.194-2.973 5.25.581.329.221-.194 2.752-5.056z" transform="translate(451.161 779.739)"/><path d="m0 0 .617.255.222-.193 2.093-5.372-1.009-.42-3.411 3.804c-.194.216-.366.44-.557.753l-.015-.007c.125-.279.252-.565.37-.847l1.847-4.438-.394-.45-.222.194-2.316 5.566 1.002.417.221-.194 3.256-3.705c.138-.143.264-.3.446-.528l.014.005c-.09.198-.188.41-.274.618z" transform="translate(453.046 787.606)"/><path d="m0 0 3.677.909.222-.194-1.592-.766 1.303-5.27-.427-.354-.221.193-1.303 5.271-1.292-.568-.222.193z" transform="translate(455.028 788.322)"/><path d="m0 0-.222.194-.096.661 1.935.282.222-.194-.125-.468z" transform="translate(459.96 785.312)"/><path d="m0 0-.221.194-.199 6.026 3.014.099.221-.194.026-.481-2.574-.004.065-1.993 2.203.071.221-.193-.201-.409-2.203-.072.073-2.226 2.364.078.221-.195-.203-.409z" transform="translate(463.006 783.501)"/><path d="m0 0 3.768-.389.222-.194-.283-.406-1.552.161-.557-5.402-.442-.125-.221.194.555 5.4-1.33-.034-.221.194z" transform="translate(466.877 789.803)"/><path d="m0 0-.221.194 1.25 5.895.652-.138.221-.194-1.471-5.702z" transform="translate(470.978 783.017)"/><path d="m0 0-.221.194 1.867 5.738 2.87-.934.221-.195-2.642.349-.618-1.897 2.097-.684.221-.193-2.505.303-.69-2.12 2.25-.732.221-.194-.41-.38z" transform="translate(472.833 782.615)"/><path d="m0 0 .598-.3.22-.194-2.931-5.201-.759.298-.221.194.658 5.075c.038.288.096.565.206.913l-.013.008c-.13-.277-.263-.562-.401-.834l-2.161-4.302-.376.105-.221.195 2.711 5.395.971-.488.222-.194-.909-4.993c-.019-.198-.055-.396-.109-.684l.012-.007c.091.198.189.41.29.611z" transform="translate(481.647 785.622)"/><path d="m0 0 .538-.393-3.551-4.869-.884.645 1.48 4.889c.083.278.187.541.354.867l-.014.009c-.174-.251-.352-.509-.531-.756l-2.834-3.882-.539.393 3.553 4.869.877-.64-1.526-4.994c-.051-.193-.119-.381-.22-.656l.014-.01c.121.18.251.373.385.555z" transform="translate(486.366 782.499)"/><path d="m0 0 4.238 4.29 2.144-2.118-.424-.429-1.67 1.649-1.401-1.418 1.567-1.548-.422-.429-1.569 1.547-1.565-1.584 1.682-1.661-.425-.429z" transform="translate(484.094 776.56)"/><path d="m0 0 1.567 5.828.644-.172-1.409-5.246 2.378-.639-.156-.583z" transform="translate(455 722.961)"/><path d="m0 0c-1.022.118-1.402-.922-1.549-2.255-.195-1.734-.126-2.671.976-2.801 1.101-.128 1.384.769 1.594 2.5.163 1.333.032 2.433-1.021 2.556m.101.594c1.749-.203 1.777-1.842 1.608-3.213-.201-1.661-.604-3.24-2.352-3.036s-1.769 1.834-1.591 3.495c.16 1.373.554 2.962 2.335 2.754" transform="translate(461.833 726.806)"/><path d="m464.84 727.094h.668v-6.026h-.668z"/><path d="m0 0 1.045.122c.311.044 1.168.193 1.03 1.237-.137 1.028-.945.957-1.393.905l-.933-.108zm.376-3.234-.662-.076-.698 5.987 1.541.18c1.253.146 2.09-.089 2.211-1.475.058-.705-.315-1.258-.998-1.434l.001-.017c.784.019 1.004-.207 1.194-.994.075-.444.166-.878.282-1.317.036-.111.115-.368.274-.349l.017-.137-.774-.089c-.189.366-.339 1.101-.386 1.5-.07.6-.368 1.083-1.152.992l-1.157-.136z" transform="translate(467.683 724.403)"/><path d="m0 0-1.565 5.828 2.914.783.158-.583-2.271-.609.519-1.927 2.129.571.156-.582-2.13-.573.578-2.153 2.287.615.156-.583z" transform="translate(472.675 722.242)"/></g><path d="m0 0c-.405.481-.979.583-1.455.115-.694-.681-.34-1.19-.013-1.522.292-.299.605-.353.981-.186.314.14.622.273.937.412 1.113.495 1.544.355 2.1-.213.801-.814.758-1.792-.069-2.603-.425-.417-1.048-.792-1.846-.472-.3.123-.632.472-.864.697l.476.467c.603-.66 1.117-.944 1.835-.239.482.473.579 1.051.082 1.557-.641.653-.911.401-1.511.139-.324-.139-.822-.39-1.17-.495-.61-.193-1.051.049-1.468.474-.698.711-.655 1.666.045 2.353.786.772 1.668.837 2.416-.016z" fill="#fff" transform="translate(443.11 779.287)"/><path d="m0 0-.013-.01 1.238-3.064 1.29.934zm-.635.135.716.519 4.913-3.886-.599-.434-1.403 1.128-1.542-1.118.661-1.667-.599-.434z" fill="#fff" transform="translate(445.517 782.671)"/><path d="m0 0-2.974 5.25.581.329 2.974-5.249z" fill="#fff" transform="translate(451.161 779.739)"/><path d="m0 0 .617.256 2.315-5.566-1.009-.42-3.411 3.804c-.194.216-.366.441-.557.753l-.015-.006c.125-.28.252-.566.37-.848l1.847-4.438-.616-.256-2.317 5.566 1.003.417 3.476-3.899c.139-.143.264-.3.446-.528l.015.005c-.09.198-.188.41-.274.618z" fill="#fff" transform="translate(453.268 787.412)"/><path d="m0 0 3.678.909.143-.586-1.514-.374 1.303-5.27-.648-.16-1.303 5.27-1.514-.375z" fill="#fff" transform="translate(455.249 788.128)"/><path d="m0 0-.096.661 1.935.282.097-.662z" fill="#fff" transform="translate(459.96 785.312)"/><path d="m0 0-.198 6.026 3.013.099.021-.602-2.348-.077.066-1.993 2.202.072.02-.603-2.203-.072.074-2.226 2.363.077.019-.602z" fill="#fff" transform="translate(463.006 783.501)"/><path d="m0 0 3.768-.389-.061-.6-1.552.161-.558-5.402-.662.069.555 5.4-1.551.16z" fill="#fff" transform="translate(467.098 789.609)"/><path d="m0 0 1.25 5.895.652-.138-1.25-5.896z" fill="#fff" transform="translate(470.978 783.017)"/><path d="m0 0 1.868 5.738 2.869-.935-.187-.573-2.234.728-.617-1.898 2.096-.682-.188-.574-2.096.682-.69-2.118 2.25-.733-.188-.574z" fill="#fff" transform="translate(472.833 782.615)"/><path d="m0 0 .598-.3-2.711-5.395-.98.492.658 5.075c.038.287.096.565.207.913l-.013.008c-.131-.278-.264-.562-.402-.834l-2.161-4.302-.596.299 2.71 5.396.972-.488-.688-5.187c-.018-.198-.055-.396-.109-.684l.013-.007c.091.198.188.41.29.611z" fill="#fff" transform="translate(481.867 785.428)"/><path d="m0 0 .538-.393-3.552-4.869-.883.645 1.479 4.889c.083.278.187.541.354.867l-.014.009c-.173-.251-.351-.509-.531-.756l-2.833-3.881-.539.392 3.553 4.869.877-.639-1.526-4.995c-.052-.193-.119-.381-.221-.656l.015-.01c.121.18.25.373.384.556z" fill="#fff" transform="translate(486.587 782.305)"/><path d="m0 0 4.238 4.29 2.144-2.118-.424-.429-1.67 1.649-1.401-1.418 1.567-1.548-.422-.429-1.569 1.547-1.565-1.584 1.682-1.66-.425-.43z" fill="#fff" transform="translate(484.316 776.366)"/><path d="m0 0 1.567 5.829.644-.173-1.409-5.246 2.378-.639-.156-.583z" fill="#fff" transform="translate(455.222 722.768)"/><path d="m0 0c-1.022.119-1.402-.921-1.549-2.255-.195-1.733-.125-2.671.976-2.801 1.101-.127 1.384.77 1.594 2.5.163 1.333.032 2.434-1.021 2.556m.102.594c1.748-.202 1.776-1.841 1.607-3.213-.201-1.66-.604-3.239-2.352-3.035s-1.769 1.833-1.591 3.494c.16 1.373.555 2.962 2.336 2.754" fill="#fff" transform="translate(462.054 726.612)"/><path d="m465.061 726.9h.667v-6.026h-.667z" fill="#fff"/><path d="m0 0 1.045.122c.311.045 1.168.193 1.03 1.237-.137 1.028-.945.957-1.393.905l-.933-.108zm.376-3.233-.662-.077-.698 5.987 1.541.18c1.253.147 2.09-.089 2.211-1.474.058-.705-.315-1.259-.997-1.434v-.017c.784.018 1.004-.208 1.194-.994.075-.444.167-.879.282-1.318.036-.111.115-.367.274-.348l.017-.137-.774-.09c-.189.367-.339 1.101-.386 1.501-.07.599-.368 1.082-1.152.991l-1.157-.135z" fill="#fff" transform="translate(467.904 724.209)"/><path d="m0 0-1.565 5.828 2.914.783.157-.582-2.27-.61.519-1.927 2.129.571.156-.582-2.13-.573.578-2.153 2.287.615.156-.584z" fill="#fff" transform="translate(472.897 722.048)"/><path d="m0 0h.158s2.299 6.996 2.657 8.084c.358-1.088 2.657-8.083 2.657-8.083s7.362-.025 8.508-.028c-.925-.677-6.865-5.025-6.865-5.025s2.252-7.009 2.601-8.1c-.929.67-6.901 4.978-6.901 4.978s-5.97-4.308-6.899-4.978c.35 1.091 2.601 8.1 2.601 8.1s-5.941 4.347-6.866 5.023c1.108.004 6.796.024 6.796.024zm2.607 8.856s-2.672-8.127-2.767-8.417c-.256-.001-9.528-.033-9.528-.033s7.443-5.445 7.69-5.626c-.094-.291-2.913-9.071-2.913-9.071s7.479 5.396 7.726 5.575c.249-.179 7.729-5.575 7.729-5.575s-2.82 8.78-2.914 9.071c.247.181 7.688 5.627 7.688 5.627s-9.222.032-9.528.032c-.096.291-2.975 9.052-2.975 9.052z" fill="#e30613" transform="translate(462.576 807.779)"/><path d="m0 0c-2.038 1.47-7.728 5.574-7.728 5.574s-5.689-4.104-7.728-5.574c.769 2.393 2.914 9.071 2.914 9.071s-5.66 4.141-7.689 5.625c2.513.009 9.099.032 9.099.032l.427.001s2.894 8.802 2.977 9.053c.784-2.388 2.974-9.052 2.974-9.052s7.015-.024 9.528-.032c-2.028-1.484-7.688-5.627-7.688-5.627s2.145-6.678 2.914-9.071m7.718 15.655c-1.195.004-11.771.04-11.771.04s-3.303 10.047-3.675 11.183c-.166-.504-.356-1.08-.356-1.08l-3.321-10.104s-10.576-.037-11.771-.041c.965-.706 9.5-6.95 9.5-6.95s-3.233-10.07-3.599-11.208c.969.699 9.547 6.887 9.547 6.887s8.579-6.187 9.548-6.887c-.366 1.139-3.6 11.208-3.6 11.208s8.533 6.246 9.498 6.952" fill="#fff" transform="translate(473.12 793.488)"/><path d="m0 0c.373-1.135 3.676-11.184 3.676-11.184s10.575-.035 11.77-.039c-.964-.706-9.497-6.952-9.497-6.952s3.234-10.07 3.599-11.208c-.969.7-9.548 6.887-9.548 6.887s-8.577-6.188-9.546-6.887c.365 1.138 3.599 11.208 3.599 11.208s-8.536 6.245-9.5 6.95c1.195.004 11.77.041 11.77.041l3.322 10.104s.19.576.355 1.08m-.209.772s-3.449-10.495-3.786-11.518c-.308-.001-12.791-.044-12.791-.044s10.075-7.37 10.323-7.553c-.093-.294-3.911-12.178-3.911-12.178s10.124 7.303 10.374 7.483c.251-.18 10.376-7.483 10.376-7.483s-3.818 11.885-3.912 12.179c.249.182 10.321 7.554 10.321 7.554s-12.482.042-12.791.043c-.096.293-3.994 12.152-3.994 12.152l-.209-.635z" fill="#0072bb" transform="translate(465.391 820.366)"/><path d="m0 0-.193.193.193 7.847 3.826.193.193.194v-1.192h-3.13v-2.657l2.745.193.193.193v-1.191h-2.938v-2.969l2.96.193.193.194v-1.191zm-2.618 0-.194.193.194.878.782.194.194-.194v-1.071zm-2.536 5.928-.194.193c.026.791-.224 1.275-1.081 1.275-1.298 0-1.437-.815-1.437-1.435 0-.559.247-.901.762-1.094.429-.162.846-.322 1.276-.483 1.522-.568 1.801-1.104 1.801-2.165 0-1.523-.955-2.412-2.499-2.412-.793 0-1.736.224-2.196 1.275-.172.397-.162 1.041-.172 1.469l.696.194.193-.194c-.043-1.19.182-1.941 1.523-1.941.899 0 1.532.461 1.532 1.405 0 1.222-.493 1.232-1.308 1.543-.439.172-1.146.397-1.575.622-.761.386-.954 1.029-.954 1.823 0 1.33.933 2.198 2.241 2.198 1.467 0 2.368-.762 2.283-2.273zm-6.114-5.928-.193.193.193.878.783.194.194-.194v-1.071zm-2.534 5.928-.195.193c.005.764-.242 1.275-1.081 1.275-1.297 0-1.436-.815-1.436-1.435 0-.559.246-.901.761-1.094.428-.162.846-.322 1.275-.483 1.523-.568 1.801-1.104 1.801-2.165 0-1.523-.954-2.412-2.498-2.412-.792 0-1.736.224-2.197 1.275-.171.397-.161 1.041-.171 1.469l.696.194.194-.194c-.044-1.19.181-1.941 1.522-1.941.899 0 1.533.461 1.533 1.405 0 1.222-.493 1.232-1.309 1.543-.438.172-1.146.397-1.574.622-.762.386-.955 1.029-.955 1.823 0 1.33.933 2.198 2.24 2.198 1.468 0 2.369-.762 2.284-2.273zm-6.114-5.928-.194.193.194.878.782.194.194-.194v-1.071zm-3.831 7.396h-.023l-1.061-4.278h2.123zm-3.067-7.203 2.488 7.847.984.193.088.191 2.369-8.424h-.987l-.193.193-.439 2.123h-2.541l-.59-2.316h-.985l-.194.193z" fill="#004521" transform="translate(476.669 751.242)"/><path d="m0 0-.193.193v8.04h4.406l-.194-.193-.193-.611h-3.131v-3.123l.357.465h2.969l-.194-.194-.193-.611h-2.939v-3.395l.391.426h3.15l-.194-.193-.193-.611zm-2.618 0-.194.193v1.072h.976l.194-.194-.194-.878zm-2.537 5.927-.192.194c.03.393-.053.741-.242 1-.214.291-.561.468-1.034.468-1.297 0-1.436-.814-1.436-1.435 0-.558.247-.9.761-1.093.429-.162.847-.321 1.276-.483 1.522-.569 1.801-1.104 1.801-2.165 0-1.523-.955-2.413-2.499-2.413-.792 0-1.735.225-2.196 1.276-.172.397-.161 1.04-.172 1.469h.889l.194-.194c-.018-1.106.044-1.747 1.329-1.747.899 0 1.533.461 1.533 1.404 0 1.223-.494 1.233-1.308 1.544-.439.171-1.147.396-1.576.622-.761.386-.954 1.029-.954 1.823 0 1.329.933 2.197 2.241 2.197 1.468 0 2.368-.761 2.283-2.273zm-6.113-5.927-.194.193v1.072h.977l.194-.194-.194-.878zm-2.535 5.927-.194.194c.065.837-.385 1.468-1.275 1.468-1.297 0-1.437-.814-1.437-1.435 0-.558.248-.9.762-1.093.428-.162.846-.321 1.275-.483 1.523-.569 1.801-1.104 1.801-2.165 0-1.523-.954-2.413-2.497-2.413-.793 0-1.737.225-2.199 1.276-.17.397-.16 1.04-.17 1.469h.889l.194-.194c-.016-1.098.048-1.747 1.329-1.747.899 0 1.533.461 1.533 1.404 0 1.223-.493 1.233-1.309 1.544-.439.171-1.146.396-1.575.622-.762.386-.955 1.029-.955 1.823 0 1.329.934 2.197 2.241 2.197 1.468 0 2.369-.761 2.283-2.273zm-6.113-5.927-.194.193v1.072h.976l.194-.194-.194-.878zm-3.792 6.63-.041.959h-.215l-1.064-4.662.505.385h1.62zm-.813 1.603h1.461l-.088-.193 2.069-7.847-.793-.193-.194.193-.526 1.929.155.387h-2.802l-.59-2.316-.792-.193-.193.193z" fill="#006a32" transform="translate(476.475 751.436)"/></g></svg>