<svg height="369" viewBox="0 0 414.815 566.929" width="270" xmlns="http://www.w3.org/2000/svg"><g fill-rule="evenodd"><path d="m13.643 83.43 24.309-30.076 7.767 5.503c21.729 15.395 49.531 26.151 76.265 18.919 23.345-6.314 44.673-30.13 56.369-50.339 3.827-6.613 7.13-13.565 9.737-20.749l2.375-6.542 32.475-.146c13.896 33.038 47.347 78.668 94.705 77.013 18.724-.655 36.872-7.6 52.149-18.424l7.768-5.503 24.065 31.238-4.686 5.581c-12.032 14.33-17.388 35.911-16.779 54.336.336 10.195 1.718 19.914 4.153 29.814 2.59 10.524 6.141 20.871 9.508 31.168 4.593 14.046 8.839 28.033 12.428 42.378 7.563 30.23 9.888 62.173 7.873 93.235-2.081 32.105-9.026 62.9-25.443 90.863-12.865 21.918-30.419 40.088-50.893 55.014-10.313 7.518-21.196 14.324-32.107 20.934l-97.882 59.283-97.946-59.004c-15.432-9.295-30.952-19.166-44.741-30.803-40.31-34.018-62.468-84.506-64.805-136.756-1.313-29.354 1.6-62.748 8.392-91.313 4.216-17.734 10.285-34.251 15.736-51.609 5.187-16.51 10.268-33.959 10.917-51.375.896-23.978-7.087-46.336-21.709-62.64z" fill="#1b8f3a"/><path d="m26.422 83.752 13.434-16.619c30.734 21.775 60.514 26.997 84.776 20.434 29.283-7.92 59.817-40.325 72.991-76.615l20.401-.402c15.047 36.558 43.843 65.351 73.125 73.271 24.262 6.562 53.774 4.818 84.509-16.957l13.434 17.154c-14.189 17.346-19.705 41.189-19.065 60.557 1.211 36.678 13.953 55.787 26.387 105.486 7.302 29.188 9.528 60.239 7.592 90.118-2.222 34.252-9.872 62.201-24.069 86.385-12.181 20.75-28.784 37.857-48.121 51.953-9.326 6.799-19.769 13.416-31.388 20.453l-92.642 56.111-92.698-55.842c-16.924-10.197-31.29-19.619-43.434-29.869-39.674-33.48-59.105-82.32-61.214-129.457-1.098-24.545.631-59.246 7.591-88.514 10.291-43.277 25.176-72.553 26.387-104.951.724-19.364-3.807-43.21-17.996-62.696z" fill="#ffd600"/><path d="m37.985 80.997c11.272 18.543 16.838 44.282 16.032 65.831-.131 3.512-.412 7.018-.825 10.508-1.844 15.596-6.853 30.717-11.546 45.653-5.307 16.891-10.716 33.503-14.819 50.757-6.355 26.726-7.485 58.249-6.256 85.714 2.083 46.58 21.655 91.807 57.624 122.16 12.937 10.918 27.647 20.209 42.125 28.932l87.452 52.68 87.417-52.945c11.764-7.088 23.684-14.553 34.679-22.959 15.397-11.77 28.677-25.771 39.05-42.209 15.502-24.563 22.813-52.379 24.968-85.596 1.878-28.965.277-58.811-6.775-87-3.473-13.879-7.052-27.407-11.495-40.997-3.529-10.793-7.745-21.592-10.459-32.626-2.772-11.267-4.348-22.387-4.73-33.99-.682-20.654 5.739-45.862 17.352-63.528l-1.12-1.36c-25.369 15.805-55.008 26.451-88.423 17.602-32.945-8.723-66.322-44.794-80.104-77.278l-1.216-.009c-13.871 32.653-45.362 68.358-79.365 77.556-29.615 8.01-63.387-1.662-88.755-18.002z" fill="#1b8f3a"/><path d="m52.565 95.402c6.145 16.505 9.039 35.152 8.42 51.687-.138 3.699-.434 7.39-.868 11.066-1.906 16.121-6.976 31.511-11.819 46.925-3.312 10.541-6.693 21.064-9.755 31.68h164.829v-194.415c-16.937 27.863-44.226 54.223-74.003 62.278-1.771.479-3.559.901-5.358 1.267-23.688 4.808-49.232-.198-71.446-10.488zm159.367 141.358h163.888c-2.099-7.739-4.338-15.438-6.832-23.067-3.606-11.029-7.826-21.837-10.603-33.127-2.869-11.658-4.532-23.424-4.929-35.425-.521-15.785 2.79-33.682 9.123-49.43-8.168 3.875-16.667 7.026-25.494 9.138-16.903 4.045-33.814 3.97-50.637-.484-29.073-7.699-57.288-34.267-74.517-61.849v194.244zm-183.248 116.093c4.107 33.549 17.75 65.615 40.538 90.498v-86.752h45.553v122.395c3.04 1.889 6.094 3.748 9.143 5.586l36.405 21.93v-149.91h45.553v177.352l1.886 1.135 43.662-26.445v-152.043h45.553v124.443c9.816-6.008 19.52-12.27 28.656-19.254 5.975-4.568 11.625-9.494 16.892-14.785v-90.404h42.688c.167-1.246.324-2.494.471-3.746z" fill="#ffd600"/><path d="m205.645 366.269c32.178 0 58.274 26.096 58.274 58.273s-26.096 58.273-58.274 58.273-58.273-26.096-58.273-58.273 26.095-58.273 58.273-58.273z" fill="#ffd600"/><path d="m205.645 369.439c30.428 0 55.104 24.676 55.104 55.104s-24.676 55.104-55.104 55.104-55.104-24.676-55.104-55.104 24.676-55.104 55.104-55.104zm.88 35.766 16.36 12.684 14.633-3.193-.405-16.6-14.543-11.133-16.045 5.059zm17.334 15.066-7.126 17.205 7.565 12.574 13.595-3.635 7.731-15.979-7.463-13.287zm23.952 8.879 8.924.027c.137-1.527.212-3.072.212-4.635 0-11.469-3.769-22.063-10.132-30.607l-7.155 4.537.412 16.896zm-2.085 27.404-7.283-7.662-13.864 3.707-7.702 13.33 3.264 7.832c10.211-3.006 19.102-9.101 25.585-17.207zm-54.172 17.326 3.022-8.221-7.25-13.396-13.42-3.066-8.059 7.707c6.545 8.037 15.472 14.058 25.707 16.976zm-36.989-44.603 9.054-.553 7.234-13.691.606-16.637-7.204-4.158c-6.228 8.492-9.911 18.969-9.911 30.305 0 1.597.078 3.173.221 4.734zm32.32-52.494 2.489 8.039 15.885 4.939 16.723-5.271 2.074-7.842c-5.716-2.199-11.921-3.406-18.411-3.406-6.622 0-12.95 1.254-18.76 3.541zm27.698 62.039-18.018.113-6.984 12.17 7.34 13.561h17.756l7.571-13.102zm-20.326-.959-7.209-17.127-14.394-3.682-6.768 12.807 7.736 16.67 13.845 3.164zm-6.701-19.615 16.434-13.037v-13.188l-15.551-4.836-14.437 11.031-.597 16.41z" fill="#1b8f3a"/><path d="m260.683 141.531c-2.316 12.89-5.148 22.829-12.773 32.635 2.563.093 4.748-.528 7.289-3.475 1.124 3.11 3.468 5.897 5.552 6.416 1.964-.5 4.165-3.253 5.417-6.346 2.74 3.014 5.236 3.612 7.355 3.406-7.092-8.82-10.301-18.962-12.84-32.636z" fill="#1b8f3a"/><path d="m260.639 122.51c-1.124 3.328-2.638 6.199-2.78 8.642-.071 1.233.621 3.178 2.803 3.115s2.839-1.513 2.821-3.117c-.023-2.05-1.585-5.252-2.844-8.64z" fill="#1b8f3a"/><path d="m246.693 137.543c3.328 1.124 6.199 2.638 8.643 2.78 1.233.072 3.178-.621 3.115-2.802-.063-2.182-1.514-2.839-3.117-2.822-2.05.023-5.251 1.584-8.641 2.844z" fill="#1b8f3a"/><path d="m274.609 137.576c-3.328 1.124-6.2 2.638-8.643 2.78-1.233.071-3.179-.621-3.115-2.802s1.514-2.839 3.117-2.822c2.051.023 5.252 1.584 8.641 2.844z" fill="#1b8f3a"/><path d="m237.679 189.681c-2.317 12.89-5.148 22.828-12.773 32.635 2.563.094 4.748-.528 7.288-3.475 1.124 3.11 3.468 5.897 5.552 6.416 1.964-.5 4.166-3.253 5.417-6.346 2.74 3.014 5.237 3.612 7.355 3.406-7.091-8.82-10.301-18.963-12.839-32.636z" fill="#1b8f3a"/><path d="m237.634 170.659c-1.124 3.328-2.638 6.2-2.78 8.643-.071 1.233.621 3.178 2.803 3.115s2.839-1.513 2.821-3.117c-.023-2.051-1.584-5.252-2.844-8.641z" fill="#1b8f3a"/><path d="m223.689 185.693c3.327 1.124 6.198 2.638 8.642 2.78 1.233.072 3.178-.621 3.115-2.802-.063-2.182-1.514-2.839-3.117-2.821-2.05.022-5.251 1.583-8.64 2.843z" fill="#1b8f3a"/><path d="m251.604 185.726c-3.328 1.124-6.199 2.638-8.643 2.78-1.233.071-3.178-.621-3.115-2.802.063-2.182 1.514-2.839 3.117-2.822 2.051.022 5.252 1.584 8.641 2.844z" fill="#1b8f3a"/><path d="m310.252 141.531c-2.316 12.89-5.148 22.829-12.773 32.635 2.563.093 4.748-.528 7.289-3.475 1.124 3.11 3.468 5.897 5.552 6.416 1.964-.5 4.165-3.253 5.417-6.346 2.74 3.014 5.236 3.612 7.355 3.406-7.092-8.82-10.301-18.962-12.84-32.636z" fill="#1b8f3a"/><path d="m310.208 122.51c-1.124 3.328-2.638 6.199-2.78 8.642-.071 1.233.621 3.178 2.803 3.115s2.839-1.513 2.821-3.117c-.023-2.05-1.584-5.252-2.844-8.64z" fill="#1b8f3a"/><path d="m296.263 137.543c3.328 1.124 6.199 2.638 8.643 2.78 1.233.072 3.178-.621 3.115-2.802-.063-2.182-1.514-2.839-3.118-2.822-2.05.023-5.251 1.584-8.64 2.844z" fill="#1b8f3a"/><path d="m324.178 137.576c-3.327 1.124-6.199 2.638-8.642 2.78-1.233.071-3.178-.621-3.115-2.802s1.514-2.839 3.117-2.822c2.05.023 5.251 1.584 8.64 2.844z" fill="#1b8f3a"/><path d="m285.346 189.681c-2.316 12.89-5.148 22.828-12.773 32.635 2.563.094 4.748-.528 7.289-3.475 1.124 3.11 3.468 5.897 5.552 6.416 1.964-.5 4.165-3.253 5.416-6.346 2.741 3.014 5.237 3.612 7.356 3.406-7.092-8.82-10.301-18.963-12.84-32.636z" fill="#1b8f3a"/><path d="m285.302 170.659c-1.124 3.328-2.639 6.2-2.78 8.643-.071 1.233.621 3.178 2.803 3.115s2.839-1.513 2.821-3.117c-.023-2.051-1.584-5.252-2.844-8.641z" fill="#1b8f3a"/><path d="m271.356 185.693c3.328 1.124 6.199 2.638 8.643 2.78 1.233.072 3.178-.621 3.115-2.802-.063-2.182-1.514-2.839-3.118-2.821-2.05.022-5.25 1.583-8.64 2.843z" fill="#1b8f3a"/><path d="m299.271 185.726c-3.327 1.124-6.199 2.638-8.642 2.78-1.233.071-3.179-.621-3.115-2.802.063-2.182 1.514-2.839 3.117-2.822 2.051.022 5.252 1.584 8.64 2.844z" fill="#1b8f3a"/><path d="m333.014 189.681c-2.317 12.89-5.148 22.828-12.773 32.635 2.563.094 4.748-.528 7.288-3.475 1.125 3.11 3.468 5.897 5.553 6.416 1.963-.5 4.165-3.253 5.416-6.346 2.741 3.014 5.237 3.612 7.355 3.406-7.091-8.82-10.301-18.963-12.839-32.636z" fill="#1b8f3a"/><path d="m332.97 170.659c-1.125 3.328-2.639 6.2-2.78 8.643-.072 1.233.62 3.178 2.802 3.115s2.84-1.513 2.822-3.117c-.024-2.051-1.585-5.252-2.844-8.641z" fill="#1b8f3a"/><path d="m319.024 185.693c3.327 1.124 6.199 2.638 8.642 2.78 1.233.072 3.179-.621 3.115-2.802-.063-2.182-1.513-2.839-3.117-2.821-2.05.022-5.251 1.583-8.64 2.843z" fill="#1b8f3a"/><path d="m346.939 185.726c-3.328 1.124-6.199 2.638-8.643 2.78-1.233.071-3.178-.621-3.114-2.802.063-2.182 1.513-2.839 3.117-2.822 2.051.022 5.252 1.584 8.64 2.844z" fill="#1b8f3a"/><path d="m47.287 323.697 2.511 7.779 8.175-.016-6.623 4.791 2.541 7.77-6.604-4.818-6.603 4.818 2.541-7.77-6.623-4.791 8.174.016z" fill="#ffd600"/><path d="m92.61 323.697 2.51 7.779 8.175-.016-6.623 4.791 2.541 7.77-6.603-4.818-6.604 4.818 2.541-7.77-6.623-4.791 8.175.016z" fill="#ffd600"/><path d="m137.932 323.697 2.51 7.779 8.175-.016-6.623 4.791 2.542 7.77-6.604-4.818-6.604 4.818 2.541-7.77-6.622-4.791 8.174.016z" fill="#ffd600"/><path d="m183.254 323.697 2.511 7.779 8.174-.016-6.623 4.791 2.542 7.77-6.604-4.818-6.604 4.818 2.541-7.77-6.622-4.791 8.174.016z" fill="#ffd600"/><path d="m228.576 323.697 2.511 7.779 8.175-.016-6.623 4.791 2.541 7.77-6.604-4.818-6.603 4.818 2.541-7.77-6.623-4.791 8.174.016z" fill="#ffd600"/><path d="m273.898 323.697 2.511 7.779 8.175-.016-6.623 4.791 2.541 7.77-6.604-4.818-6.603 4.818 2.541-7.77-6.623-4.791 8.175.016z" fill="#ffd600"/><path d="m319.221 323.697 2.51 7.779 8.175-.016-6.623 4.791 2.542 7.77-6.604-4.818-6.604 4.818 2.541-7.77-6.622-4.791 8.174.016z" fill="#ffd600"/><path d="m364.543 323.697 2.511 7.779 8.175-.016-6.624 4.791 2.542 7.77-6.604-4.818-6.604 4.818 2.541-7.77-6.622-4.791 8.174.016z" fill="#ffd600"/><path d="m184.373 162.53h-.414l.013-32.039-1.782.027.006 7.16c-1.687-.856-4.41-1.329-6.463-.763-3.786 1.044-6.554 3.417-14.265 2.563 1.247.785 3.63 1.707 6.234 2.577-.809 1.339-2.131 2.161-3.148 2.814 6.165.691 9.371.935 11.735-.285 3-1.549 3.942-2.832 5.908-1.242v19.188h-.86l.002 4.563h-3.768v-4.563h-3.683l-.027 4.564-4.349-.001v-4.563h-3.454l-.001 4.563h-4.044l.001-4.561-3.6-.002.003 8.454-4.467 21.301 20.418.039 10.012-13.708zm-8.848 9.528h4.465v7.113h-4.465zm-7.227 0h4.466v7.113h-4.466zm-3.027 7.134-4.466-.021v-7.123l4.465.021v7.123z" fill="#1b8f3a"/><path d="m173.145 195.032-20.33-.001c-12.085 7.783-22.407 8.552-31.081 6.803-14.458-2.916-23.867-13.549-25.753-15.631l-12.604-13.903 7.313-7.064c2.885 12.43 10.454 22.831 22.206 28.41 7.952 3.776 17.688 5.17 28.283 1.92-12.394-2.316-29.336-9.899-36.647-24.343 15.247 13.174 30.404 19.638 43.334 20.598-7.672-8.576-9.518-15.894-7.767-22.431.38-1.417.85-2.812 1.443-4.181l10.59 26.668.629-2.893-10.22-25.826c.287-.527.599-1.049.934-1.567l10.504 21.734.571-2.844-10.003-20.421c.365-.483.755-.961 1.171-1.433l10.003 16.46.54-2.467-9.3-15.305c1.314-1.298 2.851-2.551 4.652-3.748l-9.071-3.525-2.088-3.437 17.516 6.78-.003.116c0 1.625 1.318 2.942 2.942 2.942s2.942-1.318 2.942-2.942c0-1.625-1.318-2.943-2.942-2.943-.964 0-1.82.466-2.356 1.184l-19.584-7.581-9.846-16.204v-5.281h3.877v-1.746h-3.877v-4.279h-1.746v4.279h-4.145v1.746h4.145v4.694l-9.092 8.783-20.529-7.946c.017-.128.024-.257.024-.389 0-1.625-1.318-2.942-2.942-2.942s-2.942 1.318-2.942 2.942 1.318 2.942 2.942 2.942c.866 0 1.644-.374 2.183-.969l19.883 7.696-1.912 1.846-15.006-5.831c-10.158 8.599-11.51 19.958-9.714 29.712l-8.063 7.79-3.579-3.949-1.388 1.257 16.154 17.822-13.471-.337c.625 12.126 4.104 22.96 10.432 32.234.737.011 1.815-.305 3.158-.493 11.831 2.763 25.283 3.127 35.094-1.646 12.351 4.59 22.961 3.966 31.029-2.141 2.676 1.965 4.548 2.677 7.222 3.21l-.802-12.04c2.763-2.666 5.572-5.609 7.087-9.889zm-43.866 10.699h4.815v4.815h-4.815zm8.807 0h4.815v4.815h-4.815zm-17.772 0h4.815v4.815h-4.815zm11.92-29.513c-3.815-10.395-.671-19.849 4.948-25.547l4.949 1.873c-7.293 5.611-10.277 12.876-9.897 23.674zm-13.314-5.099c-3.815-10.395-.671-19.849 4.948-25.547l4.949 1.873c-7.293 5.61-10.277 12.876-9.897 23.674zm-11.441-4.362c-3.815-10.395-.671-19.849 4.948-25.547l4.948 1.872c-7.292 5.611-10.276 12.877-9.896 23.675zm-10.437-3.959c-3.815-10.395-.671-19.849 4.948-25.547l4.949 1.873c-7.292 5.611-10.277 12.876-9.897 23.674zm31.151-33.009h-.112l.258.24zm-.716 0h-.095l-7.309 7.061 12.062 4.668zm8.764 13.319.06.022-.248-.407zm1.545 2.467-.415-.16 1.584 3.236.914.355zm-2.523-.976-.078-.03 1.224 3.091.411.16zm-2.251-.871-14.32-5.543-1.913 1.849 17.46 6.785z" fill="#1b8f3a"/><path d="m182.376 216.209c-8.92 5.757-18.464 7.278-28.902 5.234-17.975 8.171-34.344 8.167-60.216 5.905.542.359-.223.838.375 1.167 12.138 6.682 36.479 6.622 59.975-5.999 8.227 4.639 23.437 2.713 28.768-6.307z" fill="#1b8f3a"/><path d="m66.814 221.246 4.013 4.547c7.493-1.337 15.74-3.434 21.802-5.485 7.621 5.38 20.995 6.938 33.437 5.086 9.789 5.087 22.897 3.064 28.757.124-7.757.895-18.591 1.569-28.624-2.401-9.946 1.552-21.884.818-33.57-4.013-7.267 1.697-15.516 2.095-25.815 2.142z" fill="#1b8f3a"/></g><path d="m178.018 505.628h-3.191v-14.646l-4.543 4.492-1.909-2.027 5.594-5.287h4.049z" fill="#ffd600"/><path d="m198.892 500.574c0 1.898-.521 3.25-1.564 4.055-.765.59-1.898.945-3.401 1.063-.711.055-1.564.082-2.559.082-1.984 0-3.373-.227-4.169-.676-1.273-.727-1.91-2.17-1.91-4.336h3.168c.026.605.089 1.051.187 1.338.104.305.302.525.605.664.346.168.987.275 1.91.33.202-.035.47-.055.811-.055 1.049 0 1.79-.037 2.225-.111.408-.074.738-.252.99-.537.392-.438.579-1.191.563-2.262l-.046-3.002h-.05c-.524.906-1.34 1.434-2.449 1.576-.509.066-1.153.102-1.93.102-1.138 0-2.085-.082-2.838-.248-.738-.16-1.355-.49-1.844-.986-.761-.773-1.141-2.123-1.141-4.053 0-2.244.473-3.723 1.421-4.449.764-.582 1.836-.916 3.206-1.002.559-.035 1.224-.051 1.992-.051 1.934 0 3.366.195 4.302.588.628.264 1.137.674 1.521 1.232.668.961 1.002 2.916 1.002 5.871v4.867zm-3.191-6.637v-.635c0-1-.209-1.668-.629-1.998-.314-.244-.761-.4-1.343-.471-.229-.023-.493-.041-.796-.055-.202-.01-.489-.021-.866-.033-1.642-.012-2.628.174-2.962.559-.341.326-.512 1.076-.512 2.256 0 .992.155 1.645.466 1.955.276.277.823.447 1.634.514.435.035.909.055 1.421.055.551 0 1.048-.02 1.49-.055.78-.059 1.316-.227 1.607-.502.326-.299.49-.83.49-1.59z" fill="#ffd600"/><path d="m224.141 501.906h-2.05v3.723h-3.168v-3.723h-9.526v-3.633l7.732-10.113h4.962v11.227h2.05zm-5.218-2.52v-8.805l-.089.004-6.782 8.801z" fill="#1b8f3a"/><path d="m243.101 500.439c0 2.5-.715 4.076-2.143 4.725-.896.406-2.582.609-5.055.609-1.549 0-2.683-.094-3.4-.279-.556-.141-1.014-.334-1.378-.586-.642-.447-1.063-1.15-1.274-2.109-.205-.932-.307-1.941-.307-3.039h3.169c0 .834.042 1.463.132 1.883.085.424.24.734.466.936.229.201.508.326.846.381.354.057.773.084 1.258.084h1.533c1.13 0 1.895-.123 2.286-.367.447-.338.672-1.037.672-2.102 0-1.025-.17-1.719-.512-2.092-.3-.326-1.037-.49-2.213-.49h-2.144v-2.564c.933 0 1.584.016 1.957.047.893-.059 1.437-.113 1.63-.164.668-.26 1.002-1.129 1.002-2.609 0-.645-.101-1.109-.303-1.396-.368-.373-1.433-.559-3.188-.559-.698 0-1.246.027-1.638.08-.42.059-.741.172-.975.338-.233.172-.399.455-.493.859-.093.383-.136.963-.136 1.727h-3.191c0-1.623.214-2.854.646-3.691.201-.404.477-.746.822-1.037.605-.504 1.483-.811 2.633-.924.574-.055 1.241-.082 2.003-.082 2.213 0 3.777.168 4.689.506.399.146.745.346 1.04.594.493.406.831.947 1.01 1.615.209.791.303 1.684.271 2.67-.059 1.98-.967 3.068-2.726 3.262l-.042.09c.744.064 1.331.229 1.754.488.45.283.773.664.967 1.145.223.545.332 1.233.332 2.051z" fill="#1b8f3a"/><path d="m68.584 265.87h-20.436v14.349h19.282v8.57h-19.282v22.294h-8.313v-54.083h28.749z" fill="#ffd600"/><path d="m108.945 296.457c0 5.432-1.059 9.277-3.185 11.525-1.713 1.826-4.561 2.908-8.544 3.246-1.606.143-3.251.24-4.944.299l-3.426.133c-5.975 0-10.131-1.467-12.469-4.398-1.973-2.477-3.088-6.551-3.338-12.199-.116-2.512-.173-6.045-.173-10.588 0-8.545.327-14.218.972-17.018.461-2.02 1.193-3.822 2.203-5.408.952-1.502 2.28-2.668 3.974-3.498 2.693-1.334 6.427-1.995 11.198-1.995 4.801 0 8.246.36 10.333 1.069 2.944 1.01 4.898 3.245 5.87 6.694.712 2.561 1.068 6.178 1.068 10.853h-8.208v-3.39c0-2.164-.424-3.761-1.27-4.771-.895-1.045-3.3-1.575-7.216-1.575h-1.212c-3.896 0-6.446.733-7.658 2.2-1.203 1.478-1.809 4.495-1.809 9.05v14.134c0 5.348.712 8.664 2.145 9.951.943.854 1.954 1.371 3.012 1.563 1.145.217 2.742.313 4.781.313 2.463 0 4.108-.037 4.956-.133 1.51-.359 2.626-.996 3.357-1.887.606-.732.991-1.922 1.155-3.533.096-.949.173-2.729.221-5.336h8.207z" fill="#ffd600"/><path d="m174.004 311.083h-13.912l-18.366-45.213h-.338l.472 22.426.221 22.787h-8.37v-54.083h13.797l18.588 45.212h.231l-.693-45.212h8.37z" fill="#ffd600"/><path d="m218.859 311.083h-8.476l-2.771-10.18h-18.752l-2.781 10.18h-8.601l14.432-54.083h12.181zm-13.21-18.029-7.447-28.207-.048.012-7.456 28.194h14.951z" fill="#ffd600"/><path d="m263.195 311.083h-13.912l-18.367-45.213h-.337l.472 22.426.22 22.787h-8.37v-54.083h13.797l18.589 45.212h.231l-.693-45.212h8.37z" fill="#ffd600"/><path d="m300.131 265.87h-12.757v45.213h-8.313v-45.213h-12.643v-8.87h33.713z" fill="#ffd600"/><path d="m333.267 311.083h-29.855v-54.083h29.74v8.87h-21.426v13.556h20.329v8.437h-20.329v14.349h21.541z" fill="#ffd600"/><path d="m372.408 295.435c.038 2.885-.299 5.553-1.011 7.992-.693 2.32-1.684 4.086-2.983 5.287-2.02 1.875-6.167 2.813-12.411 2.813h-3.116c-2.887 0-5.033-.131-6.438-.408-2.492-.48-4.436-1.479-5.85-2.992-1.838-1.971-2.888-4.725-3.127-8.258-.116-1.514-.174-3.496-.174-5.947h8.255c0 .625-.028 1.129-.105 1.514.058 1.525.135 2.572.222 3.148.192 1.238.558 2.164 1.106 2.789.559.625 1.289 1.033 2.213 1.25 1.049.252 2.348.408 3.897.457.923.035 1.519.082 1.788.154 2.041-.119 3.311-.203 3.811-.264 1.674-.229 2.886-.625 3.637-1.189 1.279-.961 1.915-3.221 1.915-6.779 0-2.535-.404-4.314-1.213-5.348-.24-.324-.625-.602-1.145-.854-.702-.324-1.751-.541-3.155-.648-.511-.037-1.309-.084-2.406-.156l-4.358-.252c-3.137-.182-5.656-.65-7.552-1.406-1.165-.457-2.175-1.082-3.031-1.863-2.348-2.188-3.56-6.129-3.638-11.827-.076-6.093 1.021-10.323 3.282-12.691 2.164-2.271 6.475-3.4 12.94-3.4 4.137 0 6.879.095 8.245.3 2.588.372 4.618 1.321 6.071 2.824 1.463 1.514 2.435 3.522 2.916 6.033.326 1.635.48 4.039.48 7.223h-8.371v-2.163c0-2.007-.289-3.389-.856-4.183-.692-.961-2.434-1.442-5.205-1.442h-3.406c-3.28 0-5.416.481-6.397 1.442-.529.517-.895 1.154-1.116 1.923-.25.914-.365 2.104-.337 3.558.038 1.623.163 2.909.385 3.882.289 1.371 1.415 2.284 3.396 2.752.827.205 1.809.348 2.944.445l3.213.276c3.638.289 6.043.541 7.227.757 3.204.565 5.407 1.49 6.609 2.776 1.174 1.274 1.972 3.124 2.387 5.554.173 1.105.278 2.055.317 2.871.039.708.087 2.066.145 4.05z" fill="#ffd600"/></svg>