<svg height="25.66" viewBox="0 0 25.659 25.66" width="25.659" xmlns="http://www.w3.org/2000/svg"><path d="m19.232 12.63a6.61 6.61 0 1 1 -6.61-6.61 6.61 6.61 0 0 1 6.61 6.61" fill="#fff"/><path d="m5.862 12.63a6.76 6.76 0 1 0 6.76-6.76 6.768 6.768 0 0 0 -6.76 6.76m.3 0a6.46 6.46 0 1 1 6.46 6.46 6.467 6.467 0 0 1 -6.46-6.46" fill="#7f7d7c"/><path d="m0 12.63a12.629 12.629 0 1 0 12.63-12.63 12.645 12.645 0 0 0 -12.63 12.63" fill="#7f7d7c"/><path d="m.4 12.63a12.23 12.23 0 1 1 12.229 12.23 12.243 12.243 0 0 1 -12.229-12.23" fill="#fff"/><path d="m9.721 19.227 2.917.572 6.709-5.369.273-3.123z" fill="#344575"/><path d="m19.535 11.195-10.142 8.114 3.287.645 6.81-5.449.308-3.521zm-.083.435c-.046.523-.229 2.622-.238 2.727-.094.075-6.508 5.207-6.609 5.288-.112-.022-2.07-.406-2.547-.499.45-.36 8.908-7.127 9.394-7.516" fill="#fff"/><path d="m5.073 11.496h15.106v2.268h-15.106z" fill="#344575" transform="matrix(.781 -.625 .625 .781 -5.123 10.656)"/><path d="m17.724 6.913-11.907 9.527 1.597 1.996 12.02-9.617-1.597-1.996zm.068.315c.147.184 1.09 1.362 1.237 1.546-.218.175-11.351 9.083-11.57 9.257-.147-.184-1.09-1.362-1.237-1.546.219-.175 11.351-9.082 11.57-9.257" fill="#fff"/><path d="m15.752 5.9a19.738 19.738 0 0 0 -2.626-.804l-8.004 6.404.185.185v2.573z" fill="#344575"/><path d="m13.037 4.984-8.13 6.505s.206.206.257.256v2.813l10.874-8.701-.233-.091a20.053 20.053 0 0 0 -2.645-.81l-.068-.016zm.125.269a20.078 20.078 0 0 1 2.303.693c-.372.298-9.574 7.661-10.013 8.012v-2.333s-.08-.079-.113-.112c.242-.194 7.716-6.175 7.823-6.26" fill="#fff"/><path d="m4.326 12.63a8.303 8.303 0 1 0 8.303-8.303 8.313 8.313 0 0 0 -8.303 8.303m1.801 0a6.502 6.502 0 1 1 6.502 6.502 6.51 6.51 0 0 1 -6.502-6.502" fill="#d87043"/><path d="m5.87 12.63a6.76 6.76 0 1 0 6.76-6.76 6.767 6.767 0 0 0 -6.76 6.76m.3 0a6.46 6.46 0 1 1 6.46 6.46 6.467 6.467 0 0 1 -6.46-6.46" fill="#7f7d7c"/><path d="m4.062 12.63a8.568 8.568 0 1 0 8.568-8.568 8.577 8.577 0 0 0 -8.568 8.568m.3 0a8.267 8.267 0 1 1 8.268 8.267 8.277 8.277 0 0 1 -8.268-8.267" fill="#7f7d7c"/><g fill="#344575"><path d="m2.445 18.372c-.087.015-.087.015-.115-.028-.007-.012-.03-.049-.046-.08-.062-.105-.102-.168-.159-.257-.034-.055-.085-.128-.12-.177-.019-.029-.043-.062-.05-.074-.039-.06-.037-.101.009-.13.043-.028.087-.003.152.081.076.1.135.104.283.002l1.201-.813c.209-.141.221-.172.132-.35-.027-.055-.023-.094.014-.118.044-.027.092-.001.141.076a.536.536 0 0 1 .035.063c.109.196.192.341.242.418.052.084.124.183.201.287.019.029.043.062.053.076.036.058.033.104-.004.127-.052.033-.078.017-.169-.094-.077-.096-.14-.101-.265-.018l-1.174.772 1.47-.254c.064-.013.129-.026.196-.04.174-.042.196-.04.24.029a.101.101 0 0 1 -.011.128l-1.026 1.471.868-.505c.079-.047.179-.106.274-.166.169-.107.202-.188.128-.319-.072-.119-.076-.157-.024-.19.04-.025.085-.005.123.055.007.012.025.045.04.075.031.062.07.13.11.193a1.942 1.942 0 0 0 .144.202c.025.033.051.068.061.083q.048.078-.009.114c-.043.027-.067.014-.156-.082-.08-.087-.129-.088-.279-.001l-1.255.707c-.034.017-.063.035-.103.06l-.051.033c-.084.053-.09.093-.027.206.056.102.059.144.013.173s-.088.008-.135-.067l-.19-.319c-.042-.066-.127-.193-.159-.238l-.02-.031c-.025-.04-.025-.053.008-.102l.849-1.222z"/><path d="m2.003 16.042c-.095-.3.2-.652.669-.8.419-.133.769-.044.851.216.094.298-.207.658-.673.805-.417.131-.765.04-.847-.221m-.1.013a.941.941 0 0 0 1.172.644.873.873 0 0 0 .552-.523 1.244 1.244 0 0 0 -.001-.72.941.941 0 0 0 -1.168-.657.956.956 0 0 0 -.555 1.256"/><path d="m1.772 13.109c-.207.02-.221.037-.233.258a.052.052 0 0 1 -.048.052c-.041.004-.065-.025-.071-.087a.454.454 0 0 1 -.003-.06c-.005-.099-.008-.164-.014-.221-.004-.041-.012-.093-.021-.136-.006-.031-.012-.064-.013-.08-.005-.052.013-.08.052-.083.044-.005.059.02.086.132.022.095.063.111.221.096l1.385-.136c.077-.008.097.003.103.065.005.047-.011.077-.071.133l-1.29 1.253.952-.094c.184-.018.245-.034.285-.074.031-.035.031-.032.034-.189a.069.069 0 0 1 .056-.074c.033-.003.057.026.062.075.001.01.001.034.003.055a1.859 1.859 0 0 0 .012.231c.006.06.015.124.024.17a.486.486 0 0 1 .016.077c.005.046-.014.075-.05.078-.041.004-.06-.023-.073-.11-.019-.116-.081-.133-.389-.103l-.733.072c-.302.037-.222.027-.243.032-.123.017-.152.046-.151.135.003.088-.01.113-.054.118-.036.003-.057-.024-.063-.086l-.02-.259-.026-.241c-.009-.088-.007-.098.05-.154l.934-.915z"/><path d="m2.869 11.608c.189.015.206.004.255-.183.008-.031.027-.047.053-.045.039.003.055.028.052.072l-.002.015c-.005.041-.003.016-.011.08l-.002.024-.002.02-.004.021-.002.023c-.009.075-.017.145-.025.241-.007.088-.009.145-.013.262l-.002.021-.001.024v.026l-.002.023a.31.31 0 0 1 -.001.047c-.004.044-.024.066-.063.063-.036-.003-.041-.009-.053-.12-.011-.113-.051-.142-.214-.155l-1.239-.1c-.042-.004-.047.004-.053.076-.013.164.027.243.196.382.061.049.089.088.087.119a.055.055 0 0 1 -.061.047.225.225 0 0 1 -.034-.008l-.377-.14c-.041-.014-.06-.039-.057-.07a.053.053 0 0 1 .046-.053c.061-.016.067-.021.072-.083l.085-1.061c.009-.101-.004-.136-.058-.177-.04-.029-.051-.046-.049-.074.003-.036.03-.052.071-.044l.419.078c.059.013.079.03.076.069-.003.034-.031.057-.09.076-.233.073-.262.107-.28.33-.004.057.002.071.041.074z"/><path d="m2.101 10.088c-.237-.06-.282-.103-.249-.234a.358.358 0 0 1 .453-.224c.232.058.349.213.301.402-.03.119-.076.164-.149.145zm.583.146c-.03-.008-.038-.02-.032-.045a.389.389 0 0 1 .045-.094.867.867 0 0 0 .123-.266.541.541 0 0 0 -.397-.65c-.305-.076-.545.11-.643.501-.016.063-.04.181-.058.286-.025.128-.045.233-.057.281-.015.058-.026.101-.057.203-.027.087-.031.102-.033.112a.271.271 0 0 0 -.014.045c-.011.043.001.07.039.079.025.007.047-.007.06-.036.079-.176.097-.184.281-.138l1.037.26c.159.04.193.075.186.189-.006.108-.003.117.033.126.038.009.061-.009.072-.052a.416.416 0 0 0 .009-.046l.005-.023.004-.026.006-.022.005-.021c.023-.114.035-.17.055-.251.023-.091.042-.156.062-.228l.006-.023.008-.02.005-.02.006-.022c.018-.063.012-.038.024-.078l.004-.015c.011-.043-.001-.07-.039-.079-.025-.007-.047.007-.06.036-.079.176-.097.185-.281.138z"/><path d="m3.572 8.72c.188.083.289.047.363-.122a.466.466 0 0 0 -.058-.514c-.053-.066-.065-.097-.049-.135a.053.053 0 0 1 .075-.027.894.894 0 0 1 .115.073 1.437 1.437 0 0 0 .195.12c.034.018.04.032.027.06-.005.012-.025.052-.04.085-.048.098-.113.237-.192.418-.071.162-.168.384-.202.466-.05.114-.032.074-.113.283a.275.275 0 0 1 -.016.044c-.018.04-.044.054-.08.039-.033-.015-.036-.022-.011-.13.026-.111-.001-.152-.152-.218l-.978-.43c-.174-.076-.192-.073-.301.09a.05.05 0 0 1 -.065.025c-.036-.015-.043-.044-.025-.085l.006-.014.009-.013.006-.015.009-.021.013-.023.01-.021.008-.019.012-.02.008-.019c.039-.075.068-.141.127-.277.043-.098.093-.218.124-.295.201-.509.141-.353.193-.492l.009-.019c.013-.031.031-.037.062-.024l.091.043.165.067c.071.031.081.047.062.09-.012.028-.034.039-.107.049a.354.354 0 0 0 -.325.235c-.099.227-.099.252.001.296l.381.168c.069.03.098.023.12-.027.119-.272.119-.317.008-.414-.055-.048-.072-.08-.058-.114a.06.06 0 0 1 .088-.024l.24.12.211.081c.045.02.061.05.046.083s-.043.046-.101.043c-.15-.008-.225.027-.267.122l-.018.049c-.069.174-.069.168.01.203z"/><path d="m3.227 7.133c-.16-.103-.18-.1-.311.041a.051.051 0 0 1 -.068.015c-.033-.021-.036-.051-.012-.088a.246.246 0 0 1 .019-.025l.009-.013.012-.02.017-.02.012-.02.012-.017.013-.017.013-.019c.04-.058.083-.12.13-.192.053-.083.081-.13.141-.234l.011-.017.013-.02.012-.023.013-.02a.322.322 0 0 1 .023-.04c.024-.038.052-.048.085-.026.03.019.03.029-.01.13-.043.105-.022.149.116.238l.878.567c.151.097.251.081.336-.05a.459.459 0 0 0 .008-.508c-.033-.059-.038-.089-.019-.118a.047.047 0 0 1 .072-.016.996.996 0 0 1 .146.123 1.45 1.45 0 0 0 .118.101c.045.035.048.05.02.093l-.017.026c-.05.073-.044.065-.133.187-.066.093-.134.195-.239.356-.098.154-.176.28-.262.426-.031.054-.04.073-.046.081a.345.345 0 0 1 -.023.041c-.024.037-.052.047-.085.026-.03-.02-.03-.029.01-.13.043-.105.022-.15-.116-.239z"/><path d="m4.178 5.762c-.142-.126-.162-.127-.314-.007a.05.05 0 0 1 -.069.004c-.029-.026-.028-.055.002-.089l.022-.021.011-.012.015-.017.019-.018.016-.017.014-.016.016-.014.015-.017c.049-.051.101-.106.158-.17.065-.074.1-.117.175-.21l.014-.015.016-.018.015-.021.015-.017a.373.373 0 0 1 .029-.037c.03-.033.059-.039.088-.013.027.024.026.034-.029.127-.059.098-.045.145.078.254l.782.693c.134.12.235.119.339.002a.458.458 0 0 0 .086-.5c-.024-.064-.024-.095-.002-.12a.048.048 0 0 1 .074-.005 1.065 1.065 0 0 1 .126.144 1.525 1.525 0 0 0 .101.117c.04.042.041.057.006.096l-.021.023c-.06.065-.054.057-.159.165-.08.082-.163.171-.291.315-.121.137-.217.249-.324.381-.039.048-.051.066-.058.073a.282.282 0 0 1 -.029.037c-.03.033-.058.039-.088.013-.027-.024-.026-.034.03-.127.058-.098.044-.145-.078-.253z"/><path d="m6.364 5.076c.125.143.145.147.31.047a.052.052 0 0 1 .07.005c.026.029.02.059-.013.088l-.012.01c-.033.025-.014.008-.064.049l-.018.015-.016.014-.017.012-.018.015c-.053.043-.115.093-.174.145-.098.085-.102.088-.274.252a.429.429 0 0 1 -.033.032c-.033.03-.063.031-.089.002-.024-.028-.021-.037.045-.123.071-.089.063-.137-.044-.261l-.702-.806c-.125-.143-.145-.146-.31-.047a.051.051 0 0 1 -.07-.005c-.026-.029-.02-.059.014-.088a.207.207 0 0 1 .025-.018l.011-.01.018-.016.022-.015.017-.015.016-.014.017-.012.018-.015c.051-.041.115-.093.168-.139.104-.091.104-.091.28-.258a.427.427 0 0 1 .033-.032c.034-.029.063-.031.089-.002.024.028.021.037-.046.123-.07.089-.062.137.045.261z"/><path d="m7.166 4.416c.113.172.217.197.371.095a.466.466 0 0 0 .231-.463c-.009-.084-.002-.117.032-.14a.053.053 0 0 1 .077.018.668.668 0 0 1 .057.125 1.544 1.544 0 0 0 .099.206c.019.034.016.048-.01.065-.011.008-.049.03-.08.05-.094.055-.223.138-.389.246-.147.097-.349.23-.422.281-.104.069-.067.045-.248.176a.265.265 0 0 1 -.038.028c-.037.024-.066.022-.088-.01-.02-.031-.019-.038.061-.116.082-.078.081-.127-.009-.264l-.587-.893c-.105-.159-.122-.166-.301-.089a.051.051 0 0 1 -.069-.014c-.021-.032-.012-.06.025-.085l.013-.009.015-.006.013-.009.019-.012.024-.012.019-.013.017-.012.021-.01.018-.012c.072-.041.133-.081.257-.163.089-.058.196-.132.264-.18.445-.318.31-.22.43-.308l.017-.011c.028-.019.046-.015.065.013l.054.087.101.144c.043.066.043.084.004.11-.026.017-.05.014-.117-.016a.355.355 0 0 0 -.401.02c-.206.136-.22.158-.16.249l.229.347c.042.064.07.073.115.043.248-.163.273-.201.232-.343-.021-.07-.017-.107.014-.127a.059.059 0 0 1 .086.028l.136.231.133.183c.027.041.024.074-.006.094s-.061.016-.109-.018c-.121-.089-.203-.1-.29-.043l-.042.031c-.152.109-.149.104-.102.176z"/><path d="m8.122 2.634c-.046-.105-.026-.153.076-.197a.322.322 0 0 1 .415.195.337.337 0 0 1 -.205.465c-.064.027-.078.022-.111-.055zm-.525-.055-.023.007-.019.008-.021.009-.025.008-.021.01-.015.005a.184.184 0 0 0 -.03.011c-.04.017-.054.043-.039.079a.051.051 0 0 0 .065.026c.188-.044.206-.035.281.139l.422.982c.065.151.057.2-.038.263-.089.061-.095.069-.08.102.015.036.044.044.085.026a.315.315 0 0 0 .042-.021l.021-.009.023-.012.022-.01.019-.008c.103-.05.154-.075.224-.105.088-.038.145-.062.219-.088l.022-.01.02-.005.019-.009.022-.009c.06-.023.036-.013.075-.027l.015-.006c.041-.018.055-.043.039-.079a.05.05 0 0 0 -.064-.026c-.188.044-.206.035-.281-.14l-.176-.409c-.019-.045-.016-.058.022-.074.079-.034.119-.018.271.11l.491.417c.042.039.057.041.1.022a.155.155 0 0 0 .032-.016c.025-.014.06-.032.102-.053.035-.017.061-.029.066-.031l.237-.087a.058.058 0 0 0 .041-.077c-.013-.029-.034-.04-.078-.029-.093.02-.11.013-.225-.082l-.362-.303a.329.329 0 0 0 -.34-.092c.277-.167.364-.352.271-.569a.446.446 0 0 0 -.643-.199c-.065.028-.159.073-.257.121-.125.066-.24.12-.307.149-.083.036-.126.055-.205.083z"/><path d="m11.887 1.874c.064-.007.073-.021.066-.092l-.046-.45c-.026-.247-.041-.266-.293-.285-.042-.006-.067-.024-.071-.061-.005-.047.023-.074.081-.08a.277.277 0 0 1 .04-.001l.051-.005h.031l.034-.003.027-.003.027.001.027-.003c.099-.004.187-.013.323-.026.108-.012.185-.023.334-.045l.027-.003.03-.003.034-.007.03-.003a.48.48 0 0 1 .06-.009c.058-.006.091.014.096.062.005.05-.005.058-.141.096-.146.042-.171.1-.149.316l.143 1.391c.026.247.041.266.296.284a.067.067 0 0 1 .071.061c.005.047-.023.074-.081.08l-.02.002c-.054.002-.061.003-.221.013-.081.005-.193.013-.274.021-.193.02-.19.02-.503.065a.433.433 0 0 1 -.057.01c-.058.006-.091-.015-.096-.063-.005-.05.001-.058.141-.099.142-.042.168-.096.145-.313l-.059-.582c-.015-.104-.018-.107-.076-.101l-.724.074c-.095.01-.097.013-.089.101l.062.599c.025.247.04.263.292.285a.068.068 0 0 1 .072.061c.004.047-.024.074-.081.08l-.02.002c-.055.002-.058.003-.218.012-.088.006-.19.013-.292.023-.169.017-.182.019-.486.064a.456.456 0 0 1 -.06.009c-.058.006-.091-.014-.095-.062-.006-.05.004-.058.14-.1.143-.042.171-.096.149-.312l-.143-1.391c-.025-.247-.041-.266-.296-.284-.045-.006-.067-.024-.071-.065-.004-.04.027-.071.081-.076a.286.286 0 0 1 .041-.001l.02-.002.03-.003h.035l.03-.003.027-.003h.028l.03-.003c.089-.005.193-.013.295-.023.169-.018.179-.019.483-.063a.405.405 0 0 1 .057-.01c.057-.006.09.015.095.062.005.051-.001.059-.141.097-.142.042-.167.099-.145.316l.046.45c.007.067.026.083.097.075z"/><path d="m13.951 1.943a.18.18 0 0 1 .166.212c-.015.137-.088.158-.421.121-.08-.009-.101-.022-.096-.062a.332.332 0 0 1 .351-.271m.41.514c.094.01.132-.016.14-.091.029-.255-.225-.487-.58-.526a.733.733 0 0 0 -.842.607.741.741 0 0 0 .677.798.847.847 0 0 0 .571-.14c.055-.037.087-.075.09-.104a.044.044 0 0 0 -.041-.048.17.17 0 0 0 -.085.031.47.47 0 0 1 -.31.08.534.534 0 0 1 -.434-.625c.007-.059.022-.071.073-.065zm-.619-.787c.009.015.012.018.02.019a.115.115 0 0 0 .05-.017l.583-.253c.034-.012.049-.024.051-.04a.097.097 0 0 0 -.01-.034l-.057-.096c-.016-.026-.016-.029-.03-.03a.096.096 0 0 0 -.054.024l-.535.339c-.041.026-.041.023-.042.031 0 .005 0 .005.011.028z"/><path d="m14.822 2.563c.038-.149.021-.193-.091-.23-.05-.015-.067-.034-.059-.065.009-.037.009-.037.161-.042a1.434 1.434 0 0 0 .396-.116c.063-.031.084-.037.11-.03.024.006.03.024.022.056l-.047.183c-.008.031-.009.045.002.047a.026.026 0 0 0 .019-.009.541.541 0 0 1 .418-.107.238.238 0 0 1 .189.275.24.24 0 0 1 -.455.022c-.034-.064-.048-.085-.072-.091a.114.114 0 0 0 -.104.06.777.777 0 0 0 -.094.257l-.09.348c-.052.202-.05.205.102.28.042.019.057.045.049.077-.008.034-.042.045-.099.03a.463.463 0 0 1 -.05-.015c-.126-.039-.241-.071-.303-.087-.056-.014-.179-.043-.301-.069a.394.394 0 0 1 -.05-.01c-.058-.015-.082-.04-.073-.075.008-.031.034-.046.081-.043.168.01.172.005.223-.196z"/><path d="m16.584 3.449a.327.327 0 0 1 -.117.168.27.27 0 0 1 -.221.013.161.161 0 0 1 -.074-.218.248.248 0 0 1 .202-.147 1.183 1.183 0 0 1 .275-.029c.012.005.015.021.005.043zm.148-.357c-.011.027-.011.027-.121.031l-.077.003-.081.005-.078.003c-.125.006-.221.013-.295.021a.364.364 0 0 0 -.328.22.284.284 0 0 0 .166.382.583.583 0 0 0 .24.041.952.952 0 0 0 .295-.067.028.028 0 0 1 .02-.001.026.026 0 0 1 .013.026l.006.09c.002.016.005.031.008.045a.219.219 0 0 0 .133.137.5.5 0 0 0 .347-.005c.064-.021.101-.046.113-.074a.042.042 0 0 0 -.021-.055.044.044 0 0 0 -.032-.001c-.106.017-.097.015-.122.004-.046-.022-.047-.063-.005-.163l.273-.658c.079-.19-.024-.335-.331-.462a.925.925 0 0 0 -.56-.054.467.467 0 0 0 -.272.176.074.074 0 0 0 .05.097.722.722 0 0 0 .251.037c.069-.004.099-.02.173-.092.093-.09.183-.123.26-.091.087.036.096.113.034.263z"/><path d="m17.562 3.399c.11-.177.11-.183-.013-.297-.034-.031-.041-.061-.024-.089.019-.029.054-.03.104.002a.291.291 0 0 1 .042.029l.055.034.024.018c.079.052.142.095.172.113l.084.053a.695.695 0 0 1 .068.039c.042.025.041.032 0 .098l-.408.656c-.097.156-.088.276.026.347a.347.347 0 0 0 .244.034c.048-.012.067-.028.11-.097l.287-.461c.11-.177.11-.183-.013-.297-.037-.033-.044-.062-.027-.09.019-.03.054-.03.104.001.005.003.026.016.043.029l.027.018.027.019.027.017c.065.044.116.079.121.082.037.023.071.044.148.089l.062.038c.032.02.034.027.004.076l-.453.729c-.087.14-.088.162.006.236.031.026.038.046.024.069-.019.03-.052.028-.15-.01-.085-.031-.19-.061-.309-.091-.093-.019-.103-.022-.12-.033-.025-.015-.026-.029-.006-.061l.061-.098c.016-.026.018-.044.004-.052-.014-.009-.002-.008-.112 0a.676.676 0 0 1 -.406-.087.405.405 0 0 1 -.112-.613z"/><path d="m19.012 5.148c-.132.161-.131.165-.026.296.031.036.034.066.013.091-.022.027-.057.023-.103-.014-.006-.006-.025-.021-.038-.035-.101-.089-.189-.165-.246-.211-.037-.031-.142-.112-.237-.183a.451.451 0 0 1 -.042-.031c-.046-.037-.057-.071-.035-.098.021-.025.051-.028.092-.005.148.079.154.076.285-.085l.772-.946c.097-.119.096-.144 0-.261-.024-.027-.026-.049-.007-.072.024-.029.055-.021.155.036a1.512 1.512 0 0 0 .407.168.084.084 0 0 1 .038.017c.023.019.019.05-.012.088z"/><path d="m19.802 4.891c.064-.066.07-.087.039-.117l-.064-.062c-.035-.034-.045-.063-.026-.082.019-.02.055-.014.117.012a.751.751 0 0 0 .497.043c.08-.024.112-.022.137.002.031.03.03.051-.008.09l-.157.161c-.047.048-.052.077-.015.112l.151.148c.042.041.042.053.005.091-.042.043-.063.045-.098.011l-.137-.134c-.043-.041-.062-.041-.105.003l-.385.395c-.177.182-.218.281-.146.351a.217.217 0 0 0 .108.048c.07.013.076.015.088.026a.041.041 0 0 1 0 .054.245.245 0 0 1 -.165.03.573.573 0 0 1 -.348-.154c-.166-.162-.155-.343.033-.537z"/><path d="m22.322 6.871c-.051.035-.089.032-.118-.01-.027-.039-.02-.077.029-.139.173-.229.202-.405.091-.568a.378.378 0 0 0 -.502-.157.295.295 0 0 0 -.104.331c.007.028.012.053.018.082l.027.093.029.091.025.09a.743.743 0 0 1 -.227.895.876.876 0 0 1 -1.225-.331 1.353 1.353 0 0 1 -.246-.659c.003-.031.016-.048.073-.091a1.03 1.03 0 0 1 .111-.079c.057-.043.09-.066.105-.076.132-.09.175-.099.212-.046a.1.1 0 0 1 -.013.116c-.008.018.028-.032-.119.151a.46.46 0 0 0 .001.6.436.436 0 0 0 .597.194.361.361 0 0 0 .148-.38c-.007-.053-.018-.111-.063-.336-.104-.497-.058-.738.172-.895a.865.865 0 0 1 1.139.373 1.22 1.22 0 0 1 .186.45c.004.047-.011.073-.065.11z"/><path d="m22.05 8.219a.218.218 0 0 1 .141-.03.251.251 0 0 1 .157.14c.079.177-.072.416-.338.535-.294.13-.557.085-.643-.107-.059-.134-.002-.233.18-.314zm-.878.391c.039-.018.055-.016.065.006a.083.083 0 0 1 .006.021.831.831 0 0 0 .07.262.711.711 0 0 0 .947.362.635.635 0 0 0 .354-.832.402.402 0 0 0 -.157-.193c-.168-.106-.16-.101-.165-.113-.008-.017.003-.031.041-.048l.135-.06c.03-.013.04-.03.029-.055-.01-.022-.02-.026-.105-.056a.807.807 0 0 1 -.312-.249c-.106-.133-.102-.129-.139-.112a.047.047 0 0 0 -.022.063c.051.16.043.176-.12.248l-1.041.464c-.155.069-.208.064-.273-.035-.065-.092-.07-.099-.107-.082-.037.016-.045.046-.026.088a.345.345 0 0 0 .022.044l.01.022.014.023.009.023.009.019c.056.112.079.157.113.234.031.069.058.137.085.204l.01.023.007.021.009.019.009.022.009.026.01.023.007.014a.269.269 0 0 0 .01.031c.019.042.046.056.083.04a.053.053 0 0 0 .026-.068c-.048-.195-.039-.213.141-.294z"/><path d="m23.074 9.997c.051.207-.182.432-.544.522-.328.081-.575.014-.621-.169-.05-.202.205-.441.572-.532.296-.073.549.003.593.179m.108.02a.765.765 0 0 0 -.904-.627.736.736 0 0 0 -.479.932.774.774 0 0 0 .908.631.744.744 0 0 0 .475-.936"/><path d="m22.842 11.292c.153-.014.188-.044.186-.163-.002-.052.009-.075.042-.078.037-.003.037-.003.094.138a1.351 1.351 0 0 0 .242.333c.05.05.063.068.065.095.003.024-.013.036-.045.039l-.188.017c-.033.003-.046.007-.045.018 0 .003.006.01.015.015a.54.54 0 0 1 .242.358.227.227 0 1 1 -.369-.151c.049-.053.063-.074.061-.098-.003-.032-.041-.064-.091-.078a.745.745 0 0 0 -.274-.002l-.358.032c-.207.019-.21.022-.229.189-.004.047-.024.07-.056.073-.035.004-.057-.024-.062-.084a.346.346 0 0 1 -.002-.051c-.007-.132-.015-.25-.021-.315-.005-.057-.019-.183-.036-.306a.354.354 0 0 1 -.007-.051c-.006-.059.01-.091.045-.094.033-.003.056.017.068.062.048.161.053.163.26.144z"/><path d="m23.182 12.652c.092.002.111-.008.112-.051l.003-.089c.001-.049.015-.075.042-.075.027.001.048.031.071.094a.746.746 0 0 0 .305.395c.072.042.093.067.092.102-.001.044-.018.056-.072.055l-.224-.006c-.067-.002-.092.014-.094.065l-.005.211c-.002.059-.01.067-.064.065-.06-.001-.075-.015-.074-.064l.005-.191c.002-.06-.012-.074-.074-.075l-.55-.015c-.254-.007-.355.03-.358.131a.222.222 0 0 0 .038.111c.039.061.041.066.04.082a.039.039 0 0 1 -.038.037.238.238 0 0 1 -.135-.101.577.577 0 0 1 -.123-.36c.006-.232.147-.347.417-.34z"/><path d="m21.822 16.162a.193.193 0 0 1 -.153-.145 1.386 1.386 0 0 1 .009-.731 1.811 1.811 0 0 1 .387-.754 1.164 1.164 0 0 1 1.105-.328 1.34 1.34 0 0 1 .801 1.74 2.127 2.127 0 0 1 -.23.538.102.102 0 0 1 -.105.057l-.282-.026c-.027-.004-.044-.005-.054-.007a.075.075 0 0 1 -.052-.087c.011-.04.049-.068.135-.102.283-.103.39-.206.448-.433.117-.455-.217-.888-.804-1.039a.922.922 0 0 0 -1.214.518c-.066.256.018.461.297.715.049.044.063.072.053.108-.012.05-.055.067-.107.05z"/><path d="m21.562 16.75c-.191-.083-.194-.082-.292.055-.026.039-.055.05-.084.038-.032-.015-.038-.049-.014-.104a.473.473 0 0 1 .023-.046c.059-.121.107-.227.137-.294.019-.044.069-.167.112-.278.005-.018.015-.04.018-.048.023-.054.053-.074.085-.06.03.013.041.041.03.087-.036.164-.032.168.158.251l1.12.488c.141.061.165.054.251-.071.019-.03.041-.038.068-.026.034.015.035.048.007.159a1.505 1.505 0 0 0 -.052.437.098.098 0 0 1 -.006.042c-.012.027-.043.031-.088.012z"/><path d="m21.932 17.42c.178.107.185.107.297-.017.031-.036.06-.043.088-.026.03.018.031.053 0 .104a.296.296 0 0 1 -.028.043l-.034.055-.017.024c-.051.08-.092.144-.11.174l-.052.085c-.013.027-.035.064-.038.069-.025.041-.031.041-.098.001l-.662-.398c-.158-.094-.277-.084-.347.032a.347.347 0 0 0 -.029.244c.012.048.028.067.098.109l.465.279c.178.107.185.108.297-.017.032-.038.062-.045.09-.028.03.018.031.053 0 .104a.353.353 0 0 1 -.029.043l-.016.027-.019.027-.017.028c-.042.065-.077.117-.08.122-.022.037-.043.072-.086.149l-.038.063c-.019.032-.027.034-.075.005l-.737-.442c-.141-.084-.163-.085-.236.01-.025.032-.045.039-.068.025-.03-.018-.029-.052.008-.149.029-.087.058-.192.085-.312a.371.371 0 0 1 .031-.119c.016-.026.029-.027.061-.008l.1.06c.026.015.044.017.052.003s.007-.002-.002-.112a.669.669 0 0 1 .081-.408.405.405 0 0 1 .611-.121z"/><path d="m20.711 19.309c.057.05.061.053.063.08a.239.239 0 0 1 -.066.167c-.143.166-.436.137-.667-.062-.233-.202-.31-.476-.174-.633a.21.21 0 0 1 .169-.076c.059.002.097.024.234.142zm.701.606c.07.06.085.067.11.034.016-.018.018-.03.051-.113a1.261 1.261 0 0 1 .157-.339c.05-.078.059-.113.034-.134-.02-.018-.043-.016-.075.013-.106.094-.125.095-.233.002l-1.073-.928a1.114 1.114 0 0 1 -.116-.11c-.014-.016-.027-.031-.035-.038a.052.052 0 0 0 -.075 0c-.014.016-.012.039.004.078.042.104.051.14.036.156a.061.061 0 0 1 -.025.017.745.745 0 0 0 -.383.245.767.767 0 0 0 .003 1.095.64.64 0 0 0 .921-.057c.06-.07.06-.07.108-.229.017-.056.031-.098.032-.107a.079.079 0 0 1 .013-.036c.011-.012.011-.012.054.025z"/><path d="m10.44 23.583c-.056.22-.038.262.133.303.106.027.144.06.13.105-.014.043-.055.056-.126.038-.01-.003-.048-.016-.077-.026-.148-.052-.301-.1-.453-.139-.136-.035-.254-.059-.364-.079-.028-.004-.059-.009-.07-.012-.065-.017-.087-.042-.076-.083.012-.049.052-.059.131-.039.214.058.271.035.31-.117l.285-1.11c.035-.135.03-.154-.023-.17a.099.099 0 0 0 -.042-.005l-.202.009a.509.509 0 0 1 -.109-.005.057.057 0 0 1 -.048-.07c.012-.049.059-.06.218-.06a2.84 2.84 0 0 0 .666-.049.114.114 0 0 1 .053-.004c.035.009.042.037.025.105z"/><path d="m11.468 22.707c-.033.326.118.645.316.665a.229.229 0 0 0 .083-.009.159.159 0 0 1 .028-.002.044.044 0 0 1 .032.045c-.007.076-.178.126-.365.107a.584.584 0 0 1 -.496-.641.706.706 0 0 1 .774-.615.79.79 0 0 1 .683.902 1.456 1.456 0 0 1 -.929 1.126 2.684 2.684 0 0 1 -.493.147.269.269 0 0 1 -.077.007.057.057 0 0 1 -.052-.064c.003-.034.024-.046.116-.068a1.348 1.348 0 0 0 .993-1.147c.041-.404-.111-.774-.325-.796-.151-.015-.266.123-.288.343"/><path d="m13.732 23.026c.009-.026.04-.127.058-.19a.202.202 0 0 0 .013-.08c-.002-.025-.014-.033-.05-.03l-.793.064c-.075.006-.128.013-.148.015-.035.008-.066.013-.08.015-.036.002-.053-.027-.058-.1-.001-.005-.005-.059-.014-.134-.005-.025-.01-.094-.013-.128-.009-.106-.006-.112.044-.116a.601.601 0 0 1 .082.002 2.086 2.086 0 0 0 .379.001l.955-.077c.07-.006.078-.003.08.022s.005.019-.051.161a.329.329 0 0 0 -.019.047l-.076.18-.072.18-.073.18c-.078.186-.191.49-.33.889-.049.136-.085.243-.105.306-.038.122-.041.125-.083.128l-.033.003-.02-.002c-.053.005-.059.005-.063-.017-.001-.003-.001-.006.002-.014a.193.193 0 0 1 .007-.043z"/><path d="m15.562 23.521c.036.144.055.154.236.135a.056.056 0 0 1 .065.044c.011.044-.022.075-.095.093l-.451.092c-.016.004-.096.029-.214.067-.03.007-.07.02-.083.024-.065.016-.094.006-.105-.038-.012-.049.005-.062.127-.106.087-.031.112-.083.087-.184l-.053-.214c-.02-.082-.024-.084-.103-.064l-.589.146c-.109.027-.102.031-.133-.091a.153.153 0 0 1 .019-.098l.654-1.544c.028-.07.043-.08.155-.107.021-.006.043-.002.048.008s-.012.046-.081.184c-.118.237-.218.45-.298.64l-.239.57a1.638 1.638 0 0 0 -.08.193c-.01.028-.012.032-.01.04.004.013.019.015.065.004l.44-.109c.084-.021.088-.028.068-.11l-.1-.405c-.022-.089-.021-.095.018-.125a.05.05 0 0 1 .015-.01 2.594 2.594 0 0 1 .251-.151c.028-.013.048-.027.061-.033a.043.043 0 0 1 .016-.007c.016-.004.023.003.031.033l.147.596c.019.073.029.079.094.063l.177-.044c.054-.013.054-.013.075.074.017.068.012.081-.045.095l-.171.042c-.06.015-.066.025-.05.09z"/><path d="m8.179 22.086-1.119-.009-.553-.972 1.118.009z"/><path d="m16.982 22.086 1.119-.009.553-.972-1.118.009z"/></g></svg>