<svg height="340.54" viewBox="0 0 488.068 566" width="293.651" xmlns="http://www.w3.org/2000/svg"><path d="m488.018 0h-487.968l-.05 416.076c0 25.574 6.869 45.36 20.417 58.809 13.44 13.344 33.132 19.649 58.502 20.361 73.123 2.045 119.199 18.247 155.328 58.827l9.787 11.927 9.786-11.928c36.129-40.58 82.205-56.782 155.328-58.827 25.37-.712 45.063-7.018 58.503-20.361 13.548-13.448 20.417-33.234 20.417-58.809z" fill="#d49f45"/><path d="m409.148 482.332c-76.364 2.456-128.693 19.76-165.114 61.657-36.421-41.897-88.75-59.201-165.114-61.657-43.856-1.384-66.259-21.733-66.259-66.256l.029-226.202h462.689l.028 226.202c0 44.522-22.403 64.872-66.259 66.256z" fill="#003a80"/><path d="m12.71 12.66h462.648l.02 164.551h-462.689z" fill="#da001a"/><path d="m298.872 222.32v227.011h144.746v-72.2h-64.702v-154.811z" fill="#d49f45"/><path d="m369.067 232.168v154.808h64.706v52.507h-125.054v-207.315z" fill="#fff"/><path d="m35.463 335.824c0 65.632 53.392 119.024 119.018 119.024 65.632 0 119.024-53.393 119.024-119.024 0-65.629-53.392-119.018-119.024-119.018-65.626 0-119.018 53.389-119.018 119.018z" fill="#d49f45"/><path d="m45.901 335.824c0-59.872 48.708-108.579 108.58-108.579 59.875 0 108.585 48.707 108.585 108.579 0 59.873-48.71 108.586-108.585 108.586-59.873 0-108.58-48.713-108.58-108.586z" fill="#fff"/><path d="m217.665 268.335c-6.685 2.774-9.906-2.149-10.835-5.531-3.975 3.975-1.782 8.881-.205 10.259-1.3.669-6.729 3.776-6.977 10.426 5.491 1.553 10.66-.97 12.246-2.1.348 1.793 2.798 4.837 8.043 3.823-2.708-2.874-3.972-8.031-.12-10.184l1.01-.523c5.657-2.436 9.01 1.805 9.918 3.832 1.866 4.173.251 9.173-3.607 11.147l-25.303 13.069c-12.981 6.554-11.696 18.749-8.893 24.333l11.629 23.037c2.173 4.591-1.081 7.756-3.402 8.819-3.715 1.7-8.195.23-9.956-3.213l-15.633-30.56c.87.701 3.218 1.554 5.286.616-6.863-11.124 5.3-10.691 1.317-20.759.891 1.187 3.776 1.919 5.184 1.405-6.127-13.765 7.733-13.627.692-24.518.748.616 3.688.43 4.933-.613-8.583-8.557-.855-14.339-11.308-17.832 1.519.064 3.44-1.53 3.823-3.344-7.167.497-10.581-8.75-20.861-7.444-4.206.534-7.912 1.688-11.673 2.874-2.158.684-3.791-.108-5.774.882-.753.756-1.591 3.122-1.591 3.122-2.678.575-7.059 1.808-8.265 3.102-.368 1.361-.003 2.652.517 3.686 0 0 .628.222.78.987.75 3.767 1.974 7.059 4.147 9.015l6.355-1.58s5.038 2.792 6.659 6.98c.943 2.438.54 3.963-2.436 4.007-2.55.044-7.544-1.046-9.533-1.364-.838 2.149-1.229 6.276.646 7.687 1.02.763 6.367.494 7.999.371-.412 5.826-4.611 9.381-11.807 7.041-20.625-6.693-33.86-8.63-41.366-25.393.275-1.171 1.714-12.643-6.559-15.566 1.031 3.221 1.898 6.98.993 10.11-1.361-5.333-5.359-8.84-11.638-8.212 3.56 2.523 5.768 5.687 5.797 8.919-2.646-1.948-7.494-2.582-11.086-1.046 17.084 7.722 11.27 20.885 3.727 22.091 3.113 2.575 8.148 1.875 11.191 0l10.233 13.092c-1.907.4-3.796 1.913-4.498 3.192 2.068-.117 5.354.222 6.726 1.563.768 2.076 1.784 5.771.417 11.124 4.007-2.088 5.625-4.985 6.194-7.587l15.055 8.813c-7.599 3.998-30.309 15.423-41.915 10.078-1.764-.814-13.186-5.718-19.479.681 4.264-.143 8.405 1.601 9.153 3.31-4.398.484-9.711 2.403-11.051 7.315 1.659-1.069 7.208-1.46 10.07-.97-2.5 1.983-4.489 5.54-4.2 10.125 0 0 9.176-8.486 16.708-6.302 3.507 1.016 1.802 7.155 1.113 8.63 5.683-.821 7.129-6.448 7.146-6.904l17.525-.73c1.174.57 1.673 3.07.59 5.067 3-.835 4.331-2.61 5.082-5.44 3.68.443 5.721 2.949 6.148 6.688 2.549-2.634 2.208-6.711 1.156-8.797l19.091-4.608 6.629 7.316s-34.158 21.349-45.79 20.793c1.805 4.115 10.172 3.654 14.039 2.199-1.186 2.144-.339 5.245-.339 5.245s2.576.17 5.242-3.215c0 0 5.12 10.23 4.296 12.032-2.398 5.266-19.109 6.398-19.109 6.398-3.04-2.418-11.401-5.239-16.057-1.702 3.572.154 6.446 2.876 6.907 4.57-1.957.015-8.791.832-10.342 7.176 3.835-1.747 8.473-1.747 9.892-.987-2.172 1.551-4.856 5.154-4.162 9.626 4.93-5.21 11.778-7.556 16.332-6.542 2.666.593 2.813 4.588 2.039 7.436 3.796-.999 5.978-4.915 6.784-6.98l18.276-5.694s.59 1.627.555 4.231c2.284-.263 4.538-3.078 4.708-5.102 0 0 3.429 5.21 8.82 4.299-3.13-5.283-7.441-18.887-7.421-22.38.026-4.41 13.338-7.032 15.572-7.698l6.445 9.413s-6.554 3.206-7.681 7.409c5.747-2.538 10.376-2.284 11.845-1.922 1.259 1.329 2.515 3.691 3.037 6.486 1.25-.801 2.874-3.163 3.043-5.581 14.608 4.632 14.631 6.872 11.071 21.617-6.635-.651-17.213-.984-19.503 5.791 4.01-1.106 8.618-.391 11.112.569-3.107 1.055-8.683 4.294-7.348 10.684 0 0 5.397-6.04 11.606-4.971-3.327 2.047-7.479 6.34-3.832 11.699 3.297-6.793 11.004-7.474 14.231-6.825l4.574-9.903c1.86-4.027 6.98-3.519 7.546 1.601 4.839-5.949-.599-12.456-2.152-13.224l4.179-8.98c1.34.131 4.81 1.011 6.849-1.399-2.132-.648-4.007-2.041-4.836-3.516 2.132.148 7.803 1.021 10.49-2.685-9.112-1.825-30.35-14.78-31.95-22.759 4.159 3.376 10.187 4.349 15.408 2.013 3.37-1.511 5.923-4.136 7.246-7.43 3.773-7.795 13.735-1.464 15.289-15.891-3.983 5.651-12.774 1.893-14.506 8.91-3.531-15.537 18.896-5.391 19.05-28.856-5.531 9.596-25.32 6.174-23.694 18.311-8.475-25.063 29.505-8.828 27.426-41.356-7.412 14.696-36.862 10.806-34.076 28.183l-1.612-3.195c-2.226-4.585-1.711-10.96 5.201-14.704l25.983-13.394c7.079-3.63 10.067-12.354 6.764-20.148-1.995-4.719-9.355-11.885-19.404-7.166zm-68.614-6.445s-.619-2.015 1.91-2.512c2.827-.555 5.52 1.136 7.821 1.927-1.445 1.753-7.014 2.801-9.731.585zm.115 15.166c-11.174 5.029-20.505 4.722-29.073-.062 1.86 6.054 18.092 13.98 29.073.062z" fill="#d49f45"/><g fill="#fff"><path d="m170.989 153.298c-4.252 4.118-9.436 6.422-16.322 6.422-6.887 0-12.158-2.304-16.41-6.422-6.119-5.928-5.949-13.253-5.949-23.381s-.169-17.453 5.949-23.381c4.252-4.118 9.523-6.425 16.41-6.425 6.886 0 12.07 2.308 16.322 6.425 6.121 5.928 6.037 13.253 6.037 23.381-.001 10.128.084 17.453-6.037 23.381zm-8.756-39.847c-1.7-1.898-4.337-3.131-7.567-3.131s-5.952 1.232-7.652 3.131c-2.298 2.471-2.891 5.187-2.891 16.466s.593 13.995 2.891 16.465c1.7 1.893 4.422 3.128 7.652 3.128s5.867-1.235 7.567-3.128c2.295-2.471 2.973-5.187 2.973-16.465s-.677-13.995-2.973-16.466z"/><path d="m77.809 149.017h-25.332v-47.779l-.628-.631h-10.558l-.631.631v57.358l.631.631h36.506l.631-.631v-8.96z"/><path d="m123.286 100.607h-11.886l-11.139 23.626-11.308-23.626h-12.204l-.413.412 17.973 34.167v23.41l.631.631h10.473l.63-.631v-23.41l17.865-33.957z"/><path d="m229.275 100.607-.628.631v35.264l-23.974-35.895h-9.912l-.631.631v57.358l.631.631h10.555l.631-.631v-35.349l23.977 35.98h9.909l.631-.631v-57.358l-.631-.631z"/><path d="m348.418 101.238-.631-.631h-8.487l-.613.61-21.614 57.548.464.461h11.688l3.656-10.374h21.509l3.572 10.374h11.696l.458-.456zm-12.219 37.983 7.651-21.325 7.395 21.325z"/><path d="m381.565 100.607-.634.625v57.364l.634.631h10.555l.63-.631v-57.358l-.63-.631z"/><path d="m294.751 100.607-.633.631v35.264l-23.974-35.895h-9.912l-.631.631v57.358l.631.631h10.555l.63-.631v-35.349l23.977 35.98h9.912l.631-.631v-57.358l-.631-.631z"/><path d="m446.061 129.505c-2.553-2.307-6.037-3.788-11.563-4.529l-7.141-.987c-2.465-.327-4.422-1.235-5.613-2.304-1.273-1.154-1.784-2.719-1.784-4.203 0-4.03 3.058-7.406 9.354-7.406 3.843 0 8.229.485 11.962 3.674l.87-.047 6.612-6.331v-.806c-5.088-4.562-11.01-6.455-19.105-6.455-13.096 0-21.086 7.328-21.086 17.786 0 4.939 1.445 8.727 4.334 11.524 2.722 2.555 6.548 4.118 11.734 4.859l7.313.987c2.804.415 4.165.987 5.356 2.056 1.273 1.156 1.869 2.885 1.869 4.941 0 4.693-3.741 7.246-10.712 7.246-5.403 0-10.397-1.166-14.177-4.559l-.888.047-6.746 6.536v.879c5.853 5.499 12.692 7.307 21.641 7.307 12.666 0 22.444-6.422 22.444-17.783.002-5.187-1.444-9.468-4.674-12.432z"/><path d="m74.149 82.424c-4.045 4.045-8.98 6.308-15.537 6.308-6.554 0-11.571-2.263-15.616-6.308-5.829-5.826-5.666-13.028-5.666-22.978 0-9.953-.164-17.155 5.666-22.984 4.045-4.042 9.062-6.311 15.616-6.311 6.557 0 11.492 2.269 15.537 6.311 5.826 5.829 5.744 13.031 5.744 22.984.001 9.95.083 17.152-5.744 22.978zm-8.335-39.163c-1.618-1.863-4.127-3.078-7.202-3.078s-5.663 1.215-7.284 3.078c-2.185 2.43-2.748 5.099-2.748 16.186 0 11.08.563 13.752 2.748 16.179 1.621 1.863 4.208 3.075 7.284 3.075s5.584-1.212 7.202-3.075c2.187-2.427 2.833-5.099 2.833-16.179 0-11.087-.646-13.756-2.833-16.186z"/><path d="m347.425 84.323-4.492-4.489c3.642-5.342 3.563-11.731 3.563-20.388 0-9.953.078-17.155-5.748-22.984-4.045-4.042-8.983-6.311-15.536-6.311-6.554 0-11.571 2.269-15.616 6.311-5.826 5.829-5.663 13.031-5.663 22.984 0 9.95-.163 17.152 5.663 22.978 4.045 4.045 9.063 6.308 15.616 6.308 4.532 0 8.416-1.048 11.652-3.154l4.652 4.652h.894l5.015-5.017zm-13.229-13.23-4.291-4.287-5.986 5.908 5.018 4.938c-1.055.724-2.346 1.048-3.724 1.048-3.072 0-5.663-1.212-7.281-3.075-2.188-2.427-2.754-5.099-2.754-16.179 0-11.086.566-13.755 2.754-16.186 1.618-1.863 4.209-3.078 7.281-3.078 3.075 0 5.584 1.215 7.201 3.078 2.185 2.43 2.833 5.099 2.833 16.186 0 5.824-.164 9.141-1.051 11.647z"/><path d="m124.378 78.216h-22.993v-46.946l-.631-.631h-9.984l-.631.631v56.347l.631.631h33.608l.631-.631v-8.773z"/><path d="m163.001 30.639h-11.264l-10.601 23.22-10.762-23.22h-11.276l-.625.625 17 33.357v22.996l.628.631h9.906l.631-.631v-22.996l17-33.357z"/><path d="m211.887 30.639-14.968 31.149-15.051-31.149h-10.459l-.628.628v56.356l.631.625h9.983l.633-.625v-32.955l11.086 21.848h7.608l11.004-21.848v32.949l.631.631h9.982l.634-.625v-56.353l-.628-.631z"/><path d="m293.56 30.639h-9.988l-.628.625v56.359l.628.625h9.988l.631-.631v-56.347z"/><path d="m388.25 30.639-.628.628v36.836c0 6.635-3.966 10.598-10.035 10.598-6.068 0-9.953-3.963-9.953-10.598v-36.833l-.631-.631h-9.984l-.631.631v37.236c0 12.219 9.386 20.227 21.199 20.227 11.816 0 21.203-8.008 21.203-20.227v-37.236l-.631-.631z"/><path d="m420.32 78.216v-13.998h22.107l.631-.631v-8.773l-.631-.63h-22.107v-13.511h26.074l.631-.633v-8.77l-.631-.631h-36.687l-.631.631v56.347l.631.631h36.687l.631-.631v-8.773l-.631-.628z"/><path d="m256.093 30.639h-21.707l-.625.625v56.353l.628.631h9.988l.63-.631v-19.042h11.086c11.896 0 19.016-9.176 19.016-18.971 0-9.789-7.12-18.965-19.016-18.965zm-.569 27.823h-10.517v-17.789h10.517c5.1 0 8.335 4.241 8.335 8.931 0 4.696-3.235 8.858-8.335 8.858z"/></g></svg>