<svg height="79.343mm" viewBox="0 0 79.341 79.343" width="79.341mm" xmlns="http://www.w3.org/2000/svg"><g transform="translate(105.439 -55.489)"><path d="m-65.768 55.489c-21.876 0-39.671 17.796-39.671 39.671 0 21.874 17.795 39.672 39.671 39.672 21.874 0 39.671-17.798 39.671-39.672s-17.796-39.671-39.671-39.671" fill="#004170"/><path d="m-65.823 58.337c-9.839 0-19.089 3.831-26.047 10.788-6.957 6.957-10.788 16.208-10.788 26.047s3.831 19.087 10.788 26.047c6.957 6.957 16.208 10.788 26.047 10.788s19.089-3.831 26.047-10.788c6.957-6.959 10.788-16.208 10.788-26.047s-3.831-19.089-10.788-26.047c-6.958-6.957-16.208-10.788-26.047-10.788m0 1.459c19.539 0 35.376 15.839 35.376 35.376s-15.837 35.376-35.376 35.376c-19.537 0-35.376-15.839-35.376-35.376s15.839-35.376 35.376-35.376" fill="#fff"/><path d="m-76.43 69.685.156-3.896 2.566 2.942c-.929.271-1.837.59-2.722.953m.546-5.902c-.647.208-1.288.434-1.917.681l-.681 10.331c.612-.374 1.242-.722 1.888-1.043l.098-2.407c1.246-.549 2.544-1.004 3.884-1.356l1.587 1.821c.698-.15 1.407-.273 2.124-.36zm28.003 6.381c1.365-.32 3.871 2.171 4.351 3.857.399-.304 1.286-.955 1.286-.955-1.06-3.016-5.28-6.034-7.284-4.144-1.19 1.123-.514 2.853.523 3.947l1.008 1.06c1.029 1.083 1.926 2.16 1.1 2.841-.88.728-3.341-1.095-4.821-4.225l-1.324.999c.317.824 1.03 2.017 1.989 3.026 1.086 1.144 2.271 1.889 3.331 2.098.833.164 1.664.04 2.211-.469 1.366-1.267.869-3.114-1.277-5.374l-.89-.936c-.988-1.041-.584-1.634-.201-1.725m-40.017 2.647 2.482-2.724c.558-.612 1.511-.658 2.125-.098.612.558.658 1.511.098 2.124l-2.482 2.726zm5.477 4.993-2.064-1.881 2.558-2.817c1.158-1.268 1.158-3.312-.112-4.468-1.27-1.158-3.338-.999-4.494.271l-3.798 4.178 6.614 6.027c.415-.455.85-.889 1.296-1.31m16.476-13.92h3.387c.829 0 1.504.675 1.504 1.504s-.675 1.504-1.504 1.504h-3.387zm0 7.377v-2.757h2.307l1.991 3.147c.789.143 1.564.324 2.323.542l-2.386-3.805c1.368-.366 2.496-1.571 2.496-3 0-1.718-1.627-3.117-3.345-3.117h-5.229v9.067c.607-.047 1.219-.077 1.84-.077zm10.087 2.225 3.501-8.42c-.574-.257-1.156-.497-1.746-.721l-3.499 8.415c.593.219 1.174.462 1.744.726" fill="#fff"/><path d="m-58.772 94.91c-3.168-5.558-5.042-12.12-5.182-19.794-.607-.054-1.221-.087-1.842-.087-.626 0-1.244.033-1.856.089-.14 7.673-2.014 14.235-5.182 19.792zm.464.79h-14.99c-2.484 4.122-5.692 7.678-9.443 10.704 1.622 2.467 3.765 4.559 6.275 6.118-.093-.535-.143-1.083-.143-1.643 0-5.584 4.841-10.111 10.813-10.111s10.813 4.527 10.813 10.111c0 .56-.051 1.107-.143 1.643 2.507-1.557 4.65-3.646 6.27-6.111-3.754-3.028-6.964-6.586-9.45-10.711" fill="#e30613"/><path d="m-62.935 75.234c9.837 1.391 17.403 9.84 17.403 20.06 0 3.273-.78 6.362-2.159 9.1-8.929-6.698-14.354-16.138-15.244-29.16m7.807 37.288c.093-.535.143-1.083.143-1.643 0-5.584-4.841-10.111-10.813-10.111s-10.813 4.527-10.813 10.111c0 .56.051 1.107.145 1.643-2.512-1.559-4.655-3.651-6.275-6.118 3.749-3.026 6.957-6.583 9.441-10.704h14.99c2.486 4.125 5.696 7.683 9.45 10.711-1.62 2.465-3.761 4.554-6.27 6.111m-3.397 1.686c-2.258.869-4.708 1.351-7.272 1.351-2.563 0-5.012-.481-7.27-1.351-.824-1.251-1.302-2.727-1.302-4.312 0-4.496 3.838-8.142 8.572-8.142 4.736 0 8.574 3.646 8.574 8.142 0 1.585-.478 3.061-1.302 4.312m-27.535-18.914c0-10.222 7.57-18.671 17.408-20.06-.89 13.022-6.317 22.464-15.248 29.162-1.379-2.738-2.16-5.827-2.16-9.102m20.265-20.265c.623 0 1.235.031 1.844.087.138 7.673 2.014 14.235 5.182 19.792h-14.063c3.17-5.558 5.043-12.12 5.183-19.792.611-.054 1.23-.087 1.854-.087m0-1.459c-11.978 0-21.722 9.746-21.722 21.724s9.744 21.722 21.722 21.722 21.724-9.744 21.724-21.722-9.746-21.724-21.724-21.724" fill="#fff"/><path d="m-62.496 108.43c-1.05 0-2.059.845-2.643 2.388-.011.021-.017.047-.017.074-.002.098.077.178.175.18.07 0 .129-.039.161-.096 0-.004.002-.005.002-.009.002 0 .002-.002.002-.004.448-.967 1.281-1.422 1.753-1.422.266 0 .481.215.481.481s-.215.481-.481.481c-.024 0-.063-.003-.086-.007-.021-.003-.072-.016-.098.042-.019.047-.059.278.147.514.121.136.369.25.605.25.794 0 1.436-.644 1.436-1.436 0-.794-.642-1.436-1.436-1.436m-4.004 2.388c-.586-1.543-1.595-2.388-2.643-2.388-.794 0-1.436.644-1.436 1.436s.642 1.436 1.436 1.436c.236 0 .485-.114.605-.25.206-.236.166-.467.145-.513-.024-.06-.075-.047-.096-.044-.023.004-.061.007-.086.007-.266 0-.481-.215-.481-.481 0-.264.215-.479.481-.479.471 0 1.305.453 1.751 1.422 0 .002.002.002.002.004.002.002.004.004.004.007.03.058.091.098.159.096.1-.002.178-.082.177-.18 0-.026-.007-.051-.017-.074m2.114-3.054c0-.827-1.083-3.411-1.41-3.411-.024 0-.051.012-.08.037-.395.318-1.331 2.605-1.331 3.375 0 .618 1.247 2.244 1.247 3.13 0 .091.073.164.164.164.089 0 .164-.074.164-.164 0-.002-.002-.004-.002-.005.005-.885 1.247-2.509 1.247-3.124m-.69 4.548c-.236-.145-.416-.376-.481-.653-.03-.105-.124-.184-.24-.184-.114 0-.21.079-.24.184-.065.276-.245.507-.481.653-.044.026-.047.046-.03.079.143.285.387.639.684.878.042.033.058.035.066.035.011 0 .024-.002.066-.035.299-.24.541-.593.684-.878.017-.033.014-.053-.03-.079" fill="#ceab5d"/><path d="m-70.247 123.71-1.211-.266.11-.49 1.209.273zm-14.933-9.732c-.278-1.037-1.33-2.054-2.124-2.054-.178 0-.336.051-.472.152-.161.119-.255.278-.283.471-.045.304.077.688.329 1.022l.362.485c.28.374.551.766.493 1.076-.021.124-.091.224-.208.299-.063.042-.136.061-.219.061-.492 0-1.323-.875-1.732-2.131l-.009-.023-.357.336-.007.007.002.007c.08.315.294.822.653 1.303.378.504.808.854 1.212.983.131.042.259.063.381.063.177 0 .334-.046.453-.131.196-.145.313-.327.345-.544.061-.401-.152-.931-.632-1.571l-.32-.429c-.255-.341-.245-.563-.191-.689.049-.11.15-.187.266-.201.017-.002.037-.002.056-.002.583 0 1.408.967 1.623 1.718l.005.018.017-.009c.121-.07.261-.15.348-.199l.011-.007zm32.918 4.38-.436.222-.073 2.409-1.993-1.356-.436.224 1.483 3.056.444-.198-1.03-2.173.009-.005 1.975 1.338.075-2.383.009-.005 1.156 2.113.423-.24zm5.755-4.566 3.271.226.005-.007-1.919-1.727.327-.364 2.526 2.272-.294.364-3.305-.226-.007.007 1.944 1.749-.343.35-2.533-2.281zm-1.347 1.331 2.32 2.496-.366.324-2.313-2.488zm-2.003 2.348.25 1.274.871-.619zm3.063 1.228-.427.339-1.051-.644-1.237.88.24 1.232-.436.278-.717-3.656.443-.313zm-11.843 2.861.289.959 1.448-.436c.352-.107.497-.348.401-.665-.11-.369-.42-.376-.689-.294zm1.309-.904c.52-.157 1.099-.042 1.298.621.213.707-.192 1.071-.46 1.176l1.062 1.144-.514.184-1.055-1.158-1.209.364.408 1.366-.467.133-.98-3.252zm-3.087.857.07.485-2.271.325.128.883 1.144-.164.07.485-1.144.164.147 1.027 2.355-.338.068.483-2.837.408-.483-3.364zm-5.293 2.054 1.557.025-.014.903c-.011.611-.688 1.008-1.539.994-.904-.016-1.84-.651-1.821-1.805.014-.969.801-1.753 1.889-1.735.81.012 1.23.444 1.424.639l-.345.343c-.164-.166-.422-.481-1.037-.492-.903-.016-1.433.565-1.443 1.275-.012.667.504 1.272 1.365 1.288.59.009 1.015-.257 1.018-.546l.007-.38-1.069-.018zm-7.468-2.537-.161.462-1.125-.392-.967 2.773-.462-.161.966-2.773-1.125-.392.161-.462zm-5.875-2.513.588 3.224.009.004 1.2-2.285.434.227-1.58 3.011-.429-.194-.593-3.263-.007-.004-1.221 2.32-.42-.245 1.587-3.023zm-1.491-.949-1.903 2.886-.409-.268 1.903-2.886zm-2.916-1.433-1.172.556.813.691zm-.439 3.305-.436-.327.369-1.214-1.156-.981-1.149.546-.39-.357 3.394-1.602.415.352z" fill="#fff"/></g></svg>