<svg height="316.228" viewBox="0 0 700 700" width="316.228" xmlns="http://www.w3.org/2000/svg"><g transform="matrix(1.25 0 0 -1.25 -48.2475 1353.5275)"><g transform="matrix(.998 0 0 .998 .062 .82)"><path d="m319.043 1083.702c-154.63 0-280.445-125.809-280.445-280.431 0-154.639 125.815-280.448 280.445-280.448 154.647 0 280.462 125.809 280.462 280.448 0 154.622-125.815 280.431-280.462 280.431"/><path d="m319.043 1081.607c-153.475 0-278.35-124.869-278.35-278.337 0-153.484 124.875-278.354 278.35-278.354 153.492 0 278.367 124.869 278.367 278.354 0 153.467-124.875 278.337-278.367 278.337" fill="#fff"/><circle cx="319.048" cy="-803.269" fill="#009fe3" r="263.913" transform="scale(1 -1)"/></g><path d="m113.557 968.45a263.783 263.795 0 0 1 -55.191-124.489l355.076-287.244a263.783 263.795 0 0 1 109.956 80.185z" fill="#dc2f34"/><g transform="matrix(.998 0 0 .998 .062 .82)"><g fill="#fff"><path d="m130.818 671.235-4.058 5.993 10.832 2.903zm12.564 15.67-30.069-7.555 3.328-4.907 5.263 1.426 5.79-8.574-3.294-4.312 3.328-4.907 18.15 25.144-2.496 3.684z"/><path d="m157.148 668.383-3.701 4.329-22.123-18.947 12.275-14.363 3.871 3.311-8.591 10.034z"/><path d="m170.367 634.116c-.085 1.766-.798 3.396-2.479 5.484l-2.173 2.767c-.781.951-1.121 1.851-1.188 2.632-.051.832.306 1.511.849 2.071 1.375 1.46 3.565 1.698 5.756-.374 1.409-1.307 2.886-3.039 2.988-5.552l5.06.136c-.17 3.463-1.613 6.163-4.533 8.913-4.584 4.312-9.881 4.295-13.43.509-1.698-1.783-2.496-3.667-2.411-5.603.085-1.817.832-3.582 2.462-5.62l2.156-2.767c.934-1.154 1.188-1.732 1.239-2.513.034-.866-.323-1.664-1.002-2.377-1.596-1.698-3.803-1.426-6.265.917-1.953 1.817-3.345 3.973-3.413 6.57l-5.212-.153c.102-4.075 1.902-7.063 5.111-10.085 4.465-4.21 10.051-5.076 13.922-.968 1.8 1.901 2.717 3.905 2.564 6.01"/><path d="m184.215 617.107-5.807 4.329 9.304 6.282-3.498-10.611zm6.74 18.913-25.926-16.978 4.737-3.548 4.499 3.073 8.302-6.197-1.715-5.161 4.754-3.548 8.914 29.694z"/><path d="m217.858 608.043c2.156 5.789.136 10.594-4.567 13.344-2.886 1.698-5.569 1.986-8.285 1.29-3.973-1.036-5.671-3.837-8.472-8.642-2.818-4.788-4.431-7.64-3.396-11.613.73-2.716 2.292-4.907 5.195-6.604 4.652-2.733 9.864-2.173 13.854 2.547l-4.975 2.92c-1.698-1.766-3.888-2.513-6.316-1.087-1.341.781-2.156 1.918-2.377 3.141-.306 1.613.102 3.022 2.92 7.827 2.801 4.805 3.837 5.857 5.382 6.367 1.188.407 2.564.255 3.905-.526 2.445-1.426 2.818-3.684 2.122-6.027l5.009-2.937z"/><path d="m213.885 587.585 17.539-7.776 2.054 4.635-12.343 5.467 2.869 6.468 10.51-4.652 2.054 4.635-10.51 4.652 2.784 6.248 12.326-5.467 2.054 4.635-17.539 7.776-11.8-26.621z"/><path d="m183.407 991.96 4.414 3.056c2.037 1.409 4.296 1.036 5.586-.815 1.273-1.851.832-4.092-1.205-5.518l-4.414-3.056-4.38 6.333zm13.685-19.779-6.605 9.558 3.362 2.326 11.291-6.316 5.416 3.735-12.496 6.638c1.732 2.445 2.343 5.942.017 9.304-2.767 4.007-7.963 5.331-12.853 1.969l-9.372-6.502 16.571-23.955z"/><path d="m221.123 998.355-6.418-3.362-1.647 11.086 8.065-7.725zm-4.771-13.718-.832 5.382 9.168 4.805 3.922-3.769 5.246 2.75-22.938 20.865-3.956-2.071 4.143-30.729 5.246 2.767z"/><path d="m236.943 997.937c2.581-1.121 5.263-1.273 8.387-.085 5.043 1.935 7.878 6.333 6.69 12.411l-5.382-2.054c.306-2.428-.475-4.601-3.107-5.62-1.46-.543-2.852-.458-3.939.119-1.443.764-2.292 1.969-4.279 7.165-1.986 5.195-2.156 6.672-1.596 8.2.424 1.172 1.409 2.156 2.869 2.7 2.632 1.019 4.635-.102 6.01-2.105l5.433 2.071c-3.175 5.297-8.184 6.723-13.26 4.788-3.141-1.205-5.026-3.107-6.197-5.654-1.681-3.752-.56-6.825 1.426-12.02s3.192-8.234 6.944-9.915"/><path d="m264.925 1004.467-7.946 28.013-5.467-1.545 7.946-28.013z"/><path d="m276.381 1007.248-3.175 17.589 14.534-15.535 4.992.9-5.195 28.658-5.586-1.002 3.175-17.555-14.534 15.501-4.992-.9 5.178-28.675z"/><path d="m300.436 1013.715c2.105-1.868 4.601-2.835 7.912-2.683 3.107.153 5.756 1.07 8.048 3.718 2.02 2.309 2.547 4.805 2.343 9.015l-.221 4.244-10.985-.543.238-4.788 5.348.272.051-1.07c.085-1.511-.221-2.835-1.104-3.939-.849-1.07-2.207-1.749-3.973-1.834-1.545-.085-2.801.425-3.701 1.324-1.121 1.171-1.528 2.581-1.8 8.149-.272 5.552-.017 6.961.985 8.234.815.985 2.003 1.647 3.549 1.732 2.903.136 4.652-1.239 5.45-3.99l5.722.289c-1.019 4.856-4.635 9.1-11.41 8.76-3.311-.153-5.722-1.375-7.623-3.446-2.751-3.039-2.632-6.316-2.36-11.867.289-5.552.492-8.828 3.532-11.579"/><path d="m343.203 1009.908c5.365-.611 9.898 2.003 11.647 7.946l-5.739.645c-.832-2.292-2.53-3.871-5.331-3.548-1.545.17-2.751.883-3.447 1.902-.917 1.341-1.138 2.818-.509 8.336.628 5.535 1.155 6.91 2.343 8.014.934.849 2.258 1.273 3.786 1.087 2.818-.306 4.075-2.224 4.38-4.652l5.773-.645c-.374 6.18-4.16 9.728-9.576 10.339-3.328.374-5.892-.441-8.099-2.173-3.226-2.547-3.633-5.806-4.262-11.324-.611-5.535-.951-8.777 1.613-12.003 1.766-2.173 4.092-3.548 7.42-3.922"/><path d="m377.44 1008.803-12.887 2.954 5.399 23.446-5.535 1.273-6.537-28.387 18.422-4.227 1.138 4.94z"/><path d="m388.248 999.52c5.637-1.986 11.46.272 13.515 6.095l6.35 18.047-5.331 1.885-6.282-17.878c-1.121-3.158-3.667-4.38-6.571-3.362-2.886 1.019-4.075 3.565-2.971 6.723l6.299 17.861-5.365 1.902-6.35-18.064c-2.054-5.823 1.07-11.222 6.706-13.209"/><path d="m419.351 999.712c2.309-1.154 2.683-3.141 1.8-4.89s-2.717-2.665-5.009-1.511l-5.297 2.665 3.209 6.401zm.017 13.226 4.958-2.496c2.156-1.087 2.767-2.903 1.868-4.686-.9-1.8-2.717-2.394-4.873-1.307l-4.975 2.496zm-4.992-24.414c4.635-2.326 9.287-1.375 11.732 3.497 1.749 3.463.56 6.112-.645 7.64 1.63-.034 4.465.866 5.908 3.752 2.241 4.465.713 8.811-4.363 11.358l-10.442 5.246-13.09-26.01 10.9-5.484z"/><path d="m453.215 993.043 3.498-2.581c1.545-1.138 2.292-2.462 2.36-3.973.102-1.647-.9-3.192-3.616-6.893-2.717-3.684-3.905-5.093-5.518-5.484-1.46-.39-2.954-.068-4.499 1.07l-3.481 2.581 11.257 15.28zm-.781-24.023c2.937.951 4.737 3.328 7.606 7.199 2.852 3.888 4.601 6.333 4.635 9.406.034 3.565-1.375 6.282-4.567 8.642l-8.472 6.231-17.267-23.446 8.455-6.231c3.192-2.36 6.214-2.903 9.61-1.8"/><path d="m469.103 948.088 3.481 3.701-9.848 9.236 4.856 5.161 8.37-7.878 3.481 3.701-8.387 7.878 4.686 4.974 9.831-9.253 3.481 3.701-13.973 13.141-19.95-21.222 13.973-13.141z"/><path d="m493.775 937.215c.747-1.29.9-1.885.832-2.665-.119-.866-.577-1.596-1.358-2.19-1.851-1.426-3.99-.815-6.061 1.868-1.63 2.105-2.683 4.448-2.343 7.046l-5.161.645c-.543-4.041.764-7.266 3.464-10.764 3.769-4.856 9.134-6.587 13.6-3.124 2.071 1.613 3.294 3.429 3.481 5.535.187 1.766-.272 3.48-1.596 5.806l-1.715 3.073c-.628 1.07-.832 2.003-.747 2.784.068.832.526 1.443 1.138 1.918 1.579 1.222 3.786 1.121 5.637-1.273 1.188-1.511 2.36-3.446 2.071-5.942l5.026-.662c.374 3.446-.628 6.35-3.073 9.507-3.854 4.991-9.1 5.789-13.209 2.615-1.936-1.511-3.022-3.226-3.243-5.161-.204-1.817.272-3.684 1.545-5.942l1.715-3.073z"/><path d="m495.333 914.284 2.971-4.856 20.51 12.563 3.973-6.485 4.33 2.649-10.917 17.827-4.313-2.649 3.956-6.502-20.51-12.546z"/><path d="m528.28 904.481 2.241-4.873c1.053-2.258.289-4.414-1.749-5.365-2.054-.934-4.177-.119-5.229 2.139l-2.241 4.873zm-21.851-10.085 10.561 4.873 1.715-3.718-8.167-10.034 2.767-5.976 8.676 11.171c2.105-2.139 5.45-3.345 9.168-1.63 4.414 2.054 6.622 6.944 4.143 12.326l-4.788 10.356-26.452-12.207z"/><path d="m537.11 872.812-9.016-6.621-2.19 6.893zm-21.698.458 5.433-.119 3.158-9.847-4.38-3.209 1.8-5.654 24.5 18.998-1.341 4.244-30.986 1.222 1.817-5.637z"/><path d="m541.756 857.022c-2.411-.475-4.16-1.511-5.229-3.141-.985-1.528-1.409-3.396-1.29-5.993l.153-3.514c.068-1.494-.051-2.105-.475-2.767-.475-.713-1.222-1.154-2.19-1.341-2.292-.441-3.922 1.07-4.567 4.414-.509 2.598-.374 5.178 1.07 7.317l-4.313 2.92c-2.309-3.362-2.581-6.842-1.749-11.171 1.172-6.027 5.195-9.983 10.73-8.913 2.581.492 4.499 1.579 5.603 3.379.951 1.477 1.324 3.209 1.188 5.891l-.153 3.514c-.068 1.239.17 2.156.577 2.818.458.713 1.138 1.053 1.902 1.205 1.97.374 3.888-.696 4.465-3.667.357-1.901.543-4.143-.832-6.248l4.177-2.852c1.902 2.903 2.309 5.942 1.545 9.881-1.205 6.18-5.518 9.253-10.612 8.268"/><path d="m538.667 823.886.424-5.925c.187-2.564-1.307-3.905-3.277-4.041-1.953-.136-3.667.968-3.854 3.531l-.441 5.908 7.148.526zm11.8.849.391-5.552c.187-2.394-1.07-3.837-3.073-3.99-1.986-.153-3.447 1.104-3.616 3.514l-.407 5.552 6.706.475zm-23.532-8.217c.374-5.178 3.582-8.693 9.016-8.285 3.871.272 5.552 2.649 6.231 4.465.798-1.409 3.039-3.396 6.265-3.158 4.975.357 7.912 3.905 7.504 9.575l-.849 11.664-29.05-2.105z"/><path d="m549.572 787.965c-1.29-.985-2.7-1.273-8.252-.951-5.552.323-6.876.764-8.048 1.901-.883.866-1.477 2.173-1.375 3.735.085 1.545.815 2.767 1.8 3.582 1.29.985 2.649 1.239 8.218.9 5.552-.323 6.927-.73 8.082-1.851.9-.917 1.426-2.224 1.341-3.769-.085-1.562-.781-2.784-1.766-3.548m-7.335 14.855c-5.552.323-8.829.475-11.885-2.258-2.088-1.851-3.328-4.278-3.532-7.623-.187-3.345.781-5.874 2.615-7.946 2.734-3.056 5.993-3.345 11.562-3.667 5.552-.306 8.829-.424 11.885 2.309 2.071 1.851 3.328 4.227 3.515 7.572.204 3.362-.764 5.908-2.598 7.979-2.734 3.073-6.01 3.311-11.562 3.633"/><path d="m523.944 767.123c-1.036-5.874 2.139-11.256 8.218-12.326l18.863-3.311.985 5.569-18.676 3.277c-3.294.577-4.924 2.886-4.397 5.925.543 3.022 2.852 4.601 6.146 4.024l18.659-3.277.985 5.603-18.863 3.311c-6.078 1.07-10.883-2.903-11.919-8.794"/><path d="m533.372 735.8 1.579 5.11 7.352-2.258-1.579-5.127c-.747-2.377-2.751-3.463-4.89-2.801-2.156.662-3.192 2.682-2.462 5.076m-14.041 9.949 11.087-3.429-1.205-3.905-12.768-2.003-1.953-6.282 13.922 2.496c.136-3.005 1.817-6.129 5.739-7.334 4.635-1.443 9.559.73 11.308 6.384l3.362 10.917-27.828 8.591-1.664-5.433z"/><path d="m526.684 721.471c-5.077 2.292-8.065 3.599-11.919 2.156-2.615-1.019-4.635-2.801-5.993-5.823-1.273-2.835-1.681-5.62-.357-8.862 1.138-2.852 3.107-4.448 6.944-6.197l3.871-1.749 4.533 10.034-4.363 1.969-2.207-4.89-.968.441c-1.375.628-2.428 1.494-3.005 2.801-.56 1.239-.543 2.75.17 4.363.645 1.409 1.681 2.292 2.886 2.682 1.562.475 3.005.187 8.065-2.105 5.077-2.292 6.197-3.158 6.893-4.635.492-1.171.543-2.547-.085-3.956-1.205-2.649-3.226-3.565-6.044-3.022l-2.343-5.229c4.788-1.307 10.204-.034 13.005 6.163 1.358 3.022 1.358 5.704.407 8.336-1.46 3.854-4.414 5.229-9.491 7.521"/></g><g><path d="m114.39 967.405 111.243-97.587c.034-.357.085-.713.17-1.053 1.664-7.063 12.411-12.02 17.573-14.38.764-.374 1.392-.662 1.817-.866 5.841-3.022 12.853-7.538 14.415-10.39.815-1.477 1.036-2.852.645-4.075-.441-1.358-1.613-2.513-3.413-3.379-.645-.306-1.324-.441-2.173-.441-3.328 0-9.746 2.105-25.23 7.199-6.027 1.969-13.447 4.414-22.598 7.351-8.999 2.886-17.352 4.346-24.839 4.346-21.274 0-29.084-11.511-29.831-12.682-7.895-9.847-12.275-36.213-6.078-68.607.306-1.545.611-3.09.951-4.652 8.727-39.846 30.799-75.771 62.175-101.17 31.054-25.161 70.138-39.015 110.037-39.015 1.868 0 3.718.051 5.586.102 25.468.815 50.715 7.215 73.381 18.641l10.527 5.297-11.393-2.988c-4.143-1.087-19.152-4.635-38.881-4.635-22.87 0-56.216 4.924-85.13 28.336-31.665 25.636-42.141 60.457-45.57 78.929-4.805 25.942-1.63 48.896 4.211 56.128 5.586 6.893 14.839 8.794 24.653 10.798 10.306 2.105 20.985 4.295 27.777 12.682l.017.017c6.791 8.404 6.723 19.287 6.639 29.83-.085 10-.153 19.456 5.45 26.349 6.163 7.606 30.001 15.823 57.795 15.823 21.936 0 54.11-4.89 82.906-28.2 49.985-40.492 49.56-104.039 48.966-116.365l-.577-11.799 3.005 11.426c17.505 66.484-5.705 137.4-59.119 180.659-42.735 34.6-89.137 39.779-112.992 39.779-34.789 0-61.258-10.187-69.493-20.254-1.392-1.341-17.844-18.472 3.209-55.194 4.788-8.37 8.71-15.11 11.902-20.594 10.51-18.081 13.005-22.377 12.292-25.382-.407-1.715-1.579-4.601-4.754-4.601-.611 0-1.273.119-1.953.323-3.124.951-9.016 6.859-13.158 11.935-.289.374-.696.917-1.205 1.596-3.43 4.618-10.578 14.21-17.912 14.21-.306 0-.611-.017-.9-.051l-118.577 88.521c-.255.187-1.412.958-1.701.941-.374-.458-.747-.934-1.121-1.392.036-.342 1.123-1.258 1.259-1.467"/><g fill="#fff"><path d="m228.04 876.783.17.221c1.036 1.273 2.173 2.241 3.379 2.886l-91.921 68.641 86.25-75.669c.374 1.324 1.087 2.632 2.122 3.922"/><path d="m235.427 878.379c-1.953 0-3.684-.968-5.28-2.937l-.17-.204c-1.647-2.037-2.207-3.956-1.766-5.908 1.375-5.891 11.766-10.662 16.197-12.699.815-.374 1.477-.696 1.936-.917 1.307-.679 12.853-6.723 15.433-11.375 1.155-2.071 1.443-4.16.832-6.044-.645-2.02-2.275-3.701-4.703-4.856-.985-.458-2.02-.679-3.226-.679-3.735 0-9.814 1.986-26.011 7.317-6.027 1.969-13.43 4.397-22.598 7.351-8.744 2.801-16.843 4.227-24.075 4.227-20.561 0-27.675-11.46-27.743-11.579l-.102-.136c-7.946-9.796-12.106-37.402-4.686-71.221 8.608-39.303 30.374-74.735 61.309-99.777 30.612-24.804 69.136-38.454 108.475-38.454 23.311 0 46.623 4.788 67.999 13.888-7.182-1.222-17.182-2.428-28.761-2.428-23.294-.017-57.217 5.008-86.709 28.879-23.923 19.371-40.409 47.928-46.436 80.406-5.127 27.64-1.409 50.576 4.72 58.131 6.129 7.589 16.265 9.66 26.062 11.664 9.898 2.037 20.136 4.126 26.368 11.833 6.248 7.708 6.18 18.149 6.095 28.251-.068 10-.153 20.356 5.993 27.928 6.673 8.234 30.833 16.757 59.73 16.757 22.327 0 55.112-4.991 84.468-28.76 41.937-33.955 49.034-83.785 49.9-107.316 12.224 62.342-10.951 127.061-60.749 167.382-42.141 34.125-87.897 39.218-111.43 39.218-34.076 0-59.815-9.745-67.608-19.388l-.119-.119c-.17-.17-16.843-16.553 3.599-52.223 4.788-8.353 8.71-15.093 11.902-20.577 11.443-19.694 13.498-23.225 12.547-27.215-.985-4.126-3.599-6.485-7.165-6.485-.866 0-1.766.153-2.683.424-5.111 1.562-13.413 11.596-14.347 12.75-.306.374-.747.951-1.273 1.664-2.937 3.956-9.848 13.226-15.926 13.226"/></g></g><g><path d="m476.947 758.974c0 57.88-47.103 104.98-105.003 104.98s-105.003-47.101-105.003-104.98c0-57.897 47.103-104.998 105.003-104.998s105.003 47.101 105.003 104.998"/><path d="m371.944 860.993c-56.267 0-102.04-45.772-102.04-102.019 0-56.264 45.774-102.036 102.04-102.036 56.267 0 102.04 45.772 102.04 102.036 0 56.247-45.774 102.019-102.04 102.019z" fill="#fff"/><g fill="#004996"><path d="m432.253 709.907c7.929 0 15.518 1.46 23.923 9.372 8.404 7.929 10.357 18.76 10.357 24.091s-2.275 16.485-9.712 22.631-22.14 9.372-25.213 10.017c-3.073.662-8.727 1.63-8.727 9.134 0 7.521 5.569 9.949 8.727 9.949s5.569-2.428 7.521-4.363c1.936-1.935.968-8.981 9.457-8.981s8.489 9.949 1.936 19.405c-6.537 9.457-15.281 9.949-19.406 9.949-4.109 0-24.975-2.428-24.975-25.959 0-23.514 24.245-25.449 31.291-27.402 7.029-1.935 13.09-7.504 13.09-15.755s-7.997-15.755-18.184-15.755-13.82 4.839-15.281 8.489c-1.46 3.633-2.92 10.9-4.126 15.263-1.205 4.363-8.252 11.154-8.252 11.154s-27.641 21.341-32.242 25.959c1.205 0 26.181 1.698 26.181 26.434 0 24.719-29.084 25.942-29.084 25.942h-45.112c-3.888 0-6.35-3.633-6.35-7.283v-76.382c0-4.839 5.06-7.996 8.693-7.996s7.844 4.601 7.844 7.844v67.894h40.256c2.903 0 7.759-3.565 7.759-9.541 0-5.993-5.654-9.864-9.05-9.864h-27.488c-3.396 0-6.639-4.363-6.639-8.081s3.396-6.621 3.396-6.621 31.376-24.091 37.998-28.777c-2.105-.17-33.957-7.929-33.957-39.931 0-32.003 28.778-43.48 36.538-43.48h37.2s6.944 1.443 6.944 7.912c0 6.468-6.944 7.759-6.944 7.759h-34.602c-3.073 0-22.479 2.581-22.479 26.196 0 23.599 24.568 25.704 26.028 25.704s5.501 0 9.219-1.138c4.856-32.648 25.536-33.785 33.465-33.785"/><path d="m338.483 729.389h-29.339v31.765l-2.054 2.054v16.859l-4.499 6.299-3.158 32.495-3.141-32.495-5.094-6.299v-16.74l-3.396-3.396v-47.52s13.26-21.816 30.273-30.067h31.563l4.618 3.633s-15.773 5.823-15.773 43.412"/></g></g></g></g></svg>